<?xml version="1.0" encoding="UTF-8"?>
<svg width="1721px" height="362px" viewBox="0 0 1721 362" version="1.1" xmlns="http://www.w3.org/2000/svg" xmlns:xlink="http://www.w3.org/1999/xlink">
    <!-- Generator: Sketch 42 (36781) - http://www.bohemiancoding.com/sketch -->
    <title>Page 1</title>
    <desc>Created with Sketch.</desc>
    <defs>
        <polygon id="path-1" points="134.397 178.5697 134.397 0.2577 0.4236 0.2577 0.4236 178.5697"></polygon>
        <polygon id="path-3" points="0.57805 252 133.6438 252 133.6438 0.2573 0.57805 0.2573"></polygon>
        <polygon id="path-5" points="331.2553 0.641 0.0003 0.641 0.0003 331.8963 331.2553 331.8963 331.2553 0.641"></polygon>
    </defs>
    <g id="Page-1" stroke="none" stroke-width="1" fill="none" fill-rule="evenodd">
        <g id="1-Primary" transform="translate(-290.000000, -241.000000)">
            <g id="Page-1" transform="translate(290.000000, 240.000000)">
                <path d="M522.6091,188.9425 C521.9381,191.7365 523.2801,192.7875 525.2801,192.7875 L566.8131,192.7875 C568.8241,192.7875 570.1661,191.7365 569.4951,188.9425 L547.7231,91.3925 C547.3881,89.9845 547.0521,89.2915 546.3821,89.2915 L545.7111,89.2915 C545.0521,89.2915 544.7161,89.9845 544.3811,91.3925 L522.6091,188.9425 Z M497.1491,283.6755 C496.1431,286.8275 493.7961,288.9285 490.7891,288.9285 L472.3591,288.9285 C467.0051,288.9285 464.9931,285.0835 465.6641,281.9325 L527.9631,49.4355 C528.6331,46.2835 531.3161,44.2055 534.3221,44.2055 L557.7711,44.2055 C560.7881,44.2055 563.4711,46.2835 564.1411,49.4355 L626.4401,281.9325 C627.1101,285.0835 625.0991,288.9285 619.7451,288.9285 L601.3151,288.9285 C598.3081,288.9285 595.9611,286.8275 594.9551,283.6755 L580.2131,230.1845 C579.5431,227.0545 576.8721,225.2885 573.8541,225.2885 L518.2501,225.2885 C515.2321,225.2885 512.8851,227.0545 511.8911,230.1845 L497.1491,283.6755 Z" id="Fill-1" fill="#444444"></path>
                <path d="M938.3909,71.4761 C938.3909,74.6051 936.0439,77.0641 933.0369,77.0641 L910.2589,77.0641 C907.2419,77.0641 904.8949,74.6051 904.8949,71.4761 L904.8949,47.3341 C904.8949,44.5401 907.2419,41.7461 910.2589,41.7461 L933.0369,41.7461 C936.0439,41.7461 938.3909,44.5401 938.3909,47.3341 L938.3909,71.4761 Z M862.6919,143.8341 C859.0149,143.8341 855.9969,140.6821 855.9969,136.8371 L855.9969,121.1231 C855.9969,117.2551 859.0149,114.1261 862.6919,114.1261 L930.6899,114.1261 C934.3789,114.1261 937.3849,117.2551 937.3849,121.1231 L937.3849,255.7121 C937.3849,257.8131 938.7259,259.2211 940.7379,259.2211 L983.2759,259.2211 C986.9649,259.2211 989.9709,262.3501 989.9709,266.1951 L989.9709,281.9321 C989.9709,285.7771 986.9649,288.9291 983.2759,288.9291 L859.3499,288.9291 C855.6619,288.9291 852.6439,285.7771 852.6439,281.9321 L852.6439,266.1951 C852.6439,262.3501 855.6619,259.2211 859.3499,259.2211 L903.2179,259.2211 C905.2299,259.2211 906.5709,257.8131 906.5709,255.7121 L906.5709,147.3431 C906.5709,145.2421 905.2299,143.8341 903.2179,143.8341 L862.6919,143.8341 Z" id="Fill-3" fill="#444444"></path>
                <path d="M1050.6602,70.7608 C1046.9722,70.7608 1043.9652,67.6088 1043.9652,63.7638 L1043.9652,48.7428 C1043.9652,44.8978 1046.9722,41.7458 1050.6602,41.7458 L1112.6232,41.7458 C1116.3112,41.7458 1119.3292,44.8978 1119.3292,48.7428 L1119.3292,255.7118 C1119.3292,257.8128 1120.6592,259.2208 1122.6712,259.2208 L1160.5262,259.2208 C1164.2032,259.2208 1167.2212,262.3508 1167.2212,266.1958 L1167.2212,281.9318 C1167.2212,285.7768 1164.2032,288.9288 1160.5262,288.9288 L1043.9652,288.9288 C1040.2772,288.9288 1037.2592,285.7768 1037.2592,281.9318 L1037.2592,266.1958 C1037.2592,262.3508 1040.2772,259.2208 1043.9652,259.2208 L1085.8332,259.2208 C1087.8332,259.2208 1089.1752,257.8128 1089.1752,255.7118 L1089.1752,74.2698 C1089.1752,72.1688 1087.8332,70.7608 1085.8332,70.7608 L1050.6602,70.7608 Z" id="Fill-5" fill="#444444"></path>
                <path d="M1306.9514,71.4761 C1306.9514,74.6051 1304.6044,77.0641 1301.5974,77.0641 L1278.8194,77.0641 C1275.8024,77.0641 1273.4554,74.6051 1273.4554,71.4761 L1273.4554,47.3341 C1273.4554,44.5401 1275.8024,41.7461 1278.8194,41.7461 L1301.5974,41.7461 C1304.6044,41.7461 1306.9514,44.5401 1306.9514,47.3341 L1306.9514,71.4761 Z M1231.2524,143.8341 C1227.5754,143.8341 1224.5574,140.6821 1224.5574,136.8371 L1224.5574,121.1231 C1224.5574,117.2551 1227.5754,114.1261 1231.2524,114.1261 L1299.2504,114.1261 C1302.9394,114.1261 1305.9454,117.2551 1305.9454,121.1231 L1305.9454,255.7121 C1305.9454,257.8131 1307.2864,259.2211 1309.2984,259.2211 L1351.8364,259.2211 C1355.5254,259.2211 1358.5314,262.3501 1358.5314,266.1951 L1358.5314,281.9321 C1358.5314,285.7771 1355.5254,288.9291 1351.8364,288.9291 L1227.9104,288.9291 C1224.2224,288.9291 1221.2044,285.7771 1221.2044,281.9321 L1221.2044,266.1951 C1221.2044,262.3501 1224.2224,259.2211 1227.9104,259.2211 L1271.7784,259.2211 C1273.7904,259.2211 1275.1314,257.8131 1275.1314,255.7121 L1275.1314,147.3431 C1275.1314,145.2421 1273.7904,143.8341 1271.7784,143.8341 L1231.2524,143.8341 Z" id="Fill-7" fill="#444444"></path>
                <path d="M1505.9736,226.0042 C1506.9796,211.6532 1506.9796,191.3792 1505.9736,177.0502 C1504.6326,158.5202 1490.5606,142.0902 1467.4476,142.0902 C1444.3456,142.0902 1430.2746,158.5202 1428.9326,177.0502 C1427.9276,191.3792 1427.9276,211.6532 1428.9326,226.0042 C1430.2746,244.5352 1444.3456,260.9642 1467.4476,260.9642 C1490.5606,260.9642 1504.6326,244.5352 1505.9736,226.0042 M1536.1166,177.0502 C1537.1226,191.0432 1537.1226,212.0112 1536.1166,226.0042 C1533.4346,262.7082 1507.6506,292.4162 1467.4476,292.4162 C1427.2566,292.4162 1401.4726,262.7082 1398.7896,226.0042 C1397.7836,212.0112 1397.7836,191.0432 1398.7896,177.0502 C1401.4726,140.3462 1427.2566,110.6162 1467.4476,110.6162 C1507.6506,110.6162 1533.4346,140.3462 1536.1166,177.0502" id="Fill-9" fill="#444444"></path>
                <g id="Group-13" transform="translate(1586.000000, 110.359000)">
                    <mask id="mask-2" fill="white">
                        <use xlink:href="#path-1"></use>
                    </mask>
                    <g id="Clip-12"></g>
                    <path d="M70.7576,0.2577 C105.9306,0.2577 134.3976,28.2437 134.3976,66.6917 L134.3976,171.5727 C134.3976,175.4177 131.3796,178.5697 127.7026,178.5697 L110.9486,178.5697 C107.2716,178.5697 104.2536,175.4177 104.2536,171.5727 L104.2536,66.6917 C104.2536,46.4167 88.1706,31.7307 67.4046,31.7307 C46.6386,31.7307 30.5666,44.6737 30.5666,64.9477 L30.5666,171.5727 C30.5666,175.4177 27.5486,178.5697 23.8606,178.5697 L7.1176,178.5697 C3.4296,178.5697 0.4236,175.4177 0.4236,171.5727 L0.4236,10.7637 C0.4236,6.8967 3.4296,3.7667 7.1176,3.7667 L21.8596,3.7667 C23.8606,3.7667 25.2016,4.8177 26.5426,6.2037 C28.5546,8.6627 31.5726,11.7917 34.9136,11.7917 C44.6266,11.7917 47.3086,0.2577 70.7576,0.2577" id="Fill-11" fill="#444444" mask="url(#mask-2)"></path>
                </g>
                <g id="Group-16" transform="translate(660.000000, 110.359000)">
                    <mask id="mask-4" fill="white">
                        <use xlink:href="#path-3"></use>
                    </mask>
                    <g id="Clip-15"></g>
                    <path d="M106.8408,115.6453 C105.5008,134.1763 91.4288,150.6053 68.3258,150.6053 C45.2138,150.6053 31.1428,134.1763 29.7988,115.6453 C28.7938,101.2943 28.7938,81.0203 29.7988,66.6913 C31.1428,48.1603 45.2138,31.7313 68.3258,31.7313 C91.4288,31.7313 105.5008,48.1603 106.8408,66.6913 C107.8458,81.0203 107.8458,101.2943 106.8408,115.6453 M126.9358,3.7673 L115.5478,3.7673 C113.5378,3.7673 112.2058,4.8173 110.8648,6.2033 C108.8518,8.6623 105.8358,11.7923 102.4818,11.7923 C92.7688,11.7923 89.7618,0.2573 64.9748,0.2573 C29.7988,0.2573 4.0148,29.9873 1.3348,66.6913 C0.3258,80.6843 0.3258,101.6513 1.3348,115.6453 C4.0148,152.3493 29.7988,182.0563 64.9748,182.0563 C80.3758,182.0563 89.4268,173.6743 96.1228,173.3163 C100.8168,172.9813 103.4898,174.7243 103.4898,181.3633 L103.4898,189.0533 C103.4898,207.9413 89.0908,220.5263 72.3388,220.5263 C66.4978,220.5263 61.6518,219.8173 57.6188,218.4323 C54.1988,217.2573 50.4718,218.5043 48.6648,221.6363 L40.5708,235.6563 C38.3458,239.5103 39.9788,244.4543 44.0538,246.2423 C52.6248,250.0053 62.2508,252.0003 72.3388,252.0003 C107.8458,252.0003 133.6438,222.9623 133.6438,189.0533 L133.6438,10.7633 C133.6438,6.8963 130.6248,3.7673 126.9358,3.7673" id="Fill-14" fill="#444444" mask="url(#mask-4)"></path>
                </g>
                <g id="Group-19" transform="translate(0.000000, 0.359000)">
                    <mask id="mask-6" fill="white">
                        <use xlink:href="#path-5"></use>
                    </mask>
                    <g id="Clip-18"></g>
                    <path d="M331.2553,166.2683 C331.2553,257.7423 257.1013,331.8963 165.6273,331.8963 C74.1543,331.8963 0.0003,257.7423 0.0003,166.2683 C0.0003,74.7943 74.1543,0.6403 165.6273,0.6403 C257.1013,0.6403 331.2553,74.7943 331.2553,166.2683" id="Fill-17" fill="#835CFF" mask="url(#mask-6)"></path>
                </g>
                <polygon id="Fill-20" fill="#FFFFFF" points="173.8303 72.2382 157.3583 72.2382 157.3583 101.4932 140.8893 101.4932 140.8893 102.2572 140.8893 124.0542 124.4193 124.0542 124.4193 150.1942 108.2163 150.1942 108.2163 150.9572 108.2163 259.6442 108.2163 260.4072 124.6883 260.4072 124.6883 259.6442 124.6883 233.5042 140.8903 233.5042 140.8903 211.7072 157.3603 211.7072 157.3603 210.9442 157.3603 181.6892 173.8303 181.6892"></polygon>
                <polygon id="Fill-22" fill="#C1ADFF" points="223.2195 120.305 206.7475 120.305 206.7475 145.624 190.3005 145.624 190.3005 91.357 173.8285 91.357 173.8285 200.807 190.2785 200.807 190.2785 255.075 206.7495 255.075 206.7495 229.755 223.2195 229.755"></polygon>
            </g>
        </g>
    </g>
</svg>