<svg width="149" height="44" viewBox="0 0 149 44" xmlns="http://www.w3.org/2000/svg" xmlns:xlink="http://www.w3.org/1999/xlink"><title>AIGAvt-BLACK</title><defs><path id="a" d="M0 .84h148.822v42.835H0"/></defs><g id="Page-1" fill="none" fill-rule="evenodd"><mask id="b" fill="#fff"><use xlink:href="#a"/></mask><path d="M40.84 27.635h-5.213s-.076-.015-.02-.044c.06-.03 1.738-.566 1.868-.606.254-.087.322-.142.336-.544.008-.386.114-2.658.114-2.794 0-.142.044-.42-.328-.45-.173-.015-.746-.064-1.345-.077-.714-.023-1.456-.006-1.583 0-.402.006-.502.03-.73.206-.178.14-2.684 3.24-2.78 3.37-.1.146-.073.3.188.384.274.08 1.864.408 2.227.48.053.013.042.075-.03.075H28.63c-.052 0-.046-.058-.008-.075.032-.022.686-.258 1.018-.517.17-.108 9.487-10.264 9.65-10.418.05-.04.1-.032.12.01.043.08-.1 9.72-.095 9.872.014.167.025.37.29.498.253.116 1.18.516 1.295.56.054.02.02.07-.06.07m-12.81-.66c-.14.05-1.832.7-3.478.747-4.203.11-5.74-2.827-5.02-5.503.377-1.406 1.302-2.727 2.473-3.65.672-.526 2.664-1.76 5.26-1.76.49 0 1.747.06 2.662.303.45.117.383.364.333.546-.026.09-1.015 3.064-1.044 3.134-.044.113-.135.116-.135-.005-.002-.064.12-2.704.116-2.813-.004-.276-.004-.447-.312-.548-.433-.137-2.502-.317-4.021.39-2.56 1.194-4.046 3.945-3.74 6.14.243 1.807 1.68 3.282 3.966 3.342.724.02 1.247-.084 1.4-.136.234-.067.263-.134.315-.265.047-.135.43-1.75.448-1.817.012-.07.112-.294-.124-.362-.23-.06-2.306-.62-2.414-.65-.108-.027-.06-.082.02-.082h3.894c.158 0 .566-.04.46.348-.115.392-.71 2.252-.756 2.382-.05.132-.16.203-.305.256m-9.795-9.453c-.254.114-.345.25-.412.45-.048.16-2.018 8.464-2.05 8.608-.034.188-.044.348.175.434.224.09 1.345.487 1.433.523.095.038.07.1-.027.1h-4.83c-.093 0-.137-.03-.054-.07.1-.044 1.16-.426 1.266-.466.113-.045.386-.146.463-.39.054-.18 2.08-8.53 2.115-8.69.05-.205.025-.41-.213-.494-.127-.05-1.368-.472-1.412-.487-.07-.023-.07-.07-.006-.07h5.07c.055 0 .107.04.032.06-.074.02-.902.266-.992.29-.102.032-.405.13-.56.2M0 .84v26.724c.028-.01.046-.018.055-.018.034-.018.685-.244 1.02-.503.17-.108 9.485-10.264 9.643-10.418.052-.04.107-.032.132.01.037.08-.105 9.72-.1 9.872.01.167.025.37.29.498.25.116 1.178.516 1.298.56.047.02.014.07-.064.07H7.06s-.076-.015-.02-.044c.06-.03 1.74-.566 1.866-.606.254-.087.326-.142.338-.544.007-.386.114-2.658.114-2.794 0-.142.043-.42-.332-.45-.172-.015-.745-.064-1.343-.077-.713-.023-1.457-.006-1.582 0-.404.006-.5.03-.73.206-.18.14-2.683 3.24-2.78 3.37-.1.146-.07.3.19.384.274.08 1.86.408 2.224.48.052.013.04.075-.034.075H.064c-.01 0-.034 0-.064.004v16.11h42.91V.84H0" fill="#1A1918" mask="url(#b)"/><path d="M6.407 22.7l2.546.006c.357 0 .448-.126.448-.342 0-.145.044-2.797.044-3.098 0-.29-.17-.3-.363-.083-.096.11-2.76 2.974-2.907 3.134-.143.162-.157.378.234.383M37.65 19.183c-.102.112-2.764 2.976-2.91 3.136-.145.16-.156.376.234.38l2.544.006c.352 0 .45-.125.45-.34 0-.146.038-2.797.038-3.1 0-.288-.163-.3-.357-.083M61.904 32.12c-.09.208-.178.297-.534.297-.3 0-.416-.118-.476-.297l-6.508-18.394c-1.367 0-1.635.03-1.932.03-.208 0-.447-.21-.447-.536 0-.296.24-.505.447-.505.297 0 .593.15 3.032.15h.385c2.41 0 2.705-.15 3.004-.15.236 0 .445.21.445.505 0 .327-.21.535-.446.535-.3 0-.595-.03-1.963-.03l5.143 14.8 5.408-14.8h-.177c-1.457 0-1.546.03-1.842.03-.207 0-.445-.208-.445-.535 0-.296.237-.505.446-.505.297 0 .416.15 2.498.15h.147c2.11 0 2.2-.15 2.496-.15.24 0 .446.21.446.505 0 .327-.207.535-.445.535-.295 0-.385-.03-1.722-.03h-.21L61.905 32.12M76.5 23.92c.09-.27.177-.685.177-1.013 0-1.485-1.01-2.197-2.257-2.197-1.426 0-2.734.594-3.18 3.21h5.26zm-5.438 2.14c0 3.563 1.278 5.318 3.418 5.318 1.813 0 3-.892 3.565-2.497.09-.206.207-.474.476-.474.33 0 .478.238.478.445 0 .15-.062.417-.12.564-.982 2.29-3.033 2.974-4.757 2.974-2.583 0-5.436-2.35-5.436-6.33 0-3.774 2.645-6.3 5.47-6.3 3.148 0 5.02 2.348 4.724 5.2H71.09c-.028.328-.028.712-.028 1.1zM88.176 19.76c1.368 0 2.2.77 2.2 1.723 0 .86-.534 1.543-1.337 1.543-.744 0-1.336-.592-1.336-1.336 0-.446.146-.684.356-.89-1.31-.39-3.21 1.098-3.21 5.05v5.11c1.428 0 1.604-.03 1.9-.03.21 0 .448.207.448.536 0 .328-.24.505-.447.505-.296 0-.472-.147-2.91-.147h-.12c-2.438 0-2.584.148-2.882.148-.24 0-.447-.176-.447-.504 0-.33.21-.536.448-.536.298 0 .445.03 1.902.03v-9.805c-1.457 0-1.604.09-1.902.09-.24 0-.447-.21-.447-.536 0-.328.21-.506.448-.506.298 0 .445.03 1.902.03.476 0 1.368-.12 1.663-.12.21 0 .446.21.446.536v1.635c.595-1.606 1.9-2.526 3.326-2.526M105.36 30.93c.236 0 .446.21.446.536 0 .328-.21.505-.446.505-.3 0-.27-.147-2.706-.147h-.117c-2.407 0-2.407.148-2.705.148-.207 0-.447-.176-.447-.504 0-.327.24-.535.447-.535.298 0 .298.03 1.724.03v-7.785c0-1.635-.476-2.26-1.665-2.26-1.84 0-3.77 2.705-3.77 5.707v4.34c1.425 0 1.395-.03 1.69-.03.24 0 .447.207.447.534 0 .328-.207.505-.446.505-.295 0-.265-.147-2.703-.147h-.118c-2.44 0-2.587.148-2.885.148-.236 0-.444-.176-.444-.504 0-.327.21-.535.445-.535.297 0 .446.03 1.902.03v-9.805c-1.456 0-1.605.09-1.902.09-.236 0-.444-.21-.444-.536 0-.328.21-.506.445-.506.297 0 .446.03 1.902.03.475-.002 1.367-.12 1.665-.12.208 0 .447.21.447.535v2.763c.472-1.605 2.225-3.654 4.07-3.654 2.228 0 3.27 1.395 3.416 3.652.535-1.723 2.288-3.653 4.132-3.653 2.525 0 3.476 1.87 3.476 4.396v6.805c1.426 0 1.603-.03 1.902-.03.24 0 .444.21.444.536 0 .328-.205.505-.444.505-.3 0-.476-.147-2.883-.147h-.15c-2.404 0-2.374.148-2.673.148-.236 0-.446-.176-.446-.504 0-.327.21-.535.446-.535.3 0 .27.03 1.695.03v-7.785c0-1.635-.476-2.26-1.665-2.26-1.844 0-3.772 2.705-3.772 5.707v4.34c1.423 0 1.393-.03 1.692-.03M119.81 20.71c-2.26 0-3.27 1.426-3.27 5.348 0 3.952 1.01 5.348 3.27 5.348 2.23 0 3.237-1.396 3.237-5.348 0-3.922-1.008-5.35-3.237-5.35m0 11.68c-3.09 0-5.646-2.557-5.646-6.33s2.556-6.3 5.646-6.3c3.06 0 5.615 2.527 5.615 6.3 0 3.773-2.556 6.33-5.615 6.33M135.374 19.76c2.645 0 3.685 1.87 3.685 4.396v6.805c1.426 0 1.605-.03 1.9-.03.21 0 .446.207.446.536 0 .328-.236.505-.446.505-.295 0-.474-.147-2.912-.147h-.118c-2.407 0-2.585.148-2.882.148-.238 0-.446-.176-.446-.504 0-.33.208-.536.446-.536.297 0 .475.03 1.9.03v-7.814c0-1.606-.476-2.26-1.782-2.26-2.02.002-4.1 2.617-4.1 5.617v4.458c1.425 0 1.603-.03 1.9-.03.21 0 .448.207.448.536 0 .328-.24.505-.446.505-.3 0-.477-.147-2.914-.147h-.117c-2.438 0-2.586.148-2.883.148-.24 0-.447-.176-.447-.504 0-.33.208-.536.447-.536.297 0 .445.03 1.902.03v-9.805c-1.457 0-1.605.09-1.902.09-.24 0-.447-.21-.447-.536 0-.328.208-.506.447-.506.297 0 .445.03 1.902.03.475 0 1.367-.12 1.663-.12.21 0 .445.21.445.536v2.764c.564-1.843 2.317-3.655 4.31-3.655M148.377 20.204c.208 0 .444.178.444.505 0 .326-.235.505-.442.505-.3 0-1.455-.06-2.913-.06V30.1c0 .83.297 1.188.89 1.188.804 0 1.19-.684 1.25-1.278.06-.386.238-.564.506-.564.21 0 .416.178.416.475 0 .95-.832 2.2-2.705 2.2-1.366 0-2.465-.772-2.465-2.525v-8.44c-1.455 0-1.844.06-2.14.06-.21 0-.445-.18-.445-.506 0-.328.236-.506.446-.506 2.08 0 2.703-.328 3.06-2.23.326-1.634.416-1.9.803-1.9.326-.002.385.326.385.86v3.3c1.486-.03 2.675-.03 2.912-.03" fill="#1A1918"/></g></svg>