<?xml version="1.0" encoding="utf-8"?>
<!-- Generator: Adobe Illustrator 21.0.2, SVG Export Plug-In . SVG Version: 6.00 Build 0)  -->
<svg version="1.1" id="Layer_1" xmlns="http://www.w3.org/2000/svg" xmlns:xlink="http://www.w3.org/1999/xlink" x="0px" y="0px"
	 viewBox="0 0 200 123" style="enable-background:new 0 0 200 123;" xml:space="preserve">
<style type="text/css">
	.st0{fill-rule:evenodd;clip-rule:evenodd;fill:#FFFFFF;}
	.st1{fill-rule:evenodd;clip-rule:evenodd;fill:#648C1A;}
	.st2{fill:#4D4129;}
</style>
<path class="st0" d="M16.7,20.8L99.3,8.2l84.1,12.5c4.5,0.9,9,4.3,7.6,8.6l-19.2,47L99.3,96.6L28.5,76.3l-19.3-47
	C7.5,24.6,11.7,21.6,16.7,20.8z"/>
<path class="st1" d="M93.3,30c0,1.2-0.3,1.7-0.3,1.7c0,0,0.4-0.4,1.5-0.8c1.1-0.5,3-1,4-2.7c0.3-0.6,0.6-1.3,0.7-2
	c0.1-0.4,0.1-0.9,0.1-1.2l-2.9,2l1-3.4c-0.3,0.1-0.7,0.2-1.1,0.4c-0.6,0.4-1.2,0.8-1.7,1.3C93.3,26.9,93.5,28.8,93.3,30z M90.7,19.1
	c-1.2,0.4-1.7,0.2-1.7,0.2c0,0,0.5,0.2,1.3,1.2c0.8,0.9,1.8,2.5,3.8,3c0.7,0.1,1.4,0.1,2.1,0c0.5-0.1,0.9-0.2,1.2-0.3l-2.8-2.2
	L98,21c-0.2-0.3-0.4-0.6-0.7-0.9c-0.5-0.5-1.1-0.9-1.7-1.2C93.7,18.1,91.9,18.8,90.7,19.1z M108.8,20.5c0.8-1,1.3-1.2,1.3-1.2
	c0,0-0.5,0.1-1.7-0.2c-1.2-0.2-3-1-4.8-0.2c-0.6,0.3-1.2,0.7-1.7,1.2c-0.3,0.3-0.6,0.6-0.8,0.9l3.6,0.1l-2.8,2.2
	c0.3,0.1,0.7,0.3,1.2,0.3c0.7,0.1,1.4,0.1,2.1,0C107,23,108,21.4,108.8,20.5z M104.5,30.9c1.2,0.4,1.5,0.8,1.5,0.8
	c0,0-0.3-0.5-0.3-1.7c-0.1-1.2,0-3.1-1.3-4.7c-0.5-0.5-1-0.9-1.7-1.3c-0.4-0.2-0.8-0.4-1.1-0.4l1,3.4l-2.9-2c0,0.3,0,0.8,0.1,1.2
	c0.1,0.7,0.4,1.4,0.7,2C101.5,29.9,103.4,30.4,104.5,30.9z M141.9,63.8c0,0.9,0,1.5,0.7,2.4c0.5,0.7,0.9,1,1.7,1.5
	c0.2,0.1,1.2,0.9,1.4,1c1.9,1.3,2.1,1.5,2.1,2c0,0.7-0.9,0.8-1.8,0.8c-0.6,0-1.2-0.1-1.4-0.2c-0.2-0.1-0.4-0.2-0.5-0.3
	c-0.4-0.2-0.7-0.3-1.2-0.3c-1.1,0-1.1,0.7-1.1,1c0,0.2,0.1,0.9,0.1,1c0,0.2-0.1,1.2-0.1,1.4c0,0.2,0,0.4,0.5,0.7
	c0.6,0.3,2.6,0.5,3.9,0.5c0.9,0,2.5-0.1,3.3-0.2c0.7-0.1,2.2-0.6,3.2-1.7c0.8-0.9,0.8-1.9,0.8-3c0-1.4-0.4-2.3-2.4-3.8
	c-0.2-0.1-0.4-0.2-0.6-0.4c-0.3-0.2-0.8-0.6-1.1-0.8c-1.3-0.9-1.8-1.2-1.8-1.8c0-0.8,1-0.8,1.3-0.8c0.2,0,0.6,0,1.1,0.1
	c0.4,0.1,0.8,0.2,1.2,0.2h0.2c1,0,1.1-0.6,1.1-0.9c0-0.1,0-0.7,0-0.8c0-0.2,0.1-1.5,0.1-1.6c0-1-1.7-1-4.2-1c-1.1,0-2.3,0.1-3.7,0.5
	c-1,0.4-1.8,1-2.3,1.8C142.1,61.8,141.9,62.5,141.9,63.8z M126.3,73.7c0.2,0,1.3,0,1.5,0c0.7,0,0.8-0.4,0.9-0.7
	c0.1-0.3,0.9-2.4,1.1-2.8c0.1-0.4,0.4-0.5,0.4-0.5c0.3,0,0.5,0.7,0.6,1.2c0.1,0.5,0.2,0.9,0.4,1.4c0.1,0.2,0.1,0.4,0.2,0.6
	c0.1,0.3,0.1,0.5,0.5,0.7c0.1,0,0.2,0,0.2,0c0.1,0,0.2,0,0.3,0c0.2,0,0.5,0,0.7,0c0.3,0,1.7,0,2,0c0.9,0,1-0.1,1.4-1
	c0.2-0.3,0.7-2,0.8-2.3c0.1-0.1,0.3-0.7,0.3-0.9c0.1-0.2,0.1-0.4,0.2-0.6c0.1-0.5,0.7-2.1,0.8-2.4c0.5-1.2,0.5-1.3,0.7-1.9l0.3-1.3
	l0.2-0.9c0.1-0.4,0.6-2,0.7-2.3c0-0.1,0.1-0.2,0.1-0.3c0-0.6-0.8-0.6-1.4-0.6c-0.1,0-0.4,0-0.6,0c-0.2,0-0.5,0-0.6,0
	c0,0-0.9-0.1-0.9-0.1c-0.3,0-0.6,0-0.9,0c-0.9,0-0.9,0.5-1,1.2c0,0.7-0.1,0.8-0.2,1.3c-0.1,0.3-0.2,0.7-0.2,1
	c-0.1,0.5-0.2,1-0.3,1.5c-0.1,0.6-0.4,1.2-0.5,1.8c-0.1,0.2-0.1,0.5-0.1,0.7c-0.1,0.3-0.2,0.4-0.3,0.4c0,0-0.2,0-0.2-0.3
	c0-0.2-0.1-0.4-0.1-0.6c0-0.2,0-0.4-0.1-0.6c-0.1-0.6-0.3-1.7-0.3-1.8c-0.2-0.7-0.4-1.4-0.5-2.1c-0.1-0.5-0.1-0.9-0.2-1.4
	c0-0.6-0.1-1.1-1.1-1.1c-0.1,0-0.4,0-0.7,0c-0.3,0-0.5,0-0.7,0c-0.3,0-1.5-0.1-1.8-0.1c-0.3,0-1,0-1,0.7c0,0.2,0.1,0.5,0.1,0.6
	c0.1,0.3,0.2,0.7,0.3,1.1c0.1,0.3,0.2,0.7,0.2,1c0.1,0.5,0.3,1,0.5,1.6c-0.2,0.5-0.4,1.1-0.5,1.6c0,0.1-0.3,0.9-0.3,0.9
	c-0.1,0.1-0.1,0.2-0.2,0.2c-0.1,0-0.1,0-0.2-0.4c-0.1-0.5-0.5-1.7-0.6-2.1c-0.2-0.6-0.5-1.2-0.7-1.8c-0.1-0.4-0.4-1.5-0.5-2.1
	c-0.1-0.7-0.2-1-0.6-1.2c-0.2-0.1-0.4-0.1-0.5-0.1c-0.1,0-0.3,0-0.5,0c-0.2,0-0.4,0-0.5,0c-0.3,0-1.5-0.1-1.8-0.1
	c-0.2,0-0.6,0-0.7,0c-0.3,0.1-0.4,0.3-0.4,0.6c0,0.6,1,4.4,1,4.4c0.2,0.5,0.4,0.9,0.5,1.3c0.2,0.5,0.3,1,0.4,1.5
	c0.1,0.5,0.3,1,0.5,1.5c0.3,0.8,0.6,1.5,0.8,2.3c0.1,0.3,0.3,1.4,0.4,1.7c0.3,1,0.4,1.2,1.4,1.2H126.3z M106.5,65.4
	c0,0.2,0.1,1.3,0.1,1.5c0,0.2,0,1.3,0,1.5c0,0.1,0.1,1.4,0.2,1.9c0.1,0.2,0.4,1.2,0.8,1.7c0.8,1.1,2.7,1.9,5.5,1.9
	c1,0,1.6-0.1,2.2-0.2c0.8-0.2,1.5-0.4,2.3-1.2c0.7-0.6,0.9-1.1,1.3-2.6c0.3-1.1,0.3-1.3,0.3-3.3c0-0.5,0-0.9,0-1.4
	c0-2.1-0.4-3.8-1.5-4.7c-0.2-0.2-0.7-0.5-0.9-0.6c-1.2-0.7-1.9-0.9-3.8-0.9c-2.6,0-3.1,0.2-3.8,0.6C107,60.7,106.5,62,106.5,65.4z
	 M95.7,59.2l-2,0c-1.2,0-1.2,0.8-1.2,1.2c0,0.3,0.1,1.5,0.1,1.7c0,0.3-0.1,1.7-0.1,1.9c0,0.3,0.1,1.8,0.1,2.1c0,0.2-0.1,1.2-0.1,1.4
	c0,0.3,0,1.5,0.1,2.1c0,0.4,0.1,0.8,0.1,1.1c0,0.2-0.1,0.9-0.1,1c0,0.2,0,0.3,0,0.5c0,0.1,0,0.3,0,0.4c0,0.9,0.9,0.9,1.7,0.9
	c0.3,0,1.8-0.1,2.1-0.1c0.2,0,1.3,0.1,1.5,0.1c1.7,0,4.1-0.1,6-2.5c0.5-0.7,0.9-1.4,1.2-2.2c0.4-1.1,0.4-1.9,0.4-2.3
	c0-0.8-0.1-2.9-0.9-4.4c-0.9-1.6-2.6-2.4-2.9-2.5c-1-0.5-2.2-0.5-3.4-0.5C97.7,59.2,96,59.2,95.7,59.2z M79,67.6
	c-0.1,0.3-0.3,1.7-0.4,2c-0.1,0.2-0.1,0.5-0.2,0.7c0,0.2-0.6,2.7-0.6,2.8c0,0.1,0.1,0.4,0.5,0.5c0.2,0,0.4,0,0.7,0l1.7,0
	c0.2,0,1.1,0.1,1.3,0.1c0.5,0,0.9-0.1,0.9-0.8c0-0.2,0.1-1.3,0.2-1.5c0.1-0.2,0.4-0.2,0.9-0.2c1.1,0,1.6,0,1.8,0
	c0.3,0.1,0.4,0.3,0.4,0.8c0.1,0.3,0.1,0.6,0.1,0.9c0,0.2,0,0.7,0.9,0.7c0.2,0,1.2-0.1,1.4-0.1c0.3,0,1.6,0.1,1.9,0.1
	c0.5,0,0.9-0.4,0.9-0.9c0-0.2,0-0.4-0.1-0.6c-0.1-0.3-0.2-0.7-0.3-1c-0.2-0.9-0.4-1.7-0.5-2.6c-0.1-1-0.1-1.1-0.3-1.7
	c-0.1-0.6-0.8-2.9-0.9-3.4c-0.1-0.3-0.3-1.6-0.3-1.8c0-0.2-0.3-1.3-0.4-1.6c-0.2-0.8-0.5-0.9-1.5-0.9c-0.7,0-1.4,0-2.1,0
	c-0.5,0-1.1,0-1.6,0c-0.3,0-0.6,0-0.9,0c-1.2,0-1.4,0.1-1.9,1.5c-0.2,0.8-0.3,1.6-0.5,2.4c-0.1,0.5-0.3,1-0.4,1.6
	c-0.1,0.4-0.1,0.7-0.2,1.1C79.3,66.3,79.1,67,79,67.6z M74.6,59.2c-0.2,0-0.9,0-1,0c-0.4,0-2,0-2.3,0h-1.4c-0.1,0-0.5,0-0.8,0
	c-0.4,0-0.7,0-0.8,0c-1.4,0-1.4,0.6-1.4,1.6c0,0.2,0,1.3,0,1.6c0,0.7-0.1,1.5-0.1,2.2c0,0.3,0.1,1.7,0.1,2c0,0.3,0,1.5,0,1.8
	c0,0.1,0,0.8,0,0.9c0,0.1-0.1,0.8-0.1,1c0,0.2,0,1.1,0,1.3c0,0.3,0,0.9-0.1,1.3c0,0.1,0,0.2,0,0.2c0,0.4,0.5,0.8,1.1,0.8l1,0l1.7,0
	l0.9,0l1,0c0.6,0,1.2,0,1.7,0l0.9,0c0.1,0,0.8,0,1,0c0.3,0,1-0.1,1-0.8c0-0.1,0-0.8,0-0.9c0-0.1,0-0.4,0-0.6c0-0.1,0-0.2,0-0.4
	c0-0.6-0.7-0.7-1-0.7c-0.2,0-0.4,0-0.5,0c-0.2,0-0.4,0-0.6,0c-0.2,0-0.4,0-0.6,0c-0.2,0-0.5-0.1-0.8-0.1c-0.4,0-0.8,0-1.1-0.1
	c-0.7-0.1-0.7-0.5-0.7-0.9c0-0.6,0-0.9,0.1-1.1c0.3-0.4,0.9-0.4,1.3-0.4c0.3,0,1.9,0.1,2.2,0.1c0.4,0,0.8,0,1.1-0.5
	c0.1-0.1,0.1-0.2,0.1-0.4c0-0.1-0.1-0.7-0.1-0.9c0-0.1,0.1-0.7,0.1-0.9c0-0.6-0.2-0.8-1.1-0.8l-0.9,0c-0.2,0-1,0-1.1,0
	c-0.1,0-0.7,0-0.8,0c-1,0-1-0.8-1-1c0-0.6,0-0.6,0.1-0.8c0.2-0.2,0.5-0.3,1.5-0.3c0.2,0,1,0.1,1.2,0.1c0.1,0,0.7,0,0.9,0
	c0.1,0,0.4,0,0.5,0c0.9-0.1,1-0.5,1-0.8c0-0.1,0-0.6,0-0.7c0-0.2,0.1-1,0.1-1.1c0-0.4-0.3-0.6-0.8-0.6l-0.9,0H74.6z M52.7,71.7
	c0-0.1,0.1-0.8,0.1-0.8c0-0.3,0-0.6,0-0.9c0-0.3,0.1-1.7,0.1-1.9c0-0.1,0-0.3,0.1-0.3c0.3,0,0.9,1.3,1.1,1.4
	c0.1,0.1,0.2,0.3,0.3,0.4c0.2,0.2,0.9,1.3,1.1,1.5c0.2,0.2,0.4,0.3,0.9,0.3c0.5,0,0.7-0.3,1-0.8c0.2-0.3,0.9-1.5,1-1.8
	c0.2-0.6,0.3-0.6,0.4-0.8c0.1-0.2,0.2-0.2,0.3-0.2c0.1,0,0.1,0.1,0.1,0.2c0,0,0,0.3,0,0.3c0,0.1,0,0.6,0,0.7c0,0.2,0.1,1.2,0.1,1.4
	c0,0.2-0.1,0.8-0.1,0.9c0,0.2,0,0.4,0,0.6V73c0,0.2,0,0.5-0.1,0.7C59,74.1,59,74.2,59,74.3c0,0.3,0.1,0.5,0.4,0.6
	c0.2,0.1,0.4,0.1,0.7,0.1c0.2,0,0.4,0,0.6,0c0.3,0,0.7,0,1,0c0.6,0,1.1,0,1.7,0c0.2,0,0.3,0,0.5,0c0.7,0,0.7-0.4,0.7-1
	c0-0.3-0.1-1.4-0.1-1.6c0-0.4,0.1-2.3,0.1-2.6c0-0.4-0.1-2-0.1-2.4c0-0.6,0.1-3.4,0.1-3.9c0-0.2,0-1.3,0-1.6c0-0.1,0.1-0.8,0.1-1.6
	c0-0.2,0.1-0.7,0.1-0.8c0-0.4-0.4-0.6-0.7-0.6c-0.1,0-0.2,0-0.3,0c-0.1,0-1.4,0-1.5,0c-0.1,0-0.5,0-0.8,0c-0.3,0-0.6,0-0.8,0
	c-0.1,0-0.9,0-1,0.1c-0.4,0.1-0.5,0.4-0.8,0.7l-0.5,0.8c-0.2,0.4-0.4,0.9-0.7,1.3c-0.1,0.2-0.9,1.3-1,1.6c-0.1,0.2-0.4,0.7-0.6,0.7
	c-0.3,0-0.7-0.7-0.9-1.1c-0.1-0.2-0.2-0.4-0.4-0.5c-0.2-0.3-0.5-0.6-0.7-0.9c-0.6-0.8-0.8-1.2-1.1-1.7c-0.3-0.7-0.6-0.9-1.3-0.9
	c-0.2,0-0.9,0-1,0c-0.4,0-2.1,0-2.4,0c-0.4,0-1.1,0-1.1,0.7c0,0.1,0,0.6,0,0.7c0,0.5,0.1,0.9,0.1,1.4c0,0.2-0.1,1.2-0.1,1.4
	c0,0.5,0.1,2.4,0.1,2.7c0,0.5-0.1,2.6-0.1,3c0,0.5,0.1,2.5,0.1,2.9c0,0.4,0,0.9,0,1.2c0,0.2-0.1,1-0.1,1.2c0,0.7,0.6,0.7,1.1,0.7
	c0.1,0,0.2,0,0.7,0c0.2,0,0.4,0,1.3,0l1.4,0c1,0,1-0.4,1-0.8c0-0.2,0-0.4,0-0.5c0-0.4,0-0.7,0-1.2V71.7z M136.5,46.9
	c-0.1,0.5-0.4,2.8-0.5,3.2c-0.1,0.4-0.2,0.8-0.3,1.2c0,0.3-0.9,4.5-0.9,4.7c0,0.2,0.2,0.7,0.6,0.8c0.3,0.1,0.6,0.1,0.9,0.1
	c0.4,0,2,0,2.3,0c0.3,0,1.6,0.1,1.8,0.1c0.6,0,1.3-0.2,1.3-1.3c0-0.4,0.2-2.2,0.3-2.5c0.2-0.3,0.5-0.3,1.3-0.3c1.5,0,2.3,0,2.4,0.1
	c0.4,0.2,0.5,0.5,0.6,1.3c0.1,0.5,0.2,1,0.2,1.5c0,0.4,0,1.2,1.3,1.2c0.3,0,1.7-0.1,2-0.1c0.4,0,2.2,0.1,2.6,0.1
	c0.7,0,1.2-0.7,1.2-1.4c0-0.3,0-0.7-0.1-1c-0.2-0.5-0.3-1.1-0.4-1.7c-0.3-1.4-0.6-2.8-0.8-4.2c-0.2-1.7-0.2-1.9-0.4-2.8
	c-0.2-0.9-1.1-4.8-1.2-5.6c-0.1-0.5-0.4-2.6-0.5-3c0-0.3-0.5-2.2-0.6-2.6c-0.3-1.2-0.6-1.6-2.1-1.6c-0.9,0-1.9,0.1-2.8,0.1
	c-0.8,0-1.5,0-2.3-0.1c-0.4,0-0.8-0.1-1.3-0.1c-1.6,0-2,0.2-2.6,2.5c-0.3,1.3-0.4,2.7-0.7,4c-0.2,0.9-0.5,1.7-0.6,2.6
	c-0.1,0.6-0.2,1.2-0.3,1.8C136.9,44.9,136.6,45.9,136.5,46.9z M119.4,44.5c0,0.4,0,0.7,0,1.1c0,0.5,0.1,1.1,0.2,1.7
	c0.2,2.5,0.2,2.8,1.4,5.2c0.3,0.6,0.4,0.7,1.1,1.5c0.8,0.8,1.4,1.6,2.7,2.2c0.6,0.3,0.7,0.3,1.7,0.6c0.3,0.1,0.7,0.2,1,0.3
	c0.4,0.1,0.6,0.1,2.3,0.1c0.5,0,0.9,0.1,1.3,0.1c0.9,0,1.5-0.5,1.5-1.4c0-0.2,0-0.4,0-0.6c0-0.6,0-1.1,0-1.7c0-0.3,0.1-1.4,0.1-1.7
	c0-0.5,0-0.8-0.5-1.1c-0.2-0.1-0.4-0.1-0.5-0.1c-0.2,0-0.9,0.1-1,0.1c-0.7,0-2.2-0.7-2.9-1.4c-1.2-1.2-1.2-3.4-1.2-4
	c0-0.6,0.1-2,0.3-2.8c0.2-0.8,0.6-1.7,1.3-2.3c0.4-0.3,1.8-0.7,2.1-0.7c0.2,0,0.5,0.1,0.7,0.1c0.2,0,0.3,0.1,0.5,0.1
	c0.6,0,1.3-0.4,1.3-1.1c0-0.4,0-2.3,0-2.7c0-0.4,0-0.9,0-1.3c0-0.2,0-0.4,0-0.5c0-0.2,0-0.8-0.6-1.1c-0.3-0.2-1.4-0.2-1.8-0.2
	c-1.5,0-3.7,0.3-4.8,0.8c-0.2,0.1-2.3,1.3-2.8,1.7c-1.6,1.2-2.4,2.9-2.8,4.8C119.7,41.3,119.4,42.7,119.4,44.5z M117,45.5
	c0-0.3,0.1-1.8,0.1-2.1c0-0.4,0-2.2,0-2.5c0-3.5,0-3.8,0-4.7c0-0.3,0.1-1.6,0.1-1.9c0-0.2,0-1.2-0.9-1.2c-0.1,0-0.6,0-0.6,0
	c-0.5,0-0.9,0-1.4,0c-0.4,0-2,0-2.4,0c-0.7,0-0.9,0-1.1,0.1c-0.2,0.1-0.6,0.4-0.6,1c0,0.2,0.1,1.4,0.1,1.6v2.3
	c0,0.6-0.1,3.1-0.1,3.6V46c0,0.5,0.1,3,0.1,3.5v2.5c0,0.3-0.1,1.8-0.1,2.1c0,0.3,0,2.1,0,2.2c0.2,0.7,1.2,0.7,1.4,0.7h0.2
	c0.4,0,2.2-0.1,2.6-0.1c0.3,0,1.4,0.1,1.6,0.1c0.9,0,1.2-0.5,1.2-0.9c0-0.4-0.2-2.4-0.2-2.8c0-0.4,0.1-2.2,0.1-2.6
	c0-0.6-0.2-3-0.2-3.5V45.5z M94.2,33.1c-0.4,0-2.2,0-2.5,0c-1.2,0-2,0.5-2,1.7c0,0.3,0.1,1.7,0.1,2c0,0.5-0.1,2.8-0.1,3.3
	c0,0.5,0.1,2.6,0.1,3c0,0.7-0.1,4-0.1,4.6c0,0.7,0.2,4,0.2,4.7c0,0.6,0,1.6-0.2,3.3c0,0.1,0,0.2,0,0.3c0,0.6,0.5,1.1,1.2,1.1
	c0.4,0,2.3-0.1,2.7-0.1c0.4,0,1.4,0,1.8,0.1c0.2,0,0.3,0,0.4,0c0.2,0,0.9-0.1,0.9-0.8c0-0.2-0.1-1.2-0.1-1.4c0-0.2,0-1.2,0-1.4
	c0-0.3-0.1-1.6-0.1-1.9c0-0.2,0-0.8,0.5-0.8c0.4,0,0.8,0.8,1.2,1.7l0.3,0.7c0.3,0.6,0.7,1.2,1,1.8c0.1,0.2,0.6,1.3,0.7,1.5
	c0.2,0.3,0.5,0.5,1.2,0.5c0.3,0,0.5,0,0.7,0c0.5,0,1.9-0.1,2.4-0.1c0.3,0,1.7,0.1,2,0.1c0.6,0,0.9-0.3,0.9-0.7
	c0-0.3-0.1-0.5-1.1-2.3l-0.5-0.8c-0.1-0.3-0.2-0.6-0.4-0.9c-0.2-0.5-1.7-2.7-1.7-3.2c0-0.3,0.2-0.4,0.6-0.7c1-0.7,1.6-1.8,1.7-2
	c0.9-1.6,1.1-3,1.1-4.5c0-0.4,0-3.2-0.6-4.4c-0.9-2.1-2.4-4.4-7.6-4.4C98.3,33,94.9,33.1,94.2,33.1z M83.1,33.2
	c-0.2,0-1.3,0.1-1.4,0.1c-0.5,0-2.7-0.1-3.2-0.1h-2c-0.2,0-0.6,0-1.1-0.1c-0.5,0-0.9,0-1.1,0c-1.9,0-1.9,0.9-1.9,2.6
	c0,0.4,0,2.2,0,2.6c0,1.2-0.1,2.4-0.1,3.6c0,0.5,0.1,2.8,0.1,3.2c0,0.5,0,2.5,0,2.9c0,0.2,0,1.3,0,1.5c0,0.2-0.1,1.3-0.1,1.6
	c0,0.3,0,1.8,0,2.1c0,0.6,0,1.4-0.1,2.1c0,0.1,0,0.3,0,0.4c0,0.7,0.6,1.3,1.6,1.3c0.2,0,1.2,0,1.4,0c0.3,0,2,0,2.4,0
	c0.2,0,1.1,0,1.3,0c0.2,0,1.2,0,1.4,0c0.8,0,1.6,0.1,2.4,0.1c0.2,0,1.1,0,1.3,0c0.2,0,1.1,0.1,1.3,0.1c0.5,0,1.4-0.2,1.4-1.3
	c0-0.2,0-1.2,0-1.4c0-0.2,0-0.6,0-1c0-0.2,0-0.4,0-0.6c0-0.9-0.9-1.2-1.4-1.2c-0.3,0-0.5,0-0.8,0.1c-0.3,0-0.6,0-0.9,0
	c-0.3,0-0.5,0-0.8,0c-0.3,0-0.7-0.1-1.1-0.1c-0.5,0-1.1,0-1.5-0.1c-0.9-0.2-0.9-0.8-0.9-1.5c0-0.9,0-1.4,0.2-1.7
	c0.4-0.6,1.2-0.6,1.8-0.6c0.5,0,2.7,0.1,3.1,0.1c0.6,0,1.1,0,1.5-0.8c0.1-0.1,0.1-0.3,0.1-0.6c0-0.2-0.1-1.2-0.1-1.4
	c0-0.2,0.1-1.2,0.1-1.4c0-0.9-0.3-1.3-1.5-1.3c-0.2,0-1.1,0-1.2,0c-0.3,0-1.3-0.1-1.6-0.1c-0.2,0-1,0.1-1.1,0.1
	c-1.3,0-1.3-1.3-1.3-1.7c0-0.9,0-1,0.2-1.2c0.2-0.3,0.6-0.6,2.1-0.6c0.3,0,1.4,0.1,1.6,0.1c0.2,0,1-0.1,1.2-0.1c0.1,0,0.5,0,0.6,0
	c1.3-0.1,1.4-0.9,1.4-1.3c0-0.2,0-1,0-1.1c0-0.3,0.1-1.6,0.1-1.9c0-0.6-0.5-1-1.1-1c-0.2,0-1,0-1.2,0H83.1z M54,51.9
	c0-0.1,0.1-1.2,0.1-1.2c0-0.5,0-0.9,0-1.3c0-0.5,0.1-2.5,0.1-2.9c0-0.2,0-0.5,0.2-0.5c0.3,0,1.2,1.9,1.4,2.2
	c0.1,0.2,0.3,0.4,0.4,0.6c0.3,0.3,1.2,1.9,1.4,2.2c0.3,0.4,0.5,0.4,1.1,0.4c0.6,0,0.9-0.5,1.2-1.2c0.2-0.4,1.1-2.3,1.3-2.7
	c0.3-0.8,0.3-0.9,0.5-1.1C61.8,46,61.9,46,62,46c0.2,0,0.2,0.1,0.2,0.3c0,0.1,0,0.4,0,0.5c0,0.2,0,0.9,0,1c0,0.3,0.1,1.8,0.1,2.1
	c0,0.2-0.2,1.2-0.2,1.3c0,0.3,0,0.6,0,0.8v1.7c0,0.4,0,0.7-0.1,1.1C62,55.5,62,55.6,62,55.8c0,0.4,0.1,0.7,0.5,0.9
	c0.2,0.1,0.5,0.2,0.9,0.2c0.2,0,0.5,0,0.7,0c0.4,0,0.8,0,1.3,0c0.7,0,1.4,0,2.1,0.1c0.2,0,0.4,0,0.6,0c0.9,0,0.9-0.6,0.9-1.5
	c0-0.4-0.2-2.1-0.2-2.4c0-0.6,0.1-3.4,0.1-3.9c0-0.6-0.1-3.1-0.1-3.6c0-0.9,0.1-5,0.1-5.8c0-0.4,0-2,0-2.3c0-0.1,0.1-1.2,0.2-2.3
	c0-0.2,0.1-1,0.1-1.2c0-0.6-0.5-0.9-0.9-0.9c-0.2,0-0.3,0-0.4,0c-0.1,0-1.7,0.1-1.9,0.1c-0.2,0-0.6,0-0.9,0c-0.4,0-0.8,0-0.9,0
	c-0.1,0-1.2,0.1-1.3,0.1c-0.5,0.1-0.7,0.6-0.9,1.1l-0.7,1.2c-0.3,0.6-0.5,1.3-0.9,1.9c-0.2,0.4-1.1,2-1.3,2.3c-0.1,0.2-0.5,1-0.8,1
	c-0.3,0-0.8-1-1.1-1.6c-0.1-0.3-0.3-0.5-0.5-0.8c-0.3-0.5-0.6-0.9-0.9-1.3c-0.7-1.1-1.1-1.9-1.4-2.6c-0.4-1-0.7-1.3-1.6-1.3
	c-0.2,0-1.1,0.1-1.3,0.1c-0.5,0-2.6-0.1-3-0.1c-0.5,0-1.4,0-1.4,1c0,0.1,0,0.9,0,1.1c0,0.7,0.2,1.3,0.2,2c0,0.3-0.1,1.8-0.1,2.1
	c0,0.7,0.1,3.5,0.1,4.1c0,0.7-0.1,3.9-0.1,4.6c0,0.7,0.1,3.8,0.1,4.4c0,0.5,0,1.3,0,1.8c0,0.3-0.1,1.6-0.1,1.8c0,1,0.8,1.1,1.4,1.1
	c0.2,0,0.2,0,0.8,0c0.3,0,0.5,0,1.6,0c0.3,0,1.5,0,1.7,0c1.2,0,1.3-0.6,1.3-1.2c0-0.3,0-0.5,0-0.8c0-0.5,0-1,0-1.9V51.9z M99.5,11.7
	c0,0.2-0.1,0.7-0.7,1.5c-0.6,1-1.8,2.5-1.7,4.5c0.1,0.7,0.3,1.3,0.6,2c0.2,0.4,0.4,0.7,0.6,1l1.2-3.4l1.2,3.4c0.2-0.3,0.4-0.6,0.6-1
	c0.3-0.7,0.5-1.3,0.6-2c0.1-2-1.1-3.5-1.7-4.5C99.7,12.4,99.6,11.9,99.5,11.7l79.2,11.8c4.3,0.8,9,3.6,7.1,8.1l-9.5,23
	c0.1-1.2,0.2-2.6,0.2-3c0-0.7-0.2-4-0.2-4.6c0-0.6,0-1.1,0-1.7c0-1.3,0.1-2.5,0.1-3.3c0-0.7-0.1-3.9-0.1-4.5c0-0.3,0.1-2.3,0.2-2.7
	c0-0.2,0-0.3,0-0.5c0-0.6-0.4-0.9-0.6-1c-0.1-0.1-0.3-0.1-0.6-0.1c-0.2,0-1.2,0-1.4,0c-0.5,0-2.2,0-2.5,0c-0.3,0-0.5,0-0.7,0
	c-1,0-1.5,0.6-1.6,0.8c-0.2,0.3-0.2,1.4-0.2,1.8c0,0.7,0.2,3.8,0.2,4.5c0,0.3-0.1,1.4-0.1,1.6c0,0.1,0,0.5,0.1,0.7
	c0,0.3,0,0.5,0,0.8c0,0.3,0,1.5-0.2,1.5c-0.1,0-0.3-0.2-0.4-0.6c-0.3-0.7-0.8-2.1-1.2-2.9c-0.1-0.2-0.3-0.5-0.4-0.7
	c-0.2-0.4-0.3-0.7-0.5-1.1c-0.1-0.3-0.3-0.5-0.5-0.8c0-0.1-0.8-1.6-0.8-1.7c-0.1-0.2-0.1-0.3-0.2-0.5c-0.4-1-1.3-2.6-1.5-2.8
	c-0.1-0.2-0.4-0.5-1.1-0.5c-0.2,0-2.1,0.1-2.5,0.1c-0.2,0-1.5,0-1.7,0c-0.3,0-0.6-0.1-0.9-0.1c-1,0-1.2,0.7-1.2,1.1
	c0,0.6,0.1,3.3,0.1,3.8c0,0.3,0,0.9,0,1.7c0,0.8,0,1.5,0,2.3c0,0.3,0,1.7,0,2.4c0,0.2,0.1,1.4,0.1,1.5c0,0.5,0,1.1-0.1,1.6
	c0,0.9-0.1,1.9-0.1,2.8c0,0.3,0,1.7,0,2v1.2c0,0.2,0.1,0.9,0.1,1c0,0.2-0.3,3.6-0.3,4.3c0,0.3,0,1.2,1.2,1.2c0.2,0,0.4,0,0.6,0
	c0.5,0,1-0.1,1.6-0.1c0.5,0,2.8,0.1,3.2,0.1c0.7,0,1.3-0.3,1.3-1.1c0-0.5-0.2-2.8-0.2-3.3c0-1.1,0.1-2.2,0.1-3.3
	c0-0.9-0.2-2.7-0.2-2.9c0-0.3-0.1-0.8-0.1-1c0-0.2,0.1-0.3,0.2-0.3c0.2,0,0.3,0.5,0.9,1.8c0.2,0.5,0.4,1.1,0.6,1.6
	c0.2,0.4,0.4,0.8,0.6,1.2c0.3,0.5,0.6,1.1,0.8,1.6c0.1,0.4,0.3,0.8,0.4,1.2c0.3,0.6,0.6,1.2,1,1.8c0.2,0.5,0.5,0.9,0.6,1.4
	c0.2,0.5,0.5,1.3,1.2,1.3c0.4,0,2.5-0.1,3-0.1c0.2,0,0.8,0,1.3,0l-5.4,13.1L99.5,92.3L32.4,73.2l-5.7-13l1.8,0
	c0.3,0,1.8,0.1,2.1,0.1c0.7,0,1.4-0.3,1.5-1.4c0-0.5,0.2-2.5,0.4-2.8c0.2-0.3,0.6-0.4,1.5-0.4c1.7,0,2.6,0,2.8,0.1
	c0.5,0.2,0.6,0.6,0.7,1.5c0.1,0.6,0.2,1.2,0.2,1.7c0,0.4,0,1.4,1.4,1.4c0.3,0,2-0.1,2.3-0.1c0.5,0,2.5,0.1,3,0.1
	c0.8,0,1.3-0.8,1.3-1.6c0-0.4,0-0.8-0.1-1.2c-0.2-0.6-0.3-1.3-0.5-1.9c-0.3-1.6-0.7-3.2-0.9-4.9c-0.2-1.9-0.2-2.1-0.4-3.2
	c-0.2-1-1.2-5.4-1.4-6.4c-0.1-0.5-0.4-3-0.5-3.5c0-0.4-0.5-2.5-0.7-3c-0.3-1.4-0.7-1.8-2.4-1.8c-1.1,0-2.2,0.1-3.3,0.1
	c-0.9,0-1.7,0-2.6-0.1c-0.5,0-1-0.1-1.4-0.1c-1.8,0-2.3,0.2-3,2.9c-0.3,1.5-0.4,3.1-0.8,4.6c-0.2,1-0.5,2-0.7,2.9
	c-0.1,0.7-0.2,1.4-0.3,2c-0.2,1.1-0.5,2.3-0.7,3.4c-0.1,0.6-0.5,3.2-0.6,3.7c-0.1,0.5-0.2,0.9-0.3,1.4c0,0.1-0.2,0.9-0.4,1.9
	L14.1,31.6c-1.6-4.5,2.4-7.3,7.1-8.1L99.5,11.7z M112.8,62.5c0.5,0,1.1,0.2,1.2,1c0.1,0.4,0.1,1,0.1,1.3c0,0.1,0,0.7,0,0.8
	c0,0.4,0,0.7,0,1.1c0,0.3-0.1,1.4-0.1,1.7c0,0.1,0,0.8,0,0.9c0,0.4-0.1,1.2-1.3,1.2c-1.3,0-1.3-1.2-1.3-1.9c0-0.5,0.1-2.5,0.1-2.9
	c0-0.2-0.1-1.3-0.1-1.5C111.5,63.7,111.5,62.5,112.8,62.5z M98.2,62.7c1.5,0,1.7,1.8,1.8,2.5c0.1,0.5,0.1,0.9,0.1,1.4
	c0,0.4,0,0.5-0.4,2.5c-0.2,1.2-1.3,1.2-1.3,1.2c-0.1,0-0.7,0-0.9-0.5c-0.1-0.2-0.1-0.3-0.1-0.7c0-0.1,0-0.8,0-0.9
	c0-0.2-0.1-0.9-0.1-1c0-0.2,0-1.2,0-1.4c0-0.6,0-1.1-0.1-1.5c0-0.2,0-0.4,0-0.6C97.3,63.4,97.3,62.7,98.2,62.7z M83.8,66.1
	c0.1-0.5,0.1-0.9,0.3-1.4c0.1-0.2,0.2-0.6,0.2-0.8c0-0.2,0.1-0.5,0.3-0.5c0.1,0,0.3,0.1,0.3,0.4c0.1,0.2,0.1,0.5,0.1,0.8
	c0.1,0.3,0.2,0.7,0.2,1c0.2,0.8,0.2,1.6,0.2,1.6c0,0.7-0.7,0.7-1.1,0.7c-0.6,0-0.8-0.2-0.8-0.8C83.6,66.7,83.7,66.4,83.8,66.1z
	 M143,44.5c0.2-0.7,0.2-1.5,0.4-2.3c0.1-0.4,0.3-1,0.3-1.4c0-0.3,0.2-0.8,0.5-0.8c0.1,0,0.4,0.1,0.5,0.6c0.1,0.4,0.1,0.8,0.2,1.2
	c0.1,0.5,0.2,1.1,0.3,1.6c0.2,1.2,0.2,2.6,0.2,2.6c0,1.1-1,1.1-1.5,1.1c-0.8,0-1.1-0.3-1.1-1.2C142.8,45.5,142.9,45,143,44.5z
	 M98,38.6c1.3,0,2,1.2,2,2.4c0,0.3-0.1,1.7-0.2,2c-0.2,0.7-0.7,1.2-1.8,1.2c-1.1,0-1.6-0.9-1.6-1.6c0-0.4,0.1-2,0.1-2.3
	C96.4,39.8,96.5,38.6,98,38.6z M33.5,45.9c0.2-0.9,0.2-1.7,0.5-2.6c0.1-0.4,0.3-1.1,0.4-1.6c0-0.3,0.2-1,0.5-1
	c0.1,0,0.4,0.1,0.5,0.7c0.1,0.5,0.1,0.9,0.2,1.4c0.1,0.6,0.3,1.2,0.3,1.9c0.3,1.4,0.3,2.9,0.3,2.9c0,1.3-1.2,1.3-1.7,1.3
	c-1,0-1.3-0.4-1.3-1.4C33.2,47.1,33.4,46.5,33.5,45.9z"/>
<g>
	<path class="st2" d="M34.1,112.9c-0.5,0-0.5-0.1-0.7-0.7c0-0.1-0.1-0.9-0.2-1c-0.1-0.5-0.2-0.9-0.4-1.4c-0.1-0.3-0.2-0.6-0.2-1
		c-0.1-0.3-0.1-0.6-0.2-1c-0.1-0.3-0.2-0.6-0.3-0.8c0,0-0.5-2.4-0.5-2.8c0-0.2,0.1-0.3,0.2-0.4c0.1,0,0.3,0,0.3,0c0.1,0,0.7,0,0.8,0
		c0,0,0.1,0,0.2,0c0.1,0,0.2,0,0.2,0c0.1,0,0.2,0,0.3,0.1c0.2,0.1,0.2,0.3,0.3,0.8c0.1,0.4,0.2,1,0.2,1.3c0.1,0.4,0.2,0.8,0.3,1.1
		c0.1,0.3,0.2,1,0.3,1.3c0.1,0.2,0.1,0.2,0.1,0.2c0.1,0,0.1-0.1,0.1-0.1c0,0,0.1-0.6,0.1-0.6c0.1-0.3,0.2-0.7,0.3-1
		c-0.1-0.3-0.2-0.6-0.2-1c0-0.2-0.1-0.4-0.1-0.6c0-0.2-0.1-0.5-0.2-0.7c0-0.1-0.1-0.3-0.1-0.4c0-0.4,0.3-0.4,0.5-0.4
		c0.1,0,0.7,0,0.8,0c0.1,0,0.2,0,0.3,0c0.1,0,0.3,0,0.3,0c0.5,0,0.5,0.3,0.5,0.7c0,0.3,0,0.6,0.1,0.9c0.1,0.4,0.2,0.9,0.2,1.3
		c0,0.1,0.1,0.8,0.2,1.2c0,0.1,0,0.2,0,0.3c0,0.1,0,0.2,0.1,0.3c0,0.2,0.1,0.2,0.1,0.2c0.1,0,0.1-0.1,0.1-0.3c0-0.1,0-0.3,0.1-0.4
		c0.1-0.4,0.2-0.8,0.2-1.2c0.1-0.3,0.1-0.6,0.1-1c0-0.2,0.1-0.4,0.1-0.6c0.1-0.3,0.1-0.3,0.1-0.8c0-0.4,0-0.7,0.5-0.7
		c0.1,0,0.3,0,0.4,0c0,0,0.4,0,0.4,0c0,0,0.2,0,0.3,0c0.1,0,0.2,0,0.3,0c0.3,0,0.7,0,0.7,0.4c0,0.1,0,0.1,0,0.2
		c-0.1,0.2-0.3,1.2-0.3,1.5c0,0.2-0.1,0.4-0.1,0.5c-0.1,0.3-0.1,0.5-0.2,0.8c-0.1,0.3-0.1,0.4-0.3,1.2c-0.1,0.2-0.3,1.2-0.4,1.5
		c0,0.1,0,0.3-0.1,0.4c0,0.1-0.1,0.5-0.2,0.5c-0.1,0.2-0.3,1.2-0.4,1.5c-0.2,0.6-0.3,0.7-0.7,0.7c-0.1,0-0.8,0-0.9,0
		c-0.1,0-0.2,0-0.3,0c-0.1,0-0.1,0-0.1,0c0,0-0.1,0-0.1,0c-0.2-0.1-0.2-0.2-0.3-0.4c0-0.1-0.1-0.3-0.1-0.4c-0.1-0.3-0.1-0.6-0.2-0.9
		c-0.1-0.3-0.1-0.8-0.3-0.8c0,0-0.1,0-0.2,0.3c-0.1,0.3-0.5,1.6-0.5,1.8c0,0.2-0.1,0.4-0.4,0.4c-0.1,0-0.6,0-0.7,0H34.1z"/>
	<path class="st2" d="M41.9,111.1c0-0.1,0-0.6,0-0.7c0-0.2-0.1-1.3-0.1-1.5c0-0.2,0.1-1,0.1-1.2c0-0.1,0-0.4,0-0.5c0-0.5,0-1,0-1.1
		c0-0.1,0-0.7,0-0.9c0-0.1,0-0.7,0-0.8c0-0.1,0-0.4,0.4-0.4c0.1,0,0.2,0,0.4,0c0.2,0,0.3,0,0.4,0c0.1,0,0.3,0,0.4,0
		c0.3,0,0.3,0,0.3,0c0.4,0,0.5,0.3,0.5,0.5c0,0.1-0.1,0.6-0.1,0.7c0,0.1,0,0.7,0,0.8c0,0.1,0,0.8,0,0.9c0,0.5,0.3,0.5,0.6,0.5
		c0.2,0,0.5,0,0.5-0.4c0-0.1,0.1-0.5,0.1-0.7c0-0.1,0-0.7,0-0.8c0-0.2,0-0.3,0-0.5v-0.1c0-0.1,0-0.5,0-0.6c0-0.2,0.1-0.4,0.5-0.4
		c0.1,0,0.1,0,0.2,0c0.2,0,0.4,0,0.6,0c0.1,0,0.2,0,0.3,0c0.1,0,0.3,0,0.3,0c0.4,0,0.5,0.3,0.5,0.3c0,0.1,0,0.1,0,0.3
		c0,0.1,0,0.3,0,0.4c0,0.2,0,0.8,0,0.9c0,0.1,0,0.3,0,0.3c0,0.1,0,0.6,0,0.7c0,0.2,0,0.9,0,1.1c0,0.2,0,1.1,0,1.4c0,0.2,0,0.4,0,0.6
		c0,0.3,0,0.5,0.1,0.8v0.2c0,0.1,0,0.7,0,0.8v0.2c0,0.1,0.1,0.5,0.1,0.6c0,0.2-0.1,0.5-0.4,0.5c-0.1,0-0.1,0-0.2,0
		c-0.1,0-0.3,0-0.4,0c-0.1,0-0.8,0.1-0.9,0.1c-0.2,0-0.4-0.1-0.4-0.5c0-0.1,0-0.4,0.1-0.5c0-0.1,0-0.3,0-0.4c0-0.2,0-0.6,0-0.8
		c0-0.1,0-0.4,0-0.5c0-0.3,0-0.6-0.3-0.7c-0.1,0-0.3,0-0.4,0c-0.2,0-0.4,0.1-0.5,0.4c0,0.3-0.1,0.5-0.1,0.7c0,0.1,0,0.7,0,0.8
		c0,0.1,0,0.7,0,0.8c0,0.1,0,0.3,0,0.4c0,0.2-0.2,0.4-0.4,0.4c0,0-0.1,0-0.1,0c-0.2,0-0.3,0-0.5,0H43c0,0-0.2,0-0.3,0
		c-0.1,0-0.3,0-0.3,0c-0.5,0-0.5-0.4-0.5-0.5c0-0.1,0.1-0.8,0.1-0.9V111.1z"/>
	<path class="st2" d="M52.8,103.8c0.1,0,0.3,0,0.4,0c0.2,0,0.4,0.2,0.4,0.4c0,0.1,0,0.6,0,0.7c0,0.1,0,0.4,0,0.4
		c0,0.2,0,0.5-0.5,0.5c0,0-0.2,0-0.2,0c-0.1,0-0.3,0-0.4,0c-0.1,0-0.5,0-0.5,0c-0.5,0-0.6,0.1-0.7,0.2c-0.1,0.1-0.1,0.1-0.1,0.5
		c0,0.1,0,0.6,0.5,0.6c0.1,0,0.3,0,0.4,0c0.1,0,0.4,0,0.5,0c0.1,0,0.3,0,0.4,0c0.4,0,0.5,0.2,0.5,0.5c0,0.1,0,0.5,0,0.5
		c0,0.1,0,0.5,0,0.5c0,0.1,0,0.2,0,0.2c-0.1,0.3-0.3,0.3-0.5,0.3c-0.1,0-0.9-0.1-1-0.1c-0.2,0-0.5,0-0.6,0.2
		c-0.1,0.1-0.1,0.3-0.1,0.7c0,0.3,0,0.5,0.3,0.6c0.1,0,0.3,0,0.5,0c0.1,0,0.3,0,0.4,0.1c0.1,0,0.2,0,0.3,0c0.1,0,0.2,0,0.3,0
		c0.1,0,0.2,0,0.3,0c0.2,0,0.5,0.1,0.5,0.5c0,0.1,0,0.2,0,0.2c0,0.1,0,0.3,0,0.4c0,0.1,0,0.5,0,0.6c0,0.4-0.3,0.5-0.5,0.5
		c-0.1,0-0.4,0-0.5,0c-0.1,0-0.4,0-0.4,0c-0.3,0-0.5,0-0.8,0c-0.1,0-0.4,0-0.5,0c-0.1,0-0.4,0-0.4,0c-0.1,0-0.7,0-0.8,0
		c-0.1,0-0.4,0-0.5,0c-0.3,0-0.5-0.2-0.5-0.5c0-0.1,0-0.1,0-0.2c0-0.3,0-0.6,0-0.8c0-0.1,0-0.7,0-0.8c0-0.1,0-0.5,0-0.6
		c0-0.1,0-0.5,0-0.6c0-0.2,0-0.9,0-1.1c0-0.2,0-1,0-1.2c0-0.5,0-0.9,0-1.4c0-0.1,0-0.8,0-1c0-0.6,0-1,0.7-1c0.1,0,0.2,0,0.4,0
		c0.2,0,0.3,0,0.4,0H51c0.2,0,0.9,0,1.1,0c0.1,0,0.4,0,0.5,0H52.8z"/>
	<path class="st2" d="M58,103.7c1.8,0,2.3,0.9,2.6,1.7c0.2,0.5,0.2,1.5,0.2,1.7c0,0.6-0.1,1.1-0.4,1.7c-0.1,0.1-0.2,0.5-0.6,0.8
		c-0.1,0.1-0.2,0.2-0.2,0.3c0,0.2,0.5,1,0.6,1.2c0.1,0.1,0.1,0.2,0.1,0.3c0.1,0.1,0.1,0.2,0.2,0.3c0.4,0.7,0.4,0.8,0.4,0.9
		c0,0.2-0.1,0.3-0.3,0.3c-0.1,0-0.6,0-0.7,0c-0.2,0-0.7,0-0.8,0c-0.1,0-0.2,0-0.2,0c-0.2,0-0.3-0.1-0.4-0.2c0-0.1-0.2-0.5-0.2-0.6
		c-0.1-0.2-0.2-0.4-0.3-0.7c0-0.1-0.1-0.2-0.1-0.3c-0.1-0.3-0.3-0.6-0.4-0.6c-0.2,0-0.2,0.2-0.2,0.3c0,0.1,0,0.6,0,0.7
		c0,0.1,0,0.4,0,0.5c0,0.1,0,0.4,0,0.5c0,0.3-0.2,0.3-0.3,0.3c-0.1,0-0.1,0-0.1,0c-0.1,0-0.5,0-0.6,0c-0.1,0-0.8,0.1-0.9,0.1
		c-0.3,0-0.4-0.2-0.4-0.4c0,0,0-0.1,0-0.1c0-0.6,0.1-1,0.1-1.2c0-0.3-0.1-1.5-0.1-1.8c0-0.2,0-1.5,0-1.8c0-0.2,0-1,0-1.1
		s0-1.1,0-1.2c0-0.1,0-0.6,0-0.7c0-0.5,0.3-0.6,0.7-0.6c0.1,0,0.7,0,0.8,0C56.6,103.7,57.7,103.7,58,103.7z M57.1,106.5
		c0,0.1,0,0.7,0,0.9c0,0.3,0.2,0.6,0.5,0.6c0.4,0,0.6-0.2,0.6-0.5c0-0.1,0.1-0.6,0.1-0.7c0-0.5-0.2-0.9-0.7-0.9
		C57.1,105.9,57.1,106.3,57.1,106.5z"/>
	<path class="st2" d="M65.7,103.8c0.1,0,0.3,0,0.4,0c0.2,0,0.4,0.2,0.4,0.4c0,0.1,0,0.6,0,0.7c0,0.1,0,0.4,0,0.4
		c0,0.2,0,0.5-0.5,0.5c0,0-0.2,0-0.2,0c-0.1,0-0.3,0-0.4,0c-0.1,0-0.5,0-0.5,0c-0.5,0-0.6,0.1-0.7,0.2c-0.1,0.1-0.1,0.1-0.1,0.5
		c0,0.1,0,0.6,0.5,0.6c0.1,0,0.3,0,0.4,0c0.1,0,0.4,0,0.5,0c0.1,0,0.3,0,0.4,0c0.4,0,0.5,0.2,0.5,0.5c0,0.1,0,0.5,0,0.5
		c0,0.1,0,0.5,0,0.5c0,0.1,0,0.2,0,0.2c-0.1,0.3-0.3,0.3-0.5,0.3c-0.1,0-0.9-0.1-1-0.1c-0.2,0-0.5,0-0.6,0.2
		c-0.1,0.1-0.1,0.3-0.1,0.7c0,0.3,0,0.5,0.3,0.6c0.1,0,0.3,0,0.5,0c0.1,0,0.3,0,0.4,0.1c0.1,0,0.2,0,0.3,0c0.1,0,0.2,0,0.3,0
		c0.1,0,0.2,0,0.3,0c0.2,0,0.5,0.1,0.5,0.5c0,0.1,0,0.2,0,0.2c0,0.1,0,0.3,0,0.4c0,0.1,0,0.5,0,0.6c0,0.4-0.3,0.5-0.5,0.5
		c-0.1,0-0.4,0-0.5,0c-0.1,0-0.4,0-0.4,0c-0.3,0-0.5,0-0.8,0c-0.1,0-0.4,0-0.5,0c-0.1,0-0.4,0-0.4,0c-0.1,0-0.7,0-0.8,0
		c-0.1,0-0.4,0-0.5,0c-0.3,0-0.5-0.2-0.5-0.5c0-0.1,0-0.1,0-0.2c0-0.3,0-0.6,0-0.8c0-0.1,0-0.7,0-0.8c0-0.1,0-0.5,0-0.6
		c0-0.1,0-0.5,0-0.6c0-0.2,0-0.9,0-1.1c0-0.2,0-1,0-1.2c0-0.5,0-0.9,0-1.4c0-0.1,0-0.8,0-1c0-0.6,0-1,0.7-1c0.1,0,0.2,0,0.4,0
		c0.2,0,0.3,0,0.4,0h0.7c0.2,0,0.9,0,1.1,0c0.1,0,0.4,0,0.5,0H65.7z"/>
	<path class="st2" d="M70.7,106.5c0.2-0.7,0.4-1.4,1-1.8c0.2-0.1,0.9-0.6,0.9-0.6c0.4-0.2,1.1-0.3,1.6-0.3c0.1,0,0.5,0,0.6,0.1
		c0.2,0.1,0.2,0.3,0.2,0.4c0,0.1,0,0.1,0,0.2c0,0.2,0,0.3,0,0.5c0,0.1,0,0.8,0,1c0,0.3-0.2,0.4-0.4,0.4c-0.1,0-0.1,0-0.2,0
		c-0.1,0-0.2,0-0.2,0c-0.1,0-0.6,0.2-0.7,0.3c-0.2,0.2-0.4,0.6-0.4,0.9c-0.1,0.3-0.1,0.8-0.1,1.1c0,0.2,0,1,0.4,1.5
		c0.2,0.3,0.7,0.5,1,0.5c0.1,0,0.3-0.1,0.3-0.1c0,0,0.1,0,0.2,0.1c0.2,0.1,0.2,0.2,0.2,0.4c0,0.1,0,0.5,0,0.6c0,0.2,0,0.4,0,0.6
		c0,0.1,0,0.2,0,0.2c0,0.4-0.2,0.5-0.5,0.5c-0.2,0-0.3,0-0.5,0c-0.6,0-0.6,0-0.8,0c-0.1,0-0.2-0.1-0.3-0.1c-0.3-0.1-0.4-0.1-0.6-0.2
		c-0.4-0.3-0.6-0.5-0.9-0.8c-0.2-0.3-0.3-0.3-0.4-0.6c-0.4-0.9-0.4-1.1-0.5-2c0-0.2,0-0.4-0.1-0.6c0-0.1,0-0.3,0-0.4
		C70.5,107.4,70.6,106.9,70.7,106.5z"/>
	<path class="st2" d="M77.1,104.1c0.4-0.2,0.6-0.4,1.8-0.4c0.9,0,1.2,0.2,1.8,0.6c0.1,0.1,0.3,0.3,0.4,0.4c0.5,0.6,0.7,1.6,0.7,2.9
		c0,0.3,0,0.6,0,0.9c0,1.2,0,1.3-0.1,2.1c-0.2,0.9-0.3,1.2-0.6,1.6c-0.4,0.5-0.7,0.6-1.1,0.7c-0.3,0.1-0.5,0.2-1,0.2
		c-1.3,0-2.2-0.5-2.6-1.2c-0.2-0.3-0.4-1-0.4-1.1c-0.1-0.3-0.1-1.1-0.1-1.2c0-0.1,0-0.8,0-0.9c0-0.1,0-0.8,0-1
		C75.8,105.5,76.1,104.7,77.1,104.1z M78.2,106.9c0,0.1,0,0.8,0,0.9c0,0.3,0,1.5,0,1.8c0,0.5,0,1.2,0.6,1.2c0.5,0,0.6-0.5,0.6-0.7
		c0-0.1,0-0.5,0-0.6c0-0.1,0.1-0.9,0.1-1c0-0.2,0-0.5,0-0.7c0-0.1,0-0.4,0-0.5c0-0.2,0-0.6-0.1-0.8c-0.1-0.5-0.3-0.6-0.6-0.6
		C78.2,105.8,78.2,106.6,78.2,106.9z"/>
	<path class="st2" d="M83,110.2c0-0.1,0-0.6,0-0.7c0-0.3,0-0.7,0-1c0-0.2,0-0.4,0-0.5c0,0,0-0.4,0-0.5c0-0.2,0-0.7,0-0.8
		c0-0.3,0-0.5,0-0.8c0-0.3,0-0.5,0-0.6c0-0.2,0-1.1,0-1.3c0-0.1,0.1-0.4,0.4-0.4c0.1,0,0.2,0,0.3,0c0.1,0,0.5,0,0.5,0
		c0.1,0,0.7,0,0.7,0c0.2,0,0.3,0.1,0.3,0.2c0.1,0.1,0.3,0.6,0.4,0.9c0,0.1,0,0.1,0.1,0.2c0,0,0.2,0.5,0.2,0.6
		c0.1,0.1,0.1,0.2,0.1,0.3c0.1,0.1,0.1,0.2,0.1,0.4c0,0.1,0.1,0.2,0.1,0.2c0.1,0.3,0.3,0.8,0.3,1c0,0.1,0.1,0.2,0.1,0.2
		c0.1,0,0.1-0.4,0.1-0.5c0-0.1,0-0.2,0-0.3c0-0.1,0-0.2,0-0.2c0-0.1,0-0.5,0-0.6c0-0.2-0.1-1.3-0.1-1.5c0-0.1,0-0.5,0.1-0.6
		c0-0.1,0.2-0.3,0.5-0.3c0.1,0,0.1,0,0.2,0c0.1,0,0.6,0,0.8,0c0.1,0,0.3,0,0.4,0c0.1,0,0.1,0,0.2,0c0.1,0,0.2,0.1,0.2,0.3
		c0,0.1,0,0.1,0,0.2c0,0.1-0.1,0.8-0.1,0.9c0,0.2,0,1.3,0,1.5c0,0.3,0,0.7,0,1.1c0,0.2,0,0.4,0,0.6c0,0.2,0.1,1.3,0.1,1.6
		c0,0.2-0.1,1.2-0.1,1.5c0,0.2,0,0.4,0,0.7c0,0.1,0,0.3,0,0.4c0,0,0,0.2-0.2,0.3c-0.1,0-0.1,0-0.3,0c-0.1,0-0.5,0-0.6,0
		c-0.1,0-0.8,0-0.9,0c-0.2,0-0.3-0.3-0.4-0.4c0-0.2-0.1-0.3-0.2-0.5c-0.1-0.2-0.2-0.4-0.3-0.6c-0.1-0.1-0.1-0.3-0.1-0.4
		c-0.1-0.2-0.1-0.4-0.2-0.6c-0.1-0.1-0.1-0.3-0.2-0.4c-0.1-0.2-0.1-0.4-0.2-0.5c-0.2-0.5-0.2-0.6-0.3-0.6c0,0-0.1,0.1-0.1,0.1
		c0,0.1,0,0.2,0,0.3c0,0.1,0.1,0.7,0.1,1c0,0.4,0,0.7,0,1.1c0,0.2,0.1,0.9,0.1,1.1c0,0.3-0.2,0.4-0.4,0.4c-0.1,0-0.8,0-1,0
		c-0.2,0-0.3,0-0.5,0c-0.1,0-0.1,0-0.2,0c-0.3,0-0.3-0.3-0.3-0.4c0-0.2,0.1-1.4,0.1-1.5c0-0.1,0-0.3,0-0.3V110.2z"/>
	<path class="st2" d="M91.2,103.8c0.2,0,1.1,0,1.3,0c0.1,0,0.6,0,0.7,0c0.2,0,0.9,0,1,0c0.4,0,0.4,0.3,0.4,0.5v1.3
		c0,0.2-0.1,0.4-0.4,0.4c-0.1,0-0.3,0-0.4,0c-0.1,0-0.3,0-0.4,0c-0.1,0-0.4,0-0.5,0c-0.1,0-0.3,0-0.4,0.2v0.3c0,0.1,0,0.3,0,0.4
		c0,0.2,0.2,0.3,0.2,0.3c0.1,0.1,0.1,0.1,0.5,0.1c0.1,0,0.3,0,0.4,0c0.1,0,0.3,0,0.3,0c0.3,0,0.4,0.2,0.4,0.4c0,0.1,0,0.3,0,0.4v0.3
		c0,0.2,0,0.6,0,0.7c0,0.3-0.3,0.4-0.5,0.4c-0.1,0-0.6-0.1-0.7-0.1c-0.3,0-0.5,0.2-0.5,0.5v0.7c0,0.1,0,0.5,0,0.6c0,0.1,0,0.5,0,0.6
		c0,0.1,0.1,0.5,0.1,0.6c0,0.5-0.3,0.5-0.5,0.5c-0.1,0-0.6,0-0.8,0c-0.1,0-0.6,0-0.7,0c-0.4,0-0.5-0.3-0.5-0.4v-0.1
		c0-0.3,0-0.6,0-0.9c0-0.3,0-1.6,0-1.9c0-0.2,0-0.4,0-0.6c0-0.4,0-1.1,0-1.1c0-0.2,0-1.2,0-1.4c0-0.2,0-1.1,0-1.3c0-0.1,0-0.6,0-0.7
		c0-0.1,0-0.3,0.2-0.5c0.1-0.1,0.2-0.1,0.6-0.1H91.2z"/>
	<path class="st2" d="M97.6,109.1c0,0.2,0.1,1.1,0.1,1.4c0,0.1,0,0.8,0,1c0,0.2,0.1,0.9,0.1,1.1c0,0.2-0.1,0.3-0.4,0.3
		c-0.1,0-0.5,0-0.5,0c-0.1,0-0.7,0-0.9,0h-0.1c-0.1,0-0.4,0-0.5-0.3c0-0.1,0-0.7,0-0.8c0-0.1,0-0.7,0-0.8V110c0-0.2,0-1.1,0-1.3V107
		c0-0.2,0-1.2,0-1.4v-0.9c0-0.1,0-0.5,0-0.6c0-0.2,0.1-0.3,0.2-0.4c0.1,0,0.1,0,0.4,0c0.1,0,0.7,0,0.8,0c0.2,0,0.3,0,0.5,0
		c0,0,0.2,0,0.2,0c0.3,0,0.3,0.4,0.3,0.5c0,0.1,0,0.6,0,0.7c0,0.3,0,0.5,0,1.8c0,0.1,0,0.8,0,1c0,0.1,0,0.7,0,0.8V109.1z"/>
	<path class="st2" d="M101.4,103.7c0.6,0,1.1,0.1,1.6,0.3c0.2,0.1,0.9,0.6,1.4,1.6c0.4,0.9,0.4,2.2,0.4,2.8c0,0.3,0,0.8-0.2,1.5
		c-0.1,0.5-0.3,1-0.5,1.4c-0.9,1.5-2,1.5-2.8,1.5c-0.1,0-0.6,0-0.7,0c-0.1,0-0.8,0.1-1,0.1c-0.4,0-0.8,0-0.8-0.6c0-0.1,0-0.2,0-0.3
		c0-0.1,0-0.2,0-0.3c0-0.1,0-0.6,0-0.7c0-0.2,0-0.5,0-0.7c0-0.4,0-1.1,0-1.3c0-0.1,0-0.8,0-0.9c0-0.2,0-1.1,0-1.3c0-0.2,0-1,0-1.2
		c0-0.2,0-0.9,0-1.1c0-0.2,0-0.7,0.6-0.7c0.1,0,0.8,0,0.9,0C100.4,103.8,101.3,103.7,101.4,103.7z M101,106.6c0,0.1,0,0.3,0,0.4
		c0,0.2,0,0.6,0,0.9c0,0.1,0,0.8,0,0.9c0,0.1,0,0.5,0,0.6c0,0.1,0,0.5,0,0.6c0,0.2,0,0.3,0,0.4c0.1,0.3,0.4,0.3,0.4,0.3
		c0,0,0.5,0,0.6-0.7c0.2-1.3,0.2-1.3,0.2-1.6c0-0.3,0-0.6-0.1-0.9c0-0.5-0.1-1.6-0.8-1.6C101,106,101,106.4,101,106.6z"/>
	<path class="st2" d="M109.7,103.8c0.1,0,0.3,0,0.4,0c0.2,0,0.4,0.2,0.4,0.4c0,0.1,0,0.6,0,0.7c0,0.1,0,0.4,0,0.4
		c0,0.2,0,0.5-0.5,0.5c0,0-0.2,0-0.2,0c-0.1,0-0.3,0-0.4,0c-0.1,0-0.5,0-0.5,0c-0.5,0-0.6,0.1-0.7,0.2c-0.1,0.1-0.1,0.1-0.1,0.5
		c0,0.1,0,0.6,0.5,0.6c0.1,0,0.3,0,0.4,0c0.1,0,0.4,0,0.5,0c0.1,0,0.3,0,0.4,0c0.4,0,0.5,0.2,0.5,0.5c0,0.1,0,0.5,0,0.5
		c0,0.1,0,0.5,0,0.5c0,0.1,0,0.2,0,0.2c-0.1,0.3-0.3,0.3-0.5,0.3c-0.1,0-0.9-0.1-1-0.1c-0.2,0-0.5,0-0.6,0.2
		c-0.1,0.1-0.1,0.3-0.1,0.7c0,0.3,0,0.5,0.3,0.6c0.1,0,0.3,0,0.5,0c0.1,0,0.3,0,0.4,0.1c0.1,0,0.2,0,0.3,0c0.1,0,0.2,0,0.3,0
		c0.1,0,0.2,0,0.3,0c0.2,0,0.5,0.1,0.5,0.5c0,0.1,0,0.2,0,0.2c0,0.1,0,0.3,0,0.4c0,0.1,0,0.5,0,0.6c0,0.4-0.3,0.5-0.5,0.5
		c-0.1,0-0.4,0-0.5,0c-0.1,0-0.4,0-0.4,0c-0.3,0-0.5,0-0.8,0c-0.1,0-0.4,0-0.5,0c-0.1,0-0.4,0-0.4,0c-0.1,0-0.7,0-0.8,0
		c-0.1,0-0.4,0-0.5,0c-0.3,0-0.5-0.2-0.5-0.5c0-0.1,0-0.1,0-0.2c0-0.3,0-0.6,0-0.8c0-0.1,0-0.7,0-0.8c0-0.1,0-0.5,0-0.6
		c0-0.1,0-0.5,0-0.6c0-0.2,0-0.9,0-1.1c0-0.2,0-1,0-1.2c0-0.5,0-0.9,0-1.4c0-0.1,0-0.8,0-1c0-0.6,0-1,0.7-1c0.1,0,0.2,0,0.4,0
		c0.2,0,0.3,0,0.4,0h0.7c0.2,0,0.9,0,1.1,0c0.1,0,0.4,0,0.5,0H109.7z"/>
	<path class="st2" d="M111.7,110.2c0-0.1,0-0.6,0-0.7c0-0.3,0-0.7,0-1c0-0.2,0-0.4,0-0.5c0,0,0-0.4,0-0.5c0-0.2,0-0.7,0-0.8
		c0-0.3,0-0.5,0-0.8c0-0.3,0-0.5,0-0.6c0-0.2,0-1.1,0-1.3c0-0.1,0.1-0.4,0.4-0.4c0.1,0,0.2,0,0.3,0c0.1,0,0.5,0,0.5,0
		c0.1,0,0.7,0,0.7,0c0.2,0,0.3,0.1,0.3,0.2c0.1,0.1,0.3,0.6,0.4,0.9c0,0.1,0,0.1,0.1,0.2c0,0,0.2,0.5,0.2,0.6
		c0.1,0.1,0.1,0.2,0.1,0.3c0.1,0.1,0.1,0.2,0.1,0.4c0,0.1,0.1,0.2,0.1,0.2c0.1,0.3,0.3,0.8,0.3,1c0,0.1,0.1,0.2,0.1,0.2
		c0.1,0,0.1-0.4,0.1-0.5c0-0.1,0-0.2,0-0.3c0-0.1,0-0.2,0-0.2c0-0.1,0-0.5,0-0.6c0-0.2-0.1-1.3-0.1-1.5c0-0.1,0-0.5,0.1-0.6
		c0-0.1,0.2-0.3,0.5-0.3c0.1,0,0.1,0,0.2,0c0.1,0,0.6,0,0.8,0c0.1,0,0.3,0,0.4,0c0.1,0,0.1,0,0.2,0c0.1,0,0.2,0.1,0.2,0.3
		c0,0.1,0,0.1,0,0.2c0,0.1-0.1,0.8-0.1,0.9c0,0.2,0,1.3,0,1.5c0,0.3,0,0.7,0,1.1c0,0.2,0,0.4,0,0.6c0,0.2,0.1,1.3,0.1,1.6
		c0,0.2-0.1,1.2-0.1,1.5c0,0.2,0,0.4,0,0.7c0,0.1,0,0.3,0,0.4c0,0,0,0.2-0.2,0.3c-0.1,0-0.1,0-0.3,0c-0.1,0-0.5,0-0.6,0
		c-0.1,0-0.8,0-0.9,0c-0.2,0-0.3-0.3-0.4-0.4c0-0.2-0.1-0.3-0.2-0.5c-0.1-0.2-0.2-0.4-0.3-0.6c-0.1-0.1-0.1-0.3-0.1-0.4
		c-0.1-0.2-0.1-0.4-0.2-0.6c-0.1-0.1-0.1-0.3-0.2-0.4c-0.1-0.2-0.1-0.4-0.2-0.5c-0.2-0.5-0.2-0.6-0.3-0.6c0,0-0.1,0.1-0.1,0.1
		c0,0.1,0,0.2,0,0.3c0,0.1,0.1,0.7,0.1,1c0,0.4,0,0.7,0,1.1c0,0.2,0.1,0.9,0.1,1.1c0,0.3-0.2,0.4-0.4,0.4c-0.1,0-0.8,0-1,0
		c-0.2,0-0.3,0-0.5,0c-0.1,0-0.1,0-0.2,0c-0.3,0-0.3-0.3-0.3-0.4c0-0.2,0.1-1.4,0.1-1.5c0-0.1,0-0.3,0-0.3V110.2z"/>
	<path class="st2" d="M118.7,106.5c0.2-0.7,0.4-1.4,1-1.8c0.2-0.1,0.9-0.6,0.9-0.6c0.4-0.2,1.1-0.3,1.6-0.3c0.1,0,0.5,0,0.6,0.1
		c0.2,0.1,0.2,0.3,0.2,0.4c0,0.1,0,0.1,0,0.2c0,0.2,0,0.3,0,0.5c0,0.1,0,0.8,0,1c0,0.3-0.2,0.4-0.4,0.4c-0.1,0-0.1,0-0.2,0
		c-0.1,0-0.2,0-0.2,0c-0.1,0-0.6,0.2-0.7,0.3c-0.2,0.2-0.4,0.6-0.4,0.9c-0.1,0.3-0.1,0.8-0.1,1.1c0,0.2,0,1,0.4,1.5
		c0.2,0.3,0.7,0.5,1,0.5c0.1,0,0.3-0.1,0.3-0.1c0,0,0.1,0,0.2,0.1c0.2,0.1,0.2,0.2,0.2,0.4c0,0.1,0,0.5,0,0.6c0,0.2,0,0.4,0,0.6
		c0,0.1,0,0.2,0,0.2c0,0.4-0.2,0.5-0.5,0.5c-0.2,0-0.3,0-0.5,0c-0.6,0-0.6,0-0.8,0c-0.1,0-0.2-0.1-0.3-0.1c-0.3-0.1-0.4-0.1-0.6-0.2
		c-0.4-0.3-0.6-0.5-0.9-0.8c-0.2-0.3-0.3-0.3-0.4-0.6c-0.4-0.9-0.4-1.1-0.5-2c0-0.2,0-0.4-0.1-0.6c0-0.1,0-0.3,0-0.4
		C118.6,107.4,118.7,106.9,118.7,106.5z"/>
	<path class="st2" d="M127.9,103.8c0.1,0,0.3,0,0.4,0c0.2,0,0.4,0.2,0.4,0.4c0,0.1,0,0.6,0,0.7c0,0.1,0,0.4,0,0.4
		c0,0.2,0,0.5-0.5,0.5c0,0-0.2,0-0.2,0c-0.1,0-0.3,0-0.4,0c-0.1,0-0.5,0-0.5,0c-0.5,0-0.6,0.1-0.7,0.2c-0.1,0.1-0.1,0.1-0.1,0.5
		c0,0.1,0,0.6,0.5,0.6c0.1,0,0.3,0,0.4,0c0.1,0,0.4,0,0.5,0c0.1,0,0.3,0,0.4,0c0.4,0,0.5,0.2,0.5,0.5c0,0.1,0,0.5,0,0.5
		c0,0.1,0,0.5,0,0.5c0,0.1,0,0.2,0,0.2c-0.1,0.3-0.3,0.3-0.5,0.3c-0.1,0-0.9-0.1-1-0.1c-0.2,0-0.5,0-0.6,0.2
		c-0.1,0.1-0.1,0.3-0.1,0.7c0,0.3,0,0.5,0.3,0.6c0.1,0,0.3,0,0.5,0c0.1,0,0.3,0,0.4,0.1c0.1,0,0.2,0,0.3,0c0.1,0,0.2,0,0.3,0
		c0.1,0,0.2,0,0.3,0c0.2,0,0.5,0.1,0.5,0.5c0,0.1,0,0.2,0,0.2c0,0.1,0,0.3,0,0.4c0,0.1,0,0.5,0,0.6c0,0.4-0.3,0.5-0.5,0.5
		c-0.1,0-0.4,0-0.5,0c-0.1,0-0.4,0-0.4,0c-0.3,0-0.5,0-0.8,0c-0.1,0-0.4,0-0.5,0c-0.1,0-0.4,0-0.4,0c-0.1,0-0.7,0-0.8,0
		c-0.1,0-0.4,0-0.5,0c-0.3,0-0.5-0.2-0.5-0.5c0-0.1,0-0.1,0-0.2c0-0.3,0-0.6,0-0.8c0-0.1,0-0.7,0-0.8c0-0.1,0-0.5,0-0.6
		c0-0.1,0-0.5,0-0.6c0-0.2,0-0.9,0-1.1c0-0.2,0-1,0-1.2c0-0.5,0-0.9,0-1.4c0-0.1,0-0.8,0-1c0-0.6,0-1,0.7-1c0.1,0,0.2,0,0.4,0
		c0.2,0,0.3,0,0.4,0h0.7c0.2,0,0.9,0,1.1,0c0.1,0,0.4,0,0.5,0H127.9z"/>
	<path class="st2" d="M132.9,107.5c0-0.1,0-0.2,0.1-0.3c0-0.2,0-0.4,0.1-0.6c0.1-0.5,0.5-1.3,0.7-1.5c0.2-0.3,0.7-0.7,1.1-0.9
		c0.8-0.5,2.3-0.5,2.6-0.5c0.1,0,0.8,0,1,0c0.2,0,0.4,0.2,0.4,0.4c0,0.1,0,0.3,0,0.3v0.9c0,0.2,0,0.4,0,0.4
		c-0.1,0.2-0.3,0.3-0.5,0.3c-0.1,0-0.1,0-0.2,0c-0.1,0-0.1-0.1-0.2-0.1c-0.1-0.1-0.3-0.1-0.4-0.1c-0.1,0-0.2,0-0.4,0
		c-0.9,0-1.2,0.3-1.4,0.7c-0.1,0.2-0.1,0.2-0.1,0.6c0,0.1,0,0.2-0.1,0.3c-0.1,0.3-0.1,0.5-0.1,0.9c0,0.1,0,0.5,0,0.6
		c0,0.1,0,0.2,0.1,0.5c0.1,0.2,0.2,0.4,0.2,0.5c0.1,0.3,0.3,0.8,0.9,0.8c0.1,0,0.5,0,0.5-0.3c0-0.1,0-0.3,0-0.4c0-0.1,0-0.4,0-0.5
		c0-0.3-0.3-0.4-0.4-0.4c0,0-0.2,0-0.2,0c-0.1,0-0.3-0.1-0.3-0.3c0-0.1,0-1.3,0-1.4c0-0.3,0.3-0.4,0.6-0.4c0.1,0,0.6,0,0.7,0
		c0.2,0,0.7,0,0.8,0c0.1,0,0.3,0,0.4,0c0.1,0,0.2,0,0.2,0.1c0.3,0.1,0.3,0.4,0.3,0.5c0,0.1,0,0.6,0,0.7c0,0.1,0,0.6,0,0.7
		c0,0.1,0,0.7,0,0.8c0,0.1,0,0.8,0,1s0,0.8,0,1v0.4c0,0.3,0,0.4-0.3,0.6c-0.4,0.2-1.4,0.3-1.7,0.3c0,0-0.7,0-0.8,0
		c-0.4,0-0.8-0.1-1.2-0.3c-0.7-0.3-0.9-0.5-1.2-1c-0.1-0.1-0.2-0.2-0.2-0.3c-0.2-0.3-0.4-0.7-0.5-1c-0.1-0.3-0.2-1.3-0.2-2
		C132.8,108,132.8,107.7,132.9,107.5z"/>
	<path class="st2" d="M143.3,103.7c1.8,0,2.3,0.9,2.6,1.7c0.2,0.5,0.2,1.5,0.2,1.7c0,0.6-0.1,1.1-0.4,1.7c-0.1,0.1-0.2,0.5-0.6,0.8
		c-0.1,0.1-0.2,0.2-0.2,0.3c0,0.2,0.5,1,0.6,1.2c0.1,0.1,0.1,0.2,0.1,0.3c0.1,0.1,0.1,0.2,0.2,0.3c0.4,0.7,0.4,0.8,0.4,0.9
		c0,0.2-0.1,0.3-0.3,0.3c-0.1,0-0.6,0-0.7,0c-0.2,0-0.7,0-0.8,0c-0.1,0-0.2,0-0.2,0c-0.2,0-0.3-0.1-0.4-0.2c0-0.1-0.2-0.5-0.2-0.6
		c-0.1-0.2-0.2-0.4-0.3-0.7c0-0.1-0.1-0.2-0.1-0.3c-0.1-0.3-0.3-0.6-0.4-0.6c-0.2,0-0.2,0.2-0.2,0.3c0,0.1,0,0.6,0,0.7
		c0,0.1,0,0.4,0,0.5c0,0.1,0,0.4,0,0.5c0,0.3-0.2,0.3-0.3,0.3c-0.1,0-0.1,0-0.1,0c-0.1,0-0.5,0-0.6,0c-0.1,0-0.8,0.1-0.9,0.1
		c-0.3,0-0.4-0.2-0.4-0.4c0,0,0-0.1,0-0.1c0-0.6,0.1-1,0.1-1.2c0-0.3-0.1-1.5-0.1-1.8c0-0.2,0-1.5,0-1.8c0-0.2,0-1,0-1.1
		s0-1.1,0-1.2c0-0.1,0-0.6,0-0.7c0-0.5,0.3-0.6,0.7-0.6c0.1,0,0.7,0,0.8,0C141.9,103.7,143,103.7,143.3,103.7z M142.4,106.5
		c0,0.1,0,0.7,0,0.9c0,0.3,0.2,0.6,0.5,0.6c0.4,0,0.6-0.2,0.6-0.5c0-0.1,0.1-0.6,0.1-0.7c0-0.5-0.2-0.9-0.7-0.9
		C142.4,105.9,142.4,106.3,142.4,106.5z"/>
	<path class="st2" d="M148.2,104.1c0.4-0.2,0.6-0.4,1.8-0.4c0.9,0,1.2,0.2,1.8,0.6c0.1,0.1,0.3,0.3,0.4,0.4c0.5,0.6,0.7,1.6,0.7,2.9
		c0,0.3,0,0.6,0,0.9c0,1.2,0,1.3-0.1,2.1c-0.2,0.9-0.3,1.2-0.6,1.6c-0.4,0.5-0.7,0.6-1.1,0.7c-0.3,0.1-0.5,0.2-1,0.2
		c-1.3,0-2.2-0.5-2.6-1.2c-0.2-0.3-0.4-1-0.4-1.1c-0.1-0.3-0.1-1.1-0.1-1.2c0-0.1,0-0.8,0-0.9c0-0.1,0-0.8,0-1
		C146.9,105.5,147.2,104.7,148.2,104.1z M149.3,106.9c0,0.1,0,0.8,0,0.9c0,0.3,0,1.5,0,1.8c0,0.5,0,1.2,0.6,1.2
		c0.5,0,0.6-0.5,0.6-0.7c0-0.1,0-0.5,0-0.6c0-0.1,0.1-0.9,0.1-1c0-0.2,0-0.5,0-0.7c0-0.1,0-0.4,0-0.5c0-0.2,0-0.6-0.1-0.8
		c-0.1-0.5-0.3-0.6-0.6-0.6C149.3,105.8,149.3,106.6,149.3,106.9z"/>
	<path class="st2" d="M155.7,112.9c-0.5,0-0.5-0.1-0.7-0.7c0-0.1-0.1-0.9-0.2-1c-0.1-0.5-0.2-0.9-0.4-1.4c-0.1-0.3-0.2-0.6-0.2-1
		c-0.1-0.3-0.1-0.6-0.2-1c-0.1-0.3-0.2-0.6-0.3-0.8c0,0-0.5-2.4-0.5-2.8c0-0.2,0.1-0.3,0.2-0.4c0.1,0,0.3,0,0.3,0c0.1,0,0.7,0,0.8,0
		c0,0,0.1,0,0.2,0c0.1,0,0.2,0,0.2,0c0.1,0,0.2,0,0.3,0.1c0.2,0.1,0.2,0.3,0.3,0.8c0.1,0.4,0.2,1,0.2,1.3c0.1,0.4,0.2,0.8,0.3,1.1
		c0.1,0.3,0.2,1,0.3,1.3c0.1,0.2,0.1,0.2,0.1,0.2c0.1,0,0.1-0.1,0.1-0.1c0,0,0.1-0.6,0.1-0.6c0.1-0.3,0.2-0.7,0.3-1
		c-0.1-0.3-0.2-0.6-0.2-1c0-0.2-0.1-0.4-0.1-0.6c0-0.2-0.1-0.5-0.2-0.7c0-0.1-0.1-0.3-0.1-0.4c0-0.4,0.3-0.4,0.5-0.4
		c0.1,0,0.7,0,0.8,0c0.1,0,0.2,0,0.3,0c0.1,0,0.3,0,0.3,0c0.5,0,0.5,0.3,0.5,0.7c0,0.3,0,0.6,0.1,0.9c0.1,0.4,0.2,0.9,0.2,1.3
		c0,0.1,0.1,0.8,0.2,1.2c0,0.1,0,0.2,0,0.3c0,0.1,0,0.2,0.1,0.3c0,0.2,0.1,0.2,0.1,0.2c0.1,0,0.1-0.1,0.1-0.3c0-0.1,0-0.3,0.1-0.4
		c0.1-0.4,0.2-0.8,0.2-1.2c0.1-0.3,0.1-0.6,0.1-1c0-0.2,0.1-0.4,0.1-0.6c0.1-0.3,0.1-0.3,0.1-0.8c0-0.4,0-0.7,0.5-0.7
		c0.1,0,0.3,0,0.4,0c0,0,0.4,0,0.4,0c0,0,0.2,0,0.3,0c0.1,0,0.2,0,0.3,0c0.3,0,0.7,0,0.7,0.4c0,0.1,0,0.1,0,0.2
		c-0.1,0.2-0.3,1.2-0.3,1.5c0,0.2-0.1,0.4-0.1,0.5c-0.1,0.3-0.1,0.5-0.2,0.8c-0.1,0.3-0.1,0.4-0.3,1.2c-0.1,0.2-0.3,1.2-0.4,1.5
		c0,0.1,0,0.3-0.1,0.4c0,0.1-0.1,0.5-0.2,0.5c-0.1,0.2-0.3,1.2-0.4,1.5c-0.2,0.6-0.3,0.7-0.7,0.7c-0.1,0-0.8,0-0.9,0
		c-0.1,0-0.2,0-0.3,0c-0.1,0-0.1,0-0.1,0c0,0-0.1,0-0.1,0c-0.2-0.1-0.2-0.2-0.3-0.4c0-0.1-0.1-0.3-0.1-0.4c-0.1-0.3-0.1-0.6-0.2-0.9
		c-0.1-0.3-0.1-0.8-0.3-0.8c0,0-0.1,0-0.2,0.3c-0.1,0.3-0.5,1.6-0.5,1.8c0,0.2-0.1,0.4-0.4,0.4c-0.1,0-0.6,0-0.7,0H155.7z"/>
	<path class="st2" d="M163.5,105c0.2-0.5,0.5-0.8,1-1c0.6-0.3,1.1-0.3,1.6-0.3c1.1,0,1.8,0,1.8,0.6c0,0,0,0.8,0,0.9
		c0,0.1,0,0.4,0,0.5c0,0.1-0.1,0.5-0.5,0.5h-0.1c-0.2,0-0.3-0.1-0.5-0.1c-0.2-0.1-0.3-0.1-0.5-0.1c-0.2,0-0.6,0-0.6,0.5
		c0,0.3,0.2,0.5,0.8,1c0.1,0.1,0.3,0.3,0.5,0.5c0.1,0.1,0.2,0.1,0.2,0.2c0.9,0.8,1,1.4,1,2.2c0,0.6,0,1.2-0.3,1.7
		c-0.4,0.6-1.1,0.9-1.4,1c-0.3,0.1-1,0.1-1.4,0.1c-0.6,0-1.4-0.1-1.7-0.3c-0.2-0.2-0.2-0.3-0.2-0.4c0-0.1,0-0.7,0-0.8
		c0-0.1,0-0.5,0-0.6c0-0.2,0-0.6,0.5-0.6c0.2,0,0.3,0,0.5,0.2c0.1,0.1,0.2,0.1,0.2,0.2c0.1,0.1,0.4,0.1,0.6,0.1
		c0.4,0,0.8-0.1,0.8-0.5c0-0.3-0.1-0.4-0.9-1.1c-0.1-0.1-0.5-0.5-0.6-0.6c-0.3-0.3-0.5-0.5-0.7-0.9c-0.3-0.5-0.3-0.8-0.3-1.4
		C163.3,105.7,163.4,105.3,163.5,105z"/>
</g>
</svg>
