<?xml version="1.0" encoding="utf-8"?>
<!-- Generator: Adobe Illustrator 21.0.0, SVG Export Plug-In . SVG Version: 6.00 Build 0)  -->
<!DOCTYPE svg PUBLIC "-//W3C//DTD SVG 1.1//EN" "http://www.w3.org/Graphics/SVG/1.1/DTD/svg11.dtd">
<svg version="1.1" id="Layer_1" xmlns="http://www.w3.org/2000/svg" xmlns:xlink="http://www.w3.org/1999/xlink" x="0px" y="0px"
	 viewBox="0 0 364 368" style="enable-background:new 0 0 364 368;" xml:space="preserve">
<style type="text/css">
	.st0{fill:#FFFFFF;}
	.st1{fill:#00AEEF;}
</style>
<g>
	<rect x="-0.5" y="0.5" width="365" height="367"/>
	<g>
		<g>
			<path class="st0" d="M40.4,37.7c0-1.7,1.4-3.1,3.1-3.1h16.9c7.7,0,13.5,2.1,17.6,6.4c4,4.3,6.1,10.2,6.1,17.9v44
				c0,8.8-2.1,15.3-6.4,19.5s-10.4,6.3-18.4,6.3H43.4c-1.7,0-3.1-1.4-3.1-3.1V37.7z M53.8,112.9c0,1.7,1.4,3.1,3.1,3.1H60
				c3.8,0,6.5-0.9,8.1-2.8c1.6-1.9,2.4-4.9,2.4-8.9V58.9c0-3.7-0.7-6.6-2.2-8.6c-1.5-2-4.2-3-8.2-3h-3.1c-1.7,0-3.1,1.4-3.1,3.1
				V112.9z"/>
			<path class="st0" d="M93.7,37.7c0-1.7,1.4-3.1,3.1-3.1h18.6c15.8,0,23.8,9.2,23.8,27.6c0,5.5-0.9,10.1-2.6,14.1
				c-1.4,3.3-3.8,6-7.1,8.3c-1.1,0.8-1.6,2.2-1.2,3.5l12.4,36.5c0.7,2-0.8,4-2.9,4H130c-1.3,0-2.5-0.9-2.9-2.2l-11.2-35.8
				c-0.4-1.3-1.6-2.2-2.9-2.2h-2.7c-1.7,0-3.1,1.4-3.1,3.1v34c0,1.7-1.4,3.1-3.1,3.1h-7.3c-1.7,0-3.1-1.4-3.1-3.1V37.7z M107.1,73.6
				c0,1.7,1.4,3.1,3.1,3.1h4.6c2.4,0,4.3-0.3,5.7-1c1.4-0.7,2.5-1.6,3.2-2.8c0.8-1.2,1.3-2.8,1.5-4.6c0.3-1.8,0.4-3.9,0.4-6.3
				c0-2.4-0.1-4.5-0.4-6.3c-0.3-1.8-0.8-3.3-1.6-4.6c-0.8-1.3-2-2.2-3.5-2.8c-1.5-0.6-3.5-0.9-5.9-0.9h-3.9c-1.7,0-3.1,1.4-3.1,3.1
				V73.6z"/>
			<path class="st0" d="M152.7,34.7h7.3c1.7,0,3.1,1.4,3.1,3.1v87.9c0,1.7-1.4,3.1-3.1,3.1h-7.3c-1.7,0-3.1-1.4-3.1-3.1V37.7
				C149.7,36,151,34.7,152.7,34.7z"/>
			<path class="st0" d="M199.3,128.6h-6.9c-1.5,0-2.7-1-3-2.5l-17.9-87.9c-0.4-1.9,1.1-3.7,3-3.7h7.9c1.5,0,2.8,1.1,3,2.6l10.3,63
				h0.3l10.4-63c0.2-1.5,1.5-2.6,3-2.6h7.9c1.9,0,3.4,1.8,3,3.7l-18,87.9C202.1,127.6,200.8,128.6,199.3,128.6z"/>
			<path class="st0" d="M231.7,34.7h34c1.7,0,3.1,1.4,3.1,3.1v6.5c0,1.7-1.4,3.1-3.1,3.1h-20.5c-1.7,0-3.1,1.4-3.1,3.1v21.5
				c0,1.7,1.4,3.1,3.1,3.1h17.1c1.7,0,3.1,1.4,3.1,3.1v6.5c0,1.7-1.4,3.1-3.1,3.1h-17.1c-1.7,0-3.1,1.4-3.1,3.1v21.5
				c0,1.7,1.4,3.1,3.1,3.1h20.5c1.7,0,3.1,1.4,3.1,3.1v7.3c0,1.7-1.4,3.1-3.1,3.1h-34c-1.7,0-3.1-1.4-3.1-3.1V37.7
				C228.7,36,230,34.7,231.7,34.7z"/>
			<path class="st0" d="M279.4,34.7h7.7c1.3,0,2.4,0.8,2.9,2l19.6,54.6h0.3V37.7c0-1.7,1.4-3.1,3.1-3.1h7.3c1.7,0,3.1,1.4,3.1,3.1
				v87.9c0,1.7-1.4,3.1-3.1,3.1h-7.5c-1.3,0-2.4-0.8-2.9-2l-19.9-54.5h-0.3v53.4c0,1.7-1.4,3.1-3.1,3.1h-7.3c-1.7,0-3.1-1.4-3.1-3.1
				V37.7C276.4,36,277.8,34.7,279.4,34.7z"/>
		</g>
		<g>
			<path class="st0" d="M84.4,162.3h-7.6c-1.7,0-3.1-1.4-3.1-3.1v0c0-3.1-0.7-5.9-2.2-8.1c-1.5-2.3-4-3.4-7.5-3.4
				c-1.9,0-3.4,0.4-4.6,1.1c-1.2,0.7-2.2,1.6-2.8,2.8c-0.7,1.1-1.1,2.4-1.4,3.9c-0.3,1.5-0.4,3-0.4,4.6c0,1.9,0.1,3.5,0.2,4.8
				c0.1,1.3,0.5,2.4,1,3.4c0.5,0.9,1.3,1.8,2.4,2.5c1,0.7,2.4,1.4,4.2,2.2l10.5,4.2c3.1,1.2,5.5,2.5,7.4,4.1
				c1.9,1.6,3.3,3.4,4.4,5.5c1,2.1,1.7,4.5,2.1,7.3c0.4,2.7,0.5,5.9,0.5,9.4c0,4-0.4,7.8-1.2,11.2c-0.8,3.5-2.1,6.4-4,8.9
				c-1.8,2.5-4.3,4.4-7.3,5.9s-6.8,2.2-11.2,2.2c-3.3,0-6.4-0.6-9.3-1.8s-5.3-2.8-7.4-4.8c-2.1-2-3.7-4.4-4.9-7.2
				c-1.2-2.8-1.8-5.8-1.8-9v-2c0-1.7,1.4-3.1,3.1-3.1H51c1.7,0,3.1,1.4,3.1,3.1v1.2c0,2.5,0.7,4.8,2.2,6.8c1.5,2,4,3,7.5,3
				c2.3,0,4.1-0.3,5.5-1c1.3-0.7,2.3-1.6,3-2.8c0.7-1.2,1.1-2.7,1.3-4.5c0.2-1.8,0.3-3.8,0.3-5.9c0-2.5-0.1-4.6-0.3-6.2
				c-0.2-1.6-0.6-2.9-1.1-3.9c-0.6-1-1.4-1.8-2.4-2.4c-1-0.6-2.4-1.3-4.1-2l-9.8-4c-5.9-2.4-9.9-5.6-11.9-9.6c-2-4-3-9-3-15
				c0-3.6,0.5-7,1.5-10.2c1-3.2,2.4-6,4.4-8.3c1.9-2.3,4.4-4.2,7.3-5.6c3-1.4,6.4-2.1,10.4-2.1c3.4,0,6.5,0.6,9.4,1.9
				c2.8,1.3,5.3,2.9,7.3,5c2,2.1,3.6,4.4,4.6,6.9c1.1,2.6,1.6,5.2,1.6,7.9v3.7C87.5,160.9,86.1,162.3,84.4,162.3z"/>
			<path class="st0" d="M105.3,147.6h-9.8c-1.7,0-3.1-1.4-3.1-3.1v-6.8c0-1.7,1.4-3.1,3.1-3.1h39.4c1.7,0,3.1,1.4,3.1,3.1v6.8
				c0,1.7-1.4,3.1-3.1,3.1h-9.8c-1.7,0-3.1,1.4-3.1,3.1v76.8c0,1.7-1.4,3.1-3.1,3.1h-7.6c-1.7,0-3.1-1.4-3.1-3.1v-76.8
				C108.4,149,107,147.6,105.3,147.6z"/>
			<path class="st0" d="M189,209c0,3.1-0.6,6.1-1.7,8.8c-1.2,2.7-2.8,5-4.8,7.1c-2,2-4.4,3.6-7.1,4.8s-5.6,1.8-8.6,1.8
				s-5.9-0.6-8.6-1.8s-5-2.8-7.1-4.8c-2-2-3.6-4.4-4.8-7.1c-1.2-2.7-1.7-5.6-1.7-8.8v-71.3c0-1.7,1.4-3.1,3.1-3.1h7.6
				c1.7,0,3.1,1.4,3.1,3.1v69.9c0,3.4,0.8,5.9,2.4,7.5c1.6,1.6,3.6,2.4,6.1,2.4c2.4,0,4.4-0.8,6.1-2.4c1.6-1.6,2.4-4.1,2.4-7.5
				v-69.9c0-1.7,1.4-3.1,3.1-3.1h7.6c1.7,0,3.1,1.4,3.1,3.1V209z"/>
			<path class="st0" d="M199.3,137.7c0-1.7,1.4-3.1,3.1-3.1h17.3c7.8,0,13.8,2.2,17.9,6.5c4.1,4.4,6.2,10.4,6.2,18.2v44.8
				c0,9-2.2,15.6-6.5,19.9c-4.4,4.3-10.6,6.4-18.8,6.4h-16.1c-1.7,0-3.1-1.4-3.1-3.1V137.7z M213,214.5c0,1.7,1.4,3.1,3.1,3.1h3.3
				c3.9,0,6.6-1,8.2-2.9c1.6-1.9,2.4-5,2.4-9.1v-46.2c0-3.8-0.8-6.7-2.3-8.8c-1.5-2.1-4.3-3.1-8.3-3.1h-3.3c-1.7,0-3.1,1.4-3.1,3.1
				V214.5z"/>
			<path class="st0" d="M257,134.7h7.6c1.7,0,3.1,1.4,3.1,3.1v89.7c0,1.7-1.4,3.1-3.1,3.1H257c-1.7,0-3.1-1.4-3.1-3.1v-89.7
				C253.9,136,255.3,134.7,257,134.7z"/>
			<path class="st0" d="M277.6,157.3c0-3.9,0.7-7.3,2-10.2c1.3-3,3.1-5.4,5.3-7.3s4.7-3.4,7.4-4.4c2.7-1,5.5-1.5,8.3-1.5
				c2.8,0,5.5,0.5,8.3,1.5c2.7,1,5.2,2.4,7.4,4.4c2.2,1.9,4,4.4,5.3,7.3c1.3,3,2,6.4,2,10.2v50.6c0,4-0.7,7.4-2,10.3
				c-1.3,2.9-3.1,5.3-5.3,7.3c-2.2,1.9-4.7,3.4-7.4,4.4s-5.5,1.5-8.3,1.5c-2.8,0-5.5-0.5-8.3-1.5c-2.7-1-5.2-2.4-7.4-4.4
				s-4-4.4-5.3-7.3c-1.3-2.9-2-6.3-2-10.3V157.3z M291.3,207.9c0,3.3,0.9,5.8,2.8,7.3c1.8,1.6,4,2.4,6.5,2.4c2.5,0,4.7-0.8,6.5-2.4
				c1.8-1.6,2.8-4,2.8-7.3v-50.6c0-3.3-0.9-5.8-2.8-7.3c-1.8-1.6-4-2.4-6.5-2.4c-2.5,0-4.7,0.8-6.5,2.4c-1.8,1.6-2.8,4-2.8,7.3
				V207.9z"/>
		</g>
		<g>
			<path class="st0" d="M43.4,236.7H51c1.7,0,3.1,1.4,3.1,3.1v89.7c0,1.7-1.4,3.1-3.1,3.1h-7.6c-1.7,0-3.1-1.4-3.1-3.1v-89.7
				C40.4,238,41.8,236.7,43.4,236.7z"/>
			<path class="st0" d="M67.4,236.7h8c1.3,0,2.4,0.8,2.9,2l20,55.7h0.3v-54.7c0-1.7,1.4-3.1,3.1-3.1h7.6c1.7,0,3.1,1.4,3.1,3.1v89.7
				c0,1.7-1.4,3.1-3.1,3.1h-7.7c-1.3,0-2.4-0.8-2.9-2l-20.3-55.6h-0.3v54.6c0,1.7-1.4,3.1-3.1,3.1h-7.6c-1.7,0-3.1-1.4-3.1-3.1
				v-89.7C64.3,238,65.7,236.7,67.4,236.7z"/>
			<path class="st0" d="M166.1,311.1c0,3-0.6,5.8-1.7,8.5c-1.1,2.7-2.7,5-4.6,7.1c-2,2-4.3,3.6-6.9,4.8c-2.6,1.2-5.5,1.8-8.6,1.8
				c-2.6,0-5.3-0.4-7.9-1.1c-2.7-0.7-5.1-2-7.3-3.7c-2.2-1.7-3.9-4.1-5.3-6.9c-1.4-2.9-2.1-6.5-2.1-10.9v-52.8
				c0-3.1,0.5-6.1,1.6-8.7c1.1-2.7,2.6-5,4.6-7c2-2,4.3-3.5,7.1-4.6c2.7-1.1,5.8-1.7,9.1-1.7c3.1,0,6.1,0.6,8.8,1.7
				c2.7,1.1,5,2.7,7,4.7c2,2,3.5,4.4,4.6,7.3c1.1,2.8,1.7,5.9,1.7,9.2v2.3c0,1.7-1.4,3.1-3.1,3.1h-7.6c-1.7,0-3.1-1.4-3.1-3.1v-1.5
				c0-2.7-0.8-5-2.3-7c-1.5-2-3.6-3-6.2-3c-3.4,0-5.7,1.1-6.8,3.2c-1.1,2.1-1.7,4.8-1.7,8v49c0,2.8,0.6,5.1,1.8,7
				c1.2,1.9,3.4,2.8,6.5,2.8c0.9,0,1.9-0.2,2.9-0.5c1-0.3,2-0.8,2.8-1.5c0.9-0.7,1.5-1.7,2.1-3c0.5-1.3,0.8-2.8,0.8-4.7v-1.6
				c0-1.7,1.4-3.1,3.1-3.1h7.6c1.7,0,3.1,1.4,3.1,3.1V311.1z"/>
			<path class="st1" d="M177.5,318.8h7.6c1.7,0,3.1,1.4,3.1,3.1v7.6c0,1.7-1.4,3.1-3.1,3.1h-7.6c-1.7,0-3.1-1.4-3.1-3.1v-7.6
				C174.4,320.2,175.8,318.8,177.5,318.8z"/>
		</g>
	</g>
</g>
</svg>
