<svg width="150" height="70" viewBox="0 0 150 70" xmlns="http://www.w3.org/2000/svg"><title>techjam-logo-undated</title><g fill="none" fill-rule="evenodd"><path d="M.886 17.69h5.517V37.92h5.01V17.69h5.518v-4.853H.887v4.852M18.884 37.804h13.148v-5.087h-8.178v-5.323h6.456v-4.696h-6.456V17.65h8.178v-4.93H18.884v25.084M45.53 12.642h-7.984c-1.88 0-3.326 1.37-3.326 3.247v18.626c0 1.878 1.566 3.327 3.443 3.327h7.867c1.877 0 3.326-1.37 3.326-3.248v-5.713h-4.93v4.226H39.19v-15.73h4.737v3.99h4.93v-5.48c0-1.877-1.45-3.246-3.327-3.246M61.57 22.347h-4.89v-9.51h-5.048v25.085h5.05V27.394h4.89v10.528h5.087V12.837h-5.09v9.51M99.726 44.443h-6.633v4.383h7.845c2.543 0 3.247-1.29 3.247-3.835V12.643h-4.46v31.8M113.1 17.3h4.616v7.042H113.1V17.3zm6.297-4.502h-7.982c-1.84 0-3.365 1.487-3.365 3.327v21.757h5.05v-8.688h4.46v8.688h5.087V16.125c0-1.88-1.37-3.327-3.25-3.327zM140.8 12.76l-2.78 14.087h-.078l-2.894-14.087h-8.608v25.122h4.89V18.668h.04l3.99 19.214h3.72l4.538-18.55h.078v18.55h5.438V12.76H140.8" fill="#1A1918"/><path d="M.886 4.107h.787L3.9 9.504l2.238-5.397h.76l-2.692 6.31h-.63l-2.69-6.31M8.132 4.107h4.527v.645H8.84v2.14h3.42v.643H8.84v2.192h3.864v.644H8.132V4.108M16.757 7.303c.94 0 1.61-.485 1.61-1.29v-.017c0-.77-.59-1.234-1.6-1.234h-1.934v2.54h1.924zm-2.63-3.196h2.694c.77 0 1.386.233 1.78.626.305.306.485.744.485 1.236v.016c0 1.04-.717 1.647-1.7 1.827l1.923 2.558h-.868l-1.816-2.43h-1.79v2.43h-.708V4.108zM20.595 4.107h.715l2.283 3.42 2.28-3.42h.718v6.264h-.708V5.3l-2.28 3.355h-.037l-2.28-3.346v5.064h-.69V4.108M33.74 7.258V7.24c0-1.424-1.04-2.588-2.47-2.588-1.433 0-2.453 1.147-2.453 2.57v.018c0 1.422 1.037 2.586 2.47 2.586 1.43 0 2.452-1.145 2.452-2.568zm-5.657 0V7.24c0-1.728 1.297-3.24 3.203-3.24s3.186 1.495 3.186 3.222v.018c0 1.727-1.3 3.24-3.203 3.24-1.908 0-3.187-1.496-3.187-3.222zM35.966 4.107h.662l3.947 5.022V4.106h.688v6.264h-.565l-4.045-5.136v5.137h-.687V4.108M44.69 4.762h-2.103v-.655h4.922v.655h-2.103v5.61h-.717V4.76" fill="#B5272D"/><path d="M88.12 57.898s-.418.89-.107 1.73c.314.84 2.302 4.1 2.336 6.458 3.37 3.332 4.96 2.807 4.96 2.807l1.285-.69s.775-3.084-.363-4.122c-1.135-1.04-3.26-4.808-6.565-6.537l-1.548.355M63.687 54.923l-.84.767s-.582-.11-1.292.257c-.71.366-5.034 1.177-5.44 1.022 0 0-3.622-.08-2.87 2.348l13.168-1.39-.52-1.992-2.206-1.013" fill="#FFF"/><path d="M73.54 36.804L63.28 54.508l2.612 1.417s6.814-12.932 10.86-13.428c0 0 4.06.682 11.004 15.487 0 0 2.442.083 2.79-.48L85.873 47.05l-1.245.603-6.417-11.58-4.67.73" fill="#B5272D"/><path d="M69.022 21.59l.007.508s2.2 4.187 2.31 5.492c0 0 2.824.556 5.667-.657 0 0-3.62 6.237-8.35 6.755l5.382 1.37 12.946-3.987 1.088-1.78s1.706 3.56 1.994 5.116L87.32 35.87s1.978.778 1.777 2.297c0 0 4.363-1.19 5.457-2.677 0 0-1.122-6.685-2.902-9.233l-2.887-1.947.382-1.396-1.797-.78-.26.72-2.095.237-.518 1.312-2.156-.86.83-1.19-2.825-.81L77 23.395l-4.906-2.64s-1.542 1.705-3.072.837" fill="#4E4C70"/><path d="M83.674 22.306s-7.012-.443-7.917-7.83c-.675-5.497 4.83-8.202 4.83-8.202l.383-2.197s3.545-2.176 8.347.466c4.804 2.64 5.896 8.132 5.896 8.132s1.363 3.803-1.946 5.64c0 0-2.2 4.463-9.593 3.99" fill="#658AAD"/><path d="M77.706 9.174s13.987 3.15 15.237 3.078c0 0-2.287 2.61-1.47 5.692 0 0-4.844 2.753-13.503 1.17 0 0-4.48-4.554-.264-9.94" fill="#BBCBDF"/><path d="M77.515 11.852s.45-1.274.964-1.2c.508.07.814 1.17.582 1.787-.228.618-.815 1.137-1.28.9-.466-.236-.267-1.488-.267-1.488M79.426 15.272s-.177-.752.228-.772c.405-.02.78.842.105 1.05-.263.078-.334-.278-.334-.278" fill="#FFF"/><path d="M80.853 4.136s6.45-.862 7.652 3.928c0 0-3.842-1.977-7.804-1.93 0 0 .364-1.746.153-1.998" fill="#B5272D"/><path d="M89.49 7.743s-.68.914.924 2.094c1.602 1.183 1.798.592 1.798.592s.77-.558-.86-2.056c-1.356-1.248-1.86-.63-1.86-.63" fill="#EA8633"/><path d="M89.508 10.503s1.158-3.32 2.232-3.315c1.07.01-1.473 3.285-2.232 3.315M74.03 35.45l2.31-7.246 2.884-2.506 2.8-2.084 2.218.96-3.412 5.263-4.136 6.564s-2.713-.3-2.664-.95" fill="#E4E44F"/><path d="M83.15 22.352l-.83 1.19 1.933.862.742-1.313 2.145-.027.21-.928-4.2.217" fill="#F4D9BA"/><path d="M79.98 28.71L68.57 8.917l-2.213 1.416L77.5 30.087l2.48-1.376" fill="#CBC0AE"/><path d="M84.627 47.655l3.952-1.815s-1.715-4.32-1.64-5.455c.073-1.142.154-4.847.154-4.847s.392-.596-.75-2.48l.35-.383.292-1.604-.51-1.173.153-1.856-1.45-1.287-4.038 1.944 1.013 1.883-4.304 2.366-.96-1.59-3.145 1.85 2.408 2.753 1.313 1.248.466 1.3 1.043 1.252.82 1.044.42 1.174.812.664 1.497 1.543 1.238 2.05.865 1.42" fill="#4D6D45"/><path d="M74.595 33.31l10.11-5.54 1.287.546s-.51 1.747.095 2.443c.604.694-.096 1.685-.096 1.685s-.25 1.182.416 2.02c.67.833.15 2.073.15 2.073s-.8 4.28.545 6.792l.687 2.183-2.93 1.467s-1.346-2.655-3.887-5.178c-.64-.64-.95-2.075-1.556-2.653-.65-.62-.68-2.194-1.257-2.512-3.242-1.788-1.726-2.002-3.562-3.328" fill="#A7B539"/><path d="M71.78 20.97s-.21-2.4-2.048-2.715c0 0 2.646-.51 2.29-2.43-.242-1.303-1.992 1.33-3.596 1.686l.377-1.688s2.646-2.6.67-3.252l-.206-.036-1.214 1.405s.918-1.907-.833-1.9l-2.13 2.263s.78 3.536.713 3.955l.372.54s2.477 2.052 2.898 2.536l.353.354s1.905.26 2.354-.72M87.415 36.024s-1.08-.38-1.236-.968c0 0-.59-1.62-1.32-.464-.726 1.16-1.095.435-1.186.297-.094-.14-1.054-.664-1.054-.664s-.82 1.047.177 1.936c0 0-.503.343-.585.624-.087.284-.17.733-.17.733l.964.747s-.192 1.21 1.062 1.477l-.086.14s1.332 1.473 3.49.157c2.153-1.316 1.635-2.265 1.635-2.265s-.948-1.732-1.692-1.75" fill="#F4D9BA"/><path d="M85.234 24.225s.36.163.56.013c.198-.15.347-.657-.057-.736-.4-.08-.55.554-.503.723" fill="#E7EDF3"/><path d="M76.675 30.786s2.83-1.832 3.836-2.433l1.645 2.227-4.304 2.366-1.175-2.16" fill="#A4A5A3"/><path d="M81.986 42.422s.374 1.217 1.452.087c1.08-1.13-1.9-1.58-1.452-.088M84.08 43.49s1.41.26.327 1.18c-1.08.917-1.446-1.185-.326-1.18" fill="#E4E44F"/><path d="M74.12 35.59l-.58 1.214 1.59.77-.02-1.376-.99-.608" fill="#6D4B2C"/><path d="M75.11 36.198s-.15 1.855 1.197 2.23c1.344.38 1.625.08 1.625.08s.05-1.53-1.238-2.107L75.11 36.2" fill="#EDF1F6"/><path d="M71.457 34.243l-1.152.69.904.62 1.148-.898-.9-.412" fill="#BA783B"/><path d="M70.48 36.385l-1.148-.682.71-.493.27.248-.22.152.025.124.29-.025.13-.105.54.288-.596.492zm-.465-1.596l-1.284 1.003 1.736 1.013.425-.046.705-.747-1.58-1.224z" fill="#E4E44F"/><path d="M68.57 8.916s-.65-1.967-.12-2.422L62.633.81s-2.38.253-2.174 2.104c.203 1.85 2.29 2.053 2.29 2.053l.537 4.038s2.537.45 3.07 1.327l2.214-1.416" fill="#4D6D45"/><path d="M62.464 1.43s4.356 4.613 5.315 5.107c0 0-.305 1.576.178 2.105l-1.412 1.112s-2.138-1.21-2.644-1.29c0 0-.28-3.198-.797-3.783 0 0-2.453-.672-2.055-1.997.4-1.325 1.414-1.253 1.414-1.253" fill="#A7B539"/><path d="M91.456 27.1s2.35 5.928 2.495 7.95c0 0-1.94 1.51-3.867 2.124 0 0-.043-.648-.73-.864-.688-.216.172-.507.414-.397.237.108.796-.49.796-.49s.53-.313.92-.233c.385.08 1.013.102 1.004-.517-.008-.62.07-1.35-.442-1.85-.513-.5-.173-1.543-.235-1.935-.066-.392-.583-3.08-1.772-2.928 0 0 .204-.424 1.418-.86M88.722 23.256s-1.132.21-1.785.22c0 0-.175.224-.143.448.033.224-.174.368-.174.368l.244.363s.07.646.694.58c.623-.062 1.01-.236 1.077.24.064.48-.067 1.66.497 1.57.563-.092.764-.685 1.568-.777 0 0-1.98-1.045-2.44-1.968.198-.62.462-1.044.462-1.044M71.35 21.984s-.544.443-1.83.093c0 0 2.107 3.71 2.336 5.14 0 0 1.66.43 2.6-.423.943-.855-.814.22-1.305-.7-.49-.92.393-.722-.51-1.3-.9-.58-1.207-1.35-.83-1.72.38-.368-.46-1.09-.46-1.09" fill="#658AAD"/><path d="M79.353 9.632s3.096.974 2.484 4.983c-.614 4.01 3.286 4.85 3.286 4.85l4.544-.77s-5.71-2.757-2.472-7.428l-7.842-1.635" fill="#FFF"/><path d="M56.346 57.087l.237.925 9.634-1.123-.325-.965-.63-.16-.58.13-2.102-.355s-5.026 1.743-6.234 1.547M90.318 57.912c2.53 1.95 5.67 6.045 5.67 6.045-2.197-.608-4.63 1.106-4.63 1.106L89.34 61.42c-1.638-1.877-1.39-3.268-1.39-3.268" fill="#598DBE"/><path d="M89.878 29.253s-.045 1.07.558 1.48l2.522-.73-.47-1.482s-2.11.25-2.61.733" fill="#E7EDF3"/><path d="M64.218 1.192s.054.822.86.916c.288-.235-.73-1.17-.86-.916M66.26 3.274l-.59-.392s-.09-.315.153-.296c.248.018 1.108.933.436.688M67.48 4.293s.657.624.805.2c.15-.422-.812-.768-.97-.64-.153.128.165.44.165.44" fill="#E4E44F"/><path d="M80.582 25.373s-.742 1.232-.11 1.897c.637.67 2.488-2.134 1.152-2.35-.605-.1-1.042.453-1.042.453" fill="#B5272D"/><path d="M81.202 25.156c-.125-.012.003.17.137.167.135-.003.088-.147-.138-.167M80.808 25.5s-.222.19.022.208c.247.02.358-.194.358-.194s-.182-.25-.38-.015M80.915 26.78c.308.127.397-.297.397-.36 0-.065-.847.176-.397.36" fill="#EA8633"/><path d="M93.37 16.145s.1.535.35.574c.256.038.998-1.208.976-2.772-.018-1.295-1.588.61-1.326 2.197" fill="#4E4C70"/><path d="M91.032 5.47l1.074-.52 1.23 1.004-.616 1.027-1.688-1.51" fill="#598DBE"/><path d="M91.713 28.688s-.48.064-.565.547c-.083.482.132.65.55.645.422-.004.38-.996.015-1.192" fill="#D9422A"/><path d="M82.518 42.107c.006 0 .01-.002.015-.005.02-.013.033-.04.033-.063.04-.04.09-.065.155-.077.143-.015.236.107.293.21.037.07.02.128-.034.166l-.022.012c-.016.008-.027.015-.044.02-.104.032-.236.013-.32-.055-.08-.06-.085-.132-.076-.21zm.378.694c-.152.07-.333.1-.496.055-.074-.017-.13-.06-.17-.11-.12-.18-.198-.397-.2-.604.03-.028.064-.054.095-.082-.015.034-.03.073-.043.11-.022.07.073.11.126.066.033-.03.078-.048.118-.064.005.023.006.044.01.066.017.1.09.178.173.24.15.1.385.103.544.016.062-.03.095-.07.117-.12.018-.018.03-.038.042-.06.034.05.083.092.148.075.03-.01.08-.065.053-.095-.007-.007-.018.002-.014.008.036.042-.043.034-.06.033-.07-.013-.104-.12-.114-.17-.006-.03-.044-.04-.07-.022-.02-.045-.048-.088-.078-.13-.103-.115-.26-.202-.42-.14-.05.02-.09.06-.124.106.003-.017.003-.032.003-.047-.007-.06-.078-.09-.125-.047-.04.034-.06.084-.072.137-.002-.003-.004 0-.006 0-.017.005-.032.012-.048.02.028-.07.06-.14.102-.203.038-.063-.054-.127-.107-.077-.074.073-.155.14-.234.206.03-.14.105-.27.242-.363.335-.23 1.23 0 1.255.45.016.332-.367.618-.647.748zm.83-.876c-.122-.534-1.193-.757-1.59-.42-.272.23-.316.56-.225.862-.007.01-.01.022-.015.033-.068 1.237 2.063.54 1.83-.476zm5.75-34.086c.195-.332.9.053 1.112.172.01.006.02.012.03.015-.246.35-.48.752-.678 1.14-.02-.03-.046-.062-.064-.092-.023-.034-.062-.036-.09-.022-.05-.08-.096-.164-.137-.243-.14-.258-.34-.687-.175-.97zm1.858.717c-.176.238-.368.47-.56.693l-.388.44c-.142-.138-.274-.286-.386-.44.13-.242.27-.48.423-.712.096-.15.197-.3.306-.442.213.135.416.29.604.46zm-.13-1.012c.128-.124.684-.52.712-.108.02.267-.205.567-.346.784-.038.06-.08.12-.122.18-.192-.165-.39-.317-.597-.454-.003 0-.003-.002-.003-.004.11-.138.23-.273.357-.4zm.66 1.577c.274.345.616 1.015.13 1.345-.177.12-.418.063-.647-.05.014-.02.01-.055-.026-.06l-.162-.045c-.183-.115-.347-.247-.45-.33-.06-.05-.118-.1-.178-.153.234-.272.45-.55.66-.81.055-.076.16-.196.275-.34.144.14.28.29.4.443zm-2.327 1.416c-.028-.04-.042-.078-.052-.116.047-.236.168-.477.267-.684.035-.08.076-.158.114-.236.084.098.164.192.248.285.033.03.062.064.095.096-.213.23-.438.452-.673.656zm.277-1.106c-.147.303-.26.587-.33.81.003-.026.005-.05.005-.076.01-.068-.1-.075-.12-.014-.073.227-.08.373.077.564.025.035.085.06.128.03.282-.202.537-.456.783-.722.16.138.343.27.542.347.34.232.8.455 1.196.256.444-.22.37-.86.188-1.203-.174-.336-.42-.634-.703-.898.33-.434.683-1.006.415-1.295-.32-.34-.8.03-1.265.64-.34-.216-.844-.46-1.23-.294-.35.15-.313.548-.23.845.098.36.3.703.544 1.01zm-9.21 16.012c.193-.305.515-.546.91-.466.213.045.346.18.4.355l-.557.364c-.393.257-.785.534-1.144.84.04-.397.21-.807.39-1.092zm-.353 1.36c-.004-.013-.013-.023-.024-.03l1.708-1.15c-.114.708-1.237 2.225-1.683 1.18zm-.787.455c-.024.026.014.06.042.035.095-.075.19-.148.28-.224l.32-.21c.04.197.12.383.26.536.016.02.055-.008.04-.03-.033-.04-.06-.085-.084-.13.228.193.603.112.915-.128.454-.343.934-1.03.9-1.62l.26-.176c.352-.188.7-.378 1.027-.597.072-.05.028-.18-.065-.145-.44.163-.868.403-1.275.656-.224-.596-1.066-.505-1.472-.077-.34.36-.572.96-.535 1.505-.218.19-.425.39-.612.605zm6.334-3.173c-.106.124-.318.158-.463.084-.015-.008-.025-.018-.034-.025-.008-.087 0-.18.027-.266.052-.08.116-.153.144-.2.006-.013.006-.028.005-.04.037-.04.083-.07.135-.093.257-.1.3.407.187.54zm-.19-.678c-.147.022-.26.154-.33.28-.186.166-.29.466-.04.613.007.015.01.033.022.05.017.03.07.02.077-.008.222.058.486-.042.605-.22.16-.232.03-.767-.334-.716zm6.565-7.27c-.028.38.016.824.177 1.177.026.06.128.054.125-.018-.008-.39-.164-.766-.17-1.16-.004-.08-.128-.077-.133.002zm-22.06 20c-.234-.11-.44-.282-.653-.43.184-.147.363-.298.52-.467.083.054.163.113.24.17-.006-.002-.016-.002-.023.004-.084.047-.178.093-.218.185-.03.07.03.143.097.172.163.07.383.01.512-.11.105.074.216.145.327.213-.217.24-.455.428-.805.26zm.14-.707c.06.045.122.086.185.13-.053.042-.124.07-.19.08-.03 0-.1.008-.117-.017-.024-.035.088-.132.116-.152.017-.01.013-.03.005-.04zm-.263-.393c-.104-.05-.18.082-.09.147.014.008.03.018.042.027-.213.152-.432.293-.658.43-.055.036-.047.1.002.135.31.21.62.528 1.005.606.353.074.642-.236.837-.46.037-.048.032-.11-.023-.144-.383-.225-.713-.54-1.115-.74zm9.802-19.684c-.207.15-.284-.127-.354-.26-.013-.025-.037-.033-.057-.03.002-.137.043-.28.105-.387.137-.236.412.01.475.178.06.17-.02.39-.168.5zm-.377-.862c-.218.183-.21.546-.093.78.062.227.285.4.538.263.254-.136.364-.475.283-.73-.087-.267-.464-.533-.728-.312zm-.93-1.412c-.18.157-.436.26-.66.13-.22-.127-.29-.422-.334-.682.003-.45.18-.936.394-1.304.11-.192.268-.418.508-.48.33-.083.502.495.567.686.2.57-.015 1.247-.474 1.65zm.67-1.634c-.072-.303-.226-.723-.552-.862-.264-.105-.516.073-.68.25-.33.353-.553.898-.577 1.417-.02.01-.036.03-.036.055-.01.577.336 1.396 1.082 1.04.683-.328.922-1.246.764-1.9zm5.34 32.484c.003.03.008.06.01.09-.01-.003-.022-.005-.034-.01.034-.085.03-.172-.09-.188-.068-.01-.14-.01-.207-.018-.058-.007-.116-.02-.176-.01-.052.01-.083.045-.103.09.004-.045.007-.09-.006-.13-.01-.04-.073-.058-.1-.024-.076.087-.107.244-.084.378-.013.004-.023.004-.038.006-.024.007-.05.032-.073.044-.018-.023-.033-.05-.046-.072l-.05-.087c.033-.28.207-.526.555-.47.214.035.468.148.58.325-.06-.027-.14 0-.137.076zm-.607.157c.008-.002.013-.008.018-.018.023-.056.046-.168.13-.16.09.003.198.036.283.052-.027.04-.062.074-.102.107-.05.04-.1.07-.157.095-.017.008-.042.014-.067.02-.015.004-.037.002-.05 0-.01-.003-.02-.01-.023-.012-.022-.026-.026-.05-.032-.082v-.003zm.064.6c-.205.045-.31-.017-.368-.13.01.008.017.017.024.026.01.014.035-.003.026-.02-.038-.046-.068-.103-.09-.166 0-.003.002-.004 0-.006-.01-.032-.013-.06-.018-.092l.005.004c.025.01.054.008.074-.004.058-.016.104-.05.166-.033h.004c.03.036.066.065.112.082.15.05.327-.054.442-.152l.045.008c.01 0 .02-.003.03-.005h.012c0 .006 0 .008.006.01.016.023.023.06.03.086.014.043.043.064.08.07-.147.162-.368.28-.578.325zm-.07-1.34c-.288.02-.476.253-.527.504-.027.12-.02.238.007.345-.16.41.14.753.594.684.387-.06.807-.364.914-.73.143-.496-.55-.836-.987-.805zm8.038-27.07c.013-.058-.078-.08-.095-.023-.137.415-.03.865.13 1.264.032.08.148.045.132-.036-.086-.4-.25-.788-.167-1.206zm2.707 52.26c-.97-.198-1.946-.727-2.727-1.303-.12-.09-.235-.186-.34-.293-.102-.286-.21-.567-.258-.88-.043-.296-.03-.598 0-.892.193.302.408.593.648.877.864.986 2.077 1.614 3.45 1.32.777-.167 1.205-.8 1.298-1.493.06.236.11.475.135.718.15 1.41-.775 2.24-2.206 1.945zm-3.56-3.056c-.23-.387-.47-.774-.69-1.164-.23-.394-.363-.83-.566-1.232-.165-.51-.356-1.003-.625-1.486-.363-.647-.747-1.246-1.005-1.897.1.22.216.436.355.657.472.752 1.045 1.44 1.437 2.237.417.84.778 1.685 1.265 2.47-.1.114-.15.26-.17.415zm-.78-.834c.238.382.5.752.752 1.127.004.01.012.017.02.024.005.094.017.182.025.265.013.125.028.26.057.397-.4-.544-.65-1.172-.855-1.814zm-2.102-6.427c.24.03.497.048.753.04.13.163.235.33.33.504-.165.058-.318.14-.406.268-.052.075-.018.2.072.24.082.035.096.03.16.04.055.01.1-.032.1-.077.03-.01.054-.024.08-.03.06-.022.12-.04.18-.057.078.162.15.324.23.496-.28.15-.75.445-.535.55.167.084.49-.028.752-.128.108.194.223.382.343.57-.223.133-.413.312-.434.56-.01.12.154.186.252.132.164-.088.323-.172.478-.247l.174.256c.076.11.148.225.223.34-.297.14-.593.35-.588.635 0 .12.118.193.23.165.15-.035.25-.13.38-.21.08-.052.164-.09.254-.124.132.234.247.474.338.724-.143.112-.278.226-.407.346-.228.208.11.505.346.32.067-.05.128-.092.194-.137.05.48-.082.944-.17 1.42-.035.037-.073.075-.1.112-.54-.854-.885-1.78-1.352-2.67-.678-1.292-1.928-2.406-2.16-3.88.108.017.232-.054.283-.156zm-1.995-4.28c-.305-.49-.59-.997-.88-1.498-.945-1.637-1.915-3.268-2.976-4.842-.992-1.475-2.076-2.96-3.444-4.15-.708-.612-1.612-1.175-2.547-.97-.805.04-1.49.62-2.068 1.135-1.057.94-1.99 2.103-2.858 3.195-1.14 1.427-2.156 2.946-3.08 4.505-.836 1.412-1.828 2.875-2.414 4.404-.387-.184-.82-.29-1.203-.497-.415-.223-.823-.453-1.243-.664.003-.01.01-.012.015-.02 1.48-2.43 3.04-4.86 4.49-7.327 1.982-3.388 3.94-6.802 5.61-10.34.416.355.92.574 1.443.775.035.014.067.01.096.002.553.83 1.795 1.398 2.68.89l.01-.012c.182.435.476.79.82 1.154.603.638.99 1.246 1.358 2.023.318.682.954 1.122 1.51 1.62.628.56 1.052 1.268 1.44 1.984.408.74 1.123 1.374 1.41 2.155.032.083.11.107.182.095-.004.002-.005.003-.008.003-.153.093-.016.297.14.224.407-.185.816-.37 1.23-.55.168.736.615 1.44.946 2.114.497 1.01.984 2.025 1.445 3.05.736 1.643 1.1 3.464 1.935 5.06-.33.113-.63.266-.98.34-.373.082-.763.08-1.14.03-.61-1.317-1.148-2.64-1.918-3.89zm-20.098 3.837c-1.08.19-2.205.148-3.296.246-1.057.09-2.11.226-3.157.373-.93.133-1.86.248-2.788.363 0-.075-.003-.15-.01-.227 1.526-.183 3.04-.43 4.565-.615.78-.095 1.563-.163 2.348-.197.772-.033 1.533-.16 2.29-.296.11-.018.085-.2-.032-.188-.756.083-1.494.25-2.26.283-.842.03-1.68.115-2.513.216-1.48.18-2.944.45-4.416.666-.01-.082-.024-.16-.038-.234.933-.134 1.866-.268 2.8-.38 2.143-.263 4.28-.573 6.425-.81.05-.006.08-.032.094-.067.068.294.082.59-.012.867zm-9.602-.6c.315.01.628-.006.94-.04 0 0 .002.002.002.005-.282.18-.528.398-.722.63-.048-.208-.12-.408-.22-.594zm-3.185 2.05c0-.04 0-.08-.004-.13-.006-.155-.072-.308-.092-.457-.003-.005 0-.01 0-.018 1.104-.108 2.205-.257 3.307-.413.018.183.004.392.027.586-1.08.133-2.158.268-3.237.43zm.38-1.263c.7-.487 1.632-.646 2.47-.806.024 0 .048.003.073.005.126.243.2.505.246.774-1.1.144-2.196.318-3.26.58.05-.23.297-.435.47-.553zm3.843-.64c.04.077.074.153.137.22.16.168.442-.018.38-.216-.022-.075-.07-.14-.116-.21.092-.037.186-.07.282-.107.163-.03.322-.068.486-.105.005.056.02.115.034.17.024.092.058.18.104.267.128.255.564.02.403-.226-.042-.068-.077-.136-.116-.2-.016-.032-.033-.068-.055-.108.134-.03.267-.07.403-.106.062-.02.123-.04.184-.058.01.076.044.15.072.213.057.137.136.298.297.35.083.02.178-.007.237-.063.068-.064.07-.14.06-.222-.007-.033-.025-.066-.045-.092l-.02-.023c-.01-.013-.02-.03-.032-.042-.032-.042-.064-.09-.095-.133-.03-.036-.056-.07-.087-.103.223-.074.447-.145.672-.22.032.098.088.198.134.287.063.124.137.33.3.355.127.02.257-.034.292-.158.042-.174-.122-.317-.222-.44-.05-.052-.098-.114-.152-.165.043-.016.085-.03.127-.044.15-.052.304-.118.46-.18.035.072.085.144.125.21.07.104.14.2.23.287.224.22.58-.125.348-.34-.095-.095-.182-.214-.28-.313.222-.07.448-.112.687-.083.012 0 .024 0 .036-.004.008.007.015.008.015.008.195.067.39.122.588.17.497.11 1.113.144 1.626.003.26.115.525.183.792.185.09.218.18.447.244.682-.014-.01-.035-.014-.06-.013-2.147.236-4.282.546-6.425.81-.914.113-1.84.21-2.762.325.207-.222.443-.41.708-.567zm5.804-2.022c.093-.077.24-.17.328-.28.317.23.653.486 1 .688-.11.014-.226.03-.34.034-.388.02-.772-.04-1.148-.13-.035-.007-.08-.025-.14-.045l.3-.268zm10.777-19.55c.26.2.568.344.89.452-.198.358-.194.742-.05 1.1-.447-.175-.874-.382-1.23-.693.15-.278.285-.56.39-.857zm-3.144-1.722c-.593-.136-1.24-.28-1.887-.343 2.916-.653 5.622-2.92 7.106-5.312-.42.795-.654 1.697-.89 2.54-.14.492-.27.99-.405 1.484-.47.238-.986.393-1.387.742-.065.06-.01.176.076.176.18.345.43.643.708.92-.09.222-.186.444-.294.66-.985-.362-2.002-.638-3.028-.868zm.222 1.357c-.23-.15-.493-.254-.687-.44.32-.13.644-.29.918-.494.238.06.475.123.714.19-.365.135-.683.48-.944.744zm.24.566c-.31.39-.508.807-1.124.664-.578-.13-1.065-.527-1.498-.9.4-.277.773-.59 1.15-.897.138.078.27.166.397.257.076.073.158.133.245.186.08.06.153.12.228.182.185.153.38.384.602.508zM70.9 17.92c.066-.033.13-.067.194-.102l6.82 11.83-.25.172-6.764-11.9zm.555 9.637c-.214-1.194-.642-2.346-1.17-3.447-.39-.816-1.037-1.586-1.192-2.486.473.353 1.165.297 1.735.116.463-.146 1.15-.552 1.23-1.068 1.22 2.147 2.44 4.294 3.663 6.44-1.433.155-2.805.507-4.265.445zm-.713-9.205c-.17-.097-.348-.16-.534-.184.12-.03.244-.07.365-.114l.17.298zm-2.105 2.28c-.306-.36-.64-.684-.997-.996-.378-.33-.827-.765-1.344-.927-.502-.66-.334-1.662-.56-2.443-.196-.707-.203-1.355-.632-1.972.58-.35 1.25-.884 1.637-1.414.215-.29.623-1.17 1.143-.554.322.385.22 1.04.017 1.475-.28.22-.587.404-.835.652-.14.138-.153.344-.17.523-.06.677.007 1.384.033 2.06.003.01.02.013.02.003.09-.425.182-.782.212-1.22.02-.28.002-.563-.002-.847-.007-.406.465-.613.75-.808.54-.38 1.152-.962 1.316-1.604 1.366.568.59 1.898-.08 2.655-.567.647-.855 1.41-.888 2.257v.007c-.004 0-.005.003-.008.003-.045.023-.012.087.035.075.02-.006.04-.012.06-.02h.008c1.01-.3 1.705-1.096 2.598-1.6.312-.178.85-.408.894.13.022.294-.133.602-.267.855-.412.793-.986 1.047-1.82 1.267-.033.01-.063.016-.096.026h-.002c-.04.014-.08.027-.124.045-.043.018-.02.072.012.084.258.082.522.098.778.196.31.122.543.44.71.693.346.526.293 1.04.45 1.6.014.064.056.1.106.115-.19.26-.443.45-.823.595-.397.15-.853.178-1.238.04 0-.03-.016-.063-.05-.08-.36-.198-.583-.566-.843-.87zm-2.07-10.344c.05-.018.1-.037.15-.058l.922 1.597c-.034-.01-.063-.02-.096-.025-.042-.01-.08-.01-.12-.006l-.858-1.508zm-1.362-.952c-.523-.162-1.134-.476-1.71-.472.07-.54-.052-1.125-.107-1.66-.08-.77-.246-1.51-.52-2.242-.014-.042-.04-.067-.072-.082-.01-.018-.027-.033-.052-.042-1.01-.325-1.84-.795-2.138-1.82-.376-1.278.834-1.814 1.918-2.044.846 1.008 1.723 1.99 2.664 2.924.883.875 1.908 1.883 3.05 2.474-.24.28-.184.828-.16 1.13.033.422.096.923.34 1.3-.008.005-.017.005-.023.01-.437.285-.86.572-1.313.833-.222.127-.478.24-.705.374-.247-.363-.757-.556-1.172-.684zm2.47.4l.23-.13 1.638 2.84c-.097-.036-.195-.06-.302-.07-.015-.003-.03 0-.04.01l-1.524-2.65zm-.393.21c.078-.04.158-.083.237-.127l1.558 2.702c-.066.07-.128.14-.188.21l-1.608-2.785zm1.177 3.308c-.04.05-.08.098-.127.144 0 0 0-.004-.002-.004.024-.09.044-.185.05-.28l.08.14zm-.088-.508c-.046-.323-.192-.618-.46-.795L66.88 10.16c.084-.04.166-.085.246-.128l1.645 2.85-.188.23-.21-.364zm1.984.757c-.043-.35-.23-.68-.516-.89l-1.784-3.094.21-.135 3.408 5.95c-.078 0-.16.012-.242.032l-1.076-1.864zm-.11.697c.037-.092.07-.186.09-.286.008-.024.01-.047.014-.07l.908 1.578c-.086.03-.167.07-.245.11l-.766-1.332zm-.247.457c.06-.083.11-.17.157-.26l.7 1.22c-.028.016-.056.032-.08.048-.05.032-.094.063-.142.093l-.636-1.1zm-.302.392c.064-.08.13-.156.19-.234l.6 1.042c-.077.052-.154.11-.225.164l-.565-.973zm.044 1.378c-.415.335-.828.672-1.3.942.218-.675.413-1.247.827-1.808l.024.007.448.858zm-.302-1.08c.028-.034.05-.068.08-.097.017-.02.038-.04.058-.062l.54.94c-.052.043-.107.087-.16.128-.172-.304-.35-.607-.518-.908zm-.858-6.188l8.088 14.134c0 .038.018.075.052.095.56.975 1.12 1.952 1.678 2.93-.017.047.014.09.06.104l1.246 2.175c-.06.028-.118.055-.176.085l-7.29-12.713c-.02-.118-.058-.24-.115-.365-.056-.112-.133-.182-.22-.226l-3.497-6.094c.058-.042.117-.083.174-.126zM78.69 22.55c.455-.268 1.055-.584 1.445-.99.648.317 1.33.552 2.036.712-.217.2-.402.435-.457.72-.008.036-.012.07-.01.103-.016.002-.034.007-.05.02-.484.364-.917.783-1.35 1.2-.394.382-.83.766-1.18 1.19-.178.16-.347.33-.49.507l-.372-.648c.443-.626.822-1.297 1.335-1.87.034-.037-.02-.088-.06-.052-.548.48-1.082.966-1.496 1.54l-.963-1.684c.562-.2 1.097-.447 1.612-.75zm.368-2.59c-.313-.245-.595-.514-.858-.796 1.875.677 4.043.672 5.996.516 2.415-.193 4.93-.607 7.17-1.51.07.177.153.346.256.51.033.055.104.062.157.04.29.07.625 0 .94-.117-1.557 1.823-4.3 2.846-6.686 3.16-2.47.324-5.055-.29-6.976-1.804zm-1.104-1.076C76.602 17.267 76 15.147 76.19 13.09c.126-1.367.7-2.724 1.54-3.92 2.407.753 4.87 1.31 7.347 1.804 2.47.495 4.974 1.018 7.494 1.244-.54.69-.878 1.615-1.118 2.317-.36 1.065-.528 2.326-.167 3.422-1.122.357-2.204.736-3.372.964-1.182.232-2.38.41-3.58.518-2.14.194-4.35.142-6.38-.554zm2.742-12.56c.034-.02.05-.05.062-.078.02-.023.04-.052.06-.08 1.323-.165 2.64.29 3.908.61.704.176 1.4.373 2.07.644.583.232 1.182.446 1.712.77.084.052.18-.05.14-.124.004-.012.004-.022.004-.037-.595-3.09-4.21-4.335-7.222-4.08l.006-.003c.093-.022.19-.043.283-.063l.08-.02c.112-.023.218-.045.325-.065.03-.007.06-.012.09-.017.083-.015.17-.028.255-.04.034-.003.064-.007.097-.013.116-.012.23-.023.346-.03.797-.033 1.634.07 2.43.13.81.06 1.608.21 2.374.445.6.264 1.37.773 1.608 1.698.052-.324-.272-.874-.478-1.273.32.142.633.3.936.476C92.427 6.713 93.77 9.324 94.69 12c-.25-.204-.523-.382-.807-.545-.008-.064-.074-.123-.15-.1-.39.124-.718.364-.998.668-.53-.13-1.094-.165-1.636-.225-.705-.078-1.398-.19-2.092-.317-1.29-.234-2.582-.474-3.868-.73-2.465-.49-4.91-1.05-7.34-1.67.79-1.098 1.797-2.055 2.896-2.757zm.24-2.164c1.47-.145 2.982.022 4.366.528 1.53.56 2.672 1.713 3.11 3.204-.46-.286-1.002-.452-1.498-.664-.685-.29-1.407-.488-2.13-.668-1.267-.318-2.56-.745-3.877-.588.075-.21.112-.443.13-.603.043-.398.073-.837-.102-1.21zm11.09 1.09c.035-.014.06-.034.084-.06l.022.013c.165.077.315.18.456.29.156.128.292.276.397.448.053.09.07.2.107.295-.112.15-.215.306-.322.457-.377-.465-.795-.894-1.243-1.287.165-.05.335-.095.498-.156zm2.66 10.948c-.564 1.255-1.828 1.59-2.88 2.305-.487-1.208-.453-2.396-.11-3.645.356-1.3.998-2.31 2.016-3.196.426.563 1.03.987 1.304 1.652.334.807.013 2.11-.33 2.884zm-6.323 6.533c.216.093.458.25.704.292-.068.2-.163.39-.248.583-.075.172-.276.372-.262.558.003 0 .003.003.003.005-1.26.312-2.624.563-3.92.334.047-.032.088-.082.103-.132.152-.434.27-.873.265-1.33 1.124.14 2.503.306 3.587-.023.032-.01.037-.06 0-.07-.423-.09-.862-.08-1.296-.078.02-.067.025-.14.04-.204.026-.112.064-.224.096-.336.007.004.01.01.018.013.308.12.608.258.91.388zm3.397 6.204c.165.21.216.504.14.755-.094.302-.524.376-.702.096-.196-.31.008-.9.38-1.002l.003-.003c.065.036.124.083.18.154zM90.13 25.5c.437.297.96.69 1.492.855 0 .006-.004.013-.006.02-.882.097-1.87.647-2.422 1.287-.028.04.014.097.062.07.79-.44 1.448-1.06 2.387-1.2.182.643.394 1.277.62 1.904-.27-.01-.546.05-.814.128-.18-.037-.385 0-.59.147-.015.016-.026.034-.03.053-.394.137-.778.306-1.15.488-.05.025-.018.102.033.082l.067-.022c.005.506.155 1.073.477 1.495-.024.022-.045.043-.066.066-.01.02.013.045.03.038.033-.01.06-.022.09-.03.032.037.09.006.09-.033.346-.128.677-.29 1.038-.39.445-.12.9-.193 1.338-.32.11-.033.06-.18-.05-.16-.492.085-.987.21-1.46.36-.284.084-.653.19-.905.38-.19-.477-.425-.9-.467-1.43 0-.005-.004-.007-.01-.013.386-.137.77-.282 1.158-.412.15-.047.3-.08.45-.112l.018.005c-.424.12-.596.684-.456 1.045.136.353.674.405.902.112.306-.388.142-.946-.207-1.21.19-.035.38-.073.564-.126.826 2.262 1.812 4.465 2.198 6.855-.004 0-.007 0-.01.004-.808.404-1.548.918-2.36 1.322-.908.453-1.87.815-2.827 1.16.033-.417-.203-.897-.442-1.203-.31-.403-.755-.655-1.238-.816 1.34-.335 2.66-1.068 3.574-2.027.008-.008-.004-.02-.012-.014-.317.155-.636.306-.95.46.013-.032.02-.065.008-.106-.42-1.585-.74-3.624-1.97-4.868-.015-.018-.034-.024-.054-.032.122-.173.248-.348.376-.524.018-.026-.023-.066-.053-.044-.68.49-1.263 1.25-1.516 2.028-.088-.21-.207-.402-.316-.607-.42-.777-.1-1.274.103-2 .156-.56-1.3-1.204-1.548-1.545-.04-.057-.128-.092-.195-.047-.8.56-1.78.965-2.675 1.38-.113.053-.337.13-.57.228.792-1.243 1.807-2.34 2.626-3.564 1.35.328 2.906.09 4.217-.293.417.46.937.824 1.456 1.18zm-7.624 10.518c.003 0 .006 0 .006-.004l.03.012-.036-.008zm4.722 3.886c-1.057.706-2.08.575-3.097-.056.315.086.64.136.922.167.033.005.046-.038.022-.056-.34-.298-.944-.32-1.36-.518-.213-.1-.41-.28-.53-.475-.113-.186-.1-.402-.184-.593.35.178.747.348 1.105.398.05.007.078-.05.035-.08-.465-.31-.952-.525-1.44-.793-.402-.22-.627-.486-.552-.943.072-.435.428-.448.742-.625.008.008.017.013.028.02.09.052.184.083.278.098.466.204.92.383 1.43.47.006.002.015-.01.005-.014-.318-.17-.633-.334-.964-.468.308-.048.616-.12.924.062.056.03.107-.033.082-.082-.074-.14-.125-.252-.326-.253-.68-.003-1.143.174-1.573-.5-.157-.243-.26-.522-.294-.807-.108-.94.748-.235.864-.136.175.144.363.382.6.452.477.146.797-.296 1.068-.59.622-.665.924.73 1.217 1.012.206.203.452.34.718.438.005.146.194.176.286.093.466.163.902.394 1.237.745.335.353.32.764.452 1.163-.415.778-.925 1.35-1.694 1.87zm-10.644-9.306v.003l-.005-.002c-.186-.183-.467.09-.287.28.103.106.21.227.32.36-.43.3-.852.606-1.286.898.367-1.238.715-2.466 1.156-3.682.295.523.593 1.047.887 1.57-.265.185-.525.377-.786.574zm2.64 1.322c-.454.246-.908.498-1.36.75-.17-.674-.638-1.388-1.118-1.9.438-.296.875-.585 1.32-.863l1.158 2.013zM78.3 29.4c-.078.05-.16.1-.235.154l-6.82-11.824c.08-.05.156-.103.23-.16l6.826 11.83zm.366-.226c-.07.044-.145.086-.217.133L71.614 17.46c.07-.06.138-.122.198-.19l6.853 11.904zm.396-.232c-.082.046-.162.094-.243.142L71.934 17.13c.06-.082.118-.166.164-.255l6.962 12.067zm.154-.086l-7.03-12.178c.04-.103.065-.21.076-.32l7.115 12.412c-.054.03-.107.06-.16.086zm1.195 2.424c-.08.042-.166.087-.248.132l-1.18-2.047c.08-.046.165-.09.245-.138l1.184 2.053zm.31-.166c-.052.03-.102.055-.155.083l-1.18-2.05.157-.083 1.18 2.05zm-.57-2.354c.154-.07.307-.14.46-.205.384.68.69 1.388 1.186 2-.307.16-.614.316-.92.477L79.7 28.98c.066-.03.136-.064.203-.1.097.046.22-.018.248-.12zm2.168 5.47l-1.564-2.71c.05-.025.102-.05.153-.08l1.53 2.668c-.045.034-.085.076-.12.12zm-.107 1.935c.064.015.146.04.235.065-.11.047-.215.122-.3.198-.027.026-.05.05-.072.077l-.253-.443c.127.04.26.07.39.103zm-1.86-4.428c.08-.045.166-.09.25-.132l1.62 2.81c-.05.126-.078.273-.092.415l-1.778-3.093zm-.382.203c.075-.04.15-.078.226-.12l1.954 3.394c.003.012.003.025.007.034.03.115.075.24.138.363-.094-.037-.187-.074-.275-.114l-2.05-3.556zm-1.362-2.358l.224-.128 1.175 2.04c-.075.043-.15.08-.226.12l-1.174-2.032zm1.022 2.116c-.086.045-.17.09-.248.136l-1.163-2.018c.08-.05.16-.096.238-.143l1.173 2.025zm1.764 3.976c-.012-.006-.018-.01-.026-.012.005-.005.006-.01.008-.014l.018.026zm-.16-.628l-1.665-2.886c.08-.046.164-.09.245-.135l1.922 3.33c-.173-.092-.34-.196-.503-.31zm5.662-2.65c-.03-.452.316-.865.232-1.325-.012-.063-.03-.125-.05-.184.05.026.12.025.156-.032.27-.453.554-.89.846-1.325.34.77.766 1.492 1.05 2.29.295.814.54 1.653.79 2.483.02.066.072.096.125.105-.91.44-1.82.87-2.744 1.295.02-.393.028-.783-.05-1.18-.045-.245-.876-1.43-.69-1.552.305-.208.355-.2.334-.573zm-.38-1.878c.208.384.326.628.218 1.075-.037.155-.217 1.08-.325 1.142-.29.16-.145.56-.042.79.168.378.442.683.566 1.085.104.327.073.704.043 1.063-.618-.315-.665-1.054-1.202-1.51-.2-.17-.453-.162-.676-.058-.33.154-.682 1.087-1.206.708-.328-.237-.57-.567-.953-.732-.13-.054-.242-.066-.34-.046l-1.534-2.675c.378-.2.756-.394 1.135-.586.12-.062.115-.207.035-.294-.442-.483-.73-1.045-1.028-1.608 0-.004.003-.005.003-.01.045-.165 1.047-.5 1.22-.577.658-.295 1.324-.592 1.954-.937.087-.048.7-.476.72-.437.07.158.25.29.392.385.162.104 1.052.618.968.807-.12.268-.198.5-.26.794-.127.617.016 1.077.314 1.622zm-4.43-6.83c.007.028.02.054.044.074.525.386 1.267.66 1.933.724-1.017 1.2-1.886 2.523-2.628 3.88-.15.088-.277.183-.348.287-.077-.14-.15-.278-.234-.415-.054-.09-.164-.095-.254-.06-.193.083-.385.172-.576.262-.413-.722-.826-1.444-1.236-2.164.48-.316.895-.76 1.328-1.127.627-.53 1.29-1.003 1.97-1.463zm-.112-.187c-.467.207-.89.478-1.297.776.356-.333.718-.664 1.067-1 .048.097.128.176.23.225zm1.054-1.07c1.026.14 2.078.133 3.114-.012.327-.045.67-.108 1.023-.188-.05.082-.083.174-.12.265-.033.1-.105.25-.1.372h-.014c-.658-.018-1.31-.028-1.968-.02-.028 0-.05.01-.067.03-.09-.034-.21-.008-.235.107-.088.41-.204.816-.348 1.21-.028.032-.053.06-.08.094-.01-.032-.034-.06-.064-.075-.53-.303-1.168-.323-1.708-.632.17-.384.353-.785.566-1.15zm-.832.957c-.13-.043-.253-.078-.3-.22-.035-.104.01-.228.043-.326.076-.195.2-.384.34-.545.212.045.426.084.64.115-.26.315-.52.625-.723.977zm-8.02 11.87c.143-.247.266-.506.378-.77l.27.252c.457.416.794.917 1.206 1.362-.73-.16-2.062-.484-1.855-.845zm2.18 1.26c.036.01.07.005.098-.007.632.536 1.034.868 1.26 1.707.002.01.005.017.006.027-.73.06-1.266.11-1.88-.357-.56-.426-.643-1.008-.648-1.625.384.11.785.184 1.163.256zM87.42 43.27c.177.488.367.975.542 1.462.133.377.153.755.325 1.116-1.267.372-2.53.985-3.644 1.65.018-.026.028-.067.012-.115-.176-.6-.63-1.04-1.002-1.543-.492-.658-.764-1.44-1.274-2.1-.464-.6-1.12-1.045-1.67-1.564-.598-.573-.707-1.48-1.258-2.102-.62-.7-1.264-1.22-1.508-2.137-.16-.6-.406-1.006-.91-1.41-.61-.486-1-1.062-1.513-1.633-.52-.577-1.145-1.1-1.703-1.658.55-.203 1.087-.384 1.592-.687.49-.303.974-.666 1.432-1.02.334.453.622.974.677 1.44.016.14.16.24.302.162.53-.3 1.057-.595 1.59-.89l1.507 2.616c-.04.007-.073.03-.086.07-.162.476.172.795.598.992.042.02.087.04.13.053l.405.7c-.117.236-.125.522-.08.767.067.35.5.59.787.756l.212.118c-.004 0-.004 0-.005.003-.236.375.055.925.393 1.16.186.13.415.234.66.312-.04.025-.063.077-.032.118.77.912 1.87.988 2.88.61-.023.942.32 1.87.64 2.75zm3.882 15.826c-.09.004-.187.018-.28.035-.102-.128-.205-.256-.308-.382.012-.055 0-.11-.048-.157-.04-.037-.098-.06-.16-.07-.152-.17-.315-.33-.488-.475.004-.002.006-.005.01-.01.428.352.854.703 1.274 1.06zm.378.532c.06-.017.107-.05.14-.094 1.334 1.16 2.6 2.394 3.615 3.818-.483-.065-.907-.24-1.337-.55-.082-.06-.16-.12-.236-.183.168-.026.32-.07.438-.17.07-.057.063-.148.027-.22-.175-.347-.673-.298-1.086-.195-.088-.094-.174-.19-.26-.288.008 0 .02 0 .03-.004.35-.068.264-.637-.092-.59l-.378.06-.078-.095c-.115-.144-.228-.295-.337-.447.178-.045.325-.114.376-.23.036-.073.058-.167 0-.237-.005-.007-.013-.014-.02-.02-.064-.08-.157-.16-.272-.146-.16.02-.317.047-.477.082-.098-.147-.198-.29-.298-.433.083-.02.166-.038.248-.06zm0 2.366c.34-.094.682-.14 1.026-.197.084.1.175.205.274.31-.057.02-.11.037-.153.05-.385.13-.74.324-1.07.555-.083-.226-.184-.44-.298-.655.072-.022.147-.042.22-.063zm-.41-1.186c.14-.035.375-.053.61-.088.127.182.264.365.402.546-.345.07-.682.16-1.01.275-.03.01-.063.02-.096.033-.03-.043-.058-.088-.086-.132-.1-.154-.202-.31-.308-.464.155-.064.313-.12.487-.168zm-1.074-.848c.327-.092.66-.155.996-.22l.3.43c-.283.07-.556.156-.823.264-.065.023-.13.05-.193.08-.117-.177-.227-.355-.33-.538.015-.007.032-.013.05-.016zm-.5-1.32l-.154.042c-.083-.158-.177-.308-.29-.448.22-.02.437-.07.637-.14.128.138.255.276.372.42-.207.022-.434.095-.566.127zm.074.424c.174-.04.354-.077.535-.107.084-.013.184-.02.27-.058.072.095.147.19.22.288-.316.087-.623.22-.878.335-.066-.148-.127-.297-.19-.45l.043-.01zm5.87 4.586c.022.03.04.06.057.09-.267-.098-.636-.086-.882-.086-.5 0-1.004.104-1.483.24-.467.127-.92.323-1.33.574-.07.044-.163.097-.258.162.136-.44.25-.878.167-1.356 0-.01-.003-.02-.006-.03.343-.216.707-.392 1.097-.52.15-.052.33-.064.51-.076.61.566 1.353 1.046 2.13 1.002zm.233.367c.173.282.33.568.464.865.126.43.183.853.047 1.313-.222.747-1 1.022-1.752 1.026-1.316.01-2.32-1.01-2.996-1.957-.02-.028-.038-.055-.06-.083l.003-.002c.015-.056.033-.113.047-.167.134-.112.26-.244.394-.33.39-.24.832-.4 1.272-.53.463-.133.938-.213 1.42-.24.224-.01.453 0 .675.033.16.024.308.09.468.08.008 0 .01-.002.018-.006zm.244-.493c.03-.06-.004-.142-.092-.14-1.394-2.18-3.49-4.03-5.582-5.58.034-.03.066-.054.097-.082.03-.026.046-.058.053-.09.047-.04.073-.103.047-.173-.69-1.82-1.272-3.67-2.07-5.454-.384-.868-.804-1.724-1.23-2.577-.37-.746-.685-1.625-1.22-2.29.81-.355 1.62-.705 2.424-1.07.078-.037.088-.115.058-.175.03-.045.04-.1.012-.16-.18-.35-.205-.727-.308-1.095-.14-.497-.35-.983-.513-1.47-.3-.898-.522-1.818-.84-2.705-.002-.006-.005-.01-.01-.016.952-.408 1.8-1.208 2.17-2.065.03.004.066.004.105-.006 1.855-.54 4.184-1.262 5.46-2.732.032-.037.037-.08.032-.117.178-.626.005-1.32-.123-1.947-.177-.873-.452-1.733-.747-2.58-.54-1.56-1.134-3.154-1.92-4.62.034-.034.042-.093 0-.138-.374-.393-.966-.63-1.43-.93-.534-.34-1.02-.735-1.528-1.102.1-.11.155-.278.204-.395.108-.26.13-.535.16-.808.068-.037.108-.117.056-.193-.164-.255-.522-.337-.803-.446-.267-.108-.54-.2-.82-.286 2.233-.606 4.624-1.847 5.536-3.746.06-.03.115-.062.172-.09.822-.46 1.46-1.16 1.838-1.983.356-.787.567-2.014.352-2.856-.064-.252-.17-.476-.3-.683.013-.023.023-.048.03-.075v-.004c.005-.027.007-.056.003-.087-.028-.178-.065-.36-.105-.54-.002-.025-.01-.05-.015-.075-.036-.184-.082-.37-.13-.554v-.006c-.407-1.534-1.115-3.05-2.1-4.354.17-.185.307-.44.386-.676.068-.242.19-.387.03-.617.03-.022-.514-.708-.455-.618.035.058-.123-.125-.296-.012-.19-.117-.406-.207-.618-.233-.033-.004-.063 0-.09.008-.022-.002-.052.002-.08.012-.155.056-.31.13-.44.23-.05.04-.086.085-.125.13-.355-.294-.732-.567-1.13-.81-.326-.194-.664-.364-1.017-.51l-.008.004c-1.034-.437-2.165-.673-3.29-.787l-.038-.01c-.093-.008-.186-.02-.28-.026-.835-.067-1.654-.02-2.48.112-.818.124-1.765.225-2.46.688-.016.01-.025.02-.03.03-.005.005-.007.008-.008.012-.005.01-.008.017-.01.025.002.004 0 .008 0 .012 0 .01.002.018.004.03v.005c.005.012.012.024.018.032-.028.028-.024.08.005.107.052.32.06.66.045.98-.012.204-.05.405-.093.604-.027.126-.09.24-.135.36-2.764 1.48-4.638 3.842-5.03 6.887-.357 2.785.843 5.665 3.075 7.506.41.343.853.634 1.313.885-.377.237-.733.548-1.098.778-.546.344-1.13.688-1.74.934L68.897 9c.005-.03.003-.066-.013-.102-.356-.716-.573-1.732-.288-2.498.066-.064.087-.17 0-.248-.99-.895-2.12-1.635-3.095-2.558-.97-.918-1.867-1.9-2.755-2.888-.01-.013-.026-.022-.042-.03C62.67.643 62.63.62 62.57.62c-1.33.03-2.52.87-2.415 2.197.094 1.12 1.22 2.19 2.42 2.185 0 .013 0 .025.005.04.193.712.296 1.44.374 2.17.06.58-.008 1.235.203 1.786 0 .007.006.01.007.014 0 .065.04.135.114.157.99.276 2.204.476 2.93 1.204l.896 1.58c-.14.12-.253.29-.337.41-.494.718-1.205 1.213-1.812 1.836-.033.038-.02.088.012.116.326.98.542 2.11.623 3.132.04.527-.02.92.264 1.274-.002.03.013.06.04.08.038.023.073.048.11.07.052.05.11.095.182.142.02.014.04.02.06.022.673.456 1.3.918 1.856 1.52.23.247.447.6.73.846-.002.006-.005.01-.005.015-.097.723.455 1.51.782 2.13.697 1.31 1.162 2.72 1.64 4.108l.015.03c-.015.074.015.158.113.172 1.476.212 3.06-.13 4.5-.46.09.156.176.312.268.467-2.074 2.717-4.27 5.055-7.908 5.74-.04.01-.068.04-.078.07l-.067.005c-.095.008-.12.136-.02.158.92.218 1.883.29 2.81.49.098.023.193.048.29.07-.283.154-.56.31-.872.423-.016.005-.025.013-.036.023-.096-.052-.196-.1-.296-.142-.05-.017-.09.02-.083.057-.434.282-.826.608-1.256.89-.044.03-.057.09-.015.124.522.458 1.07.887 1.777 1.048.634.145.888-.404 1.22-.797.035-.007.052-.047.04-.08 0-.036-.017-.067-.05-.086-.073-.105-.178-.203-.294-.295.16-.156.314-.31.484-.455.18-.155.394-.25.58-.396.498.144.99.3 1.482.46-.023.04-.044.085-.067.128-.038.065-.02.128.026.18.038.042.077.084.114.122-.004.005-.007.006-.008.012-.15.326-.316.642-.5.95 0 .004-.005.006-.006.01-3.267 5.997-6.682 11.968-10.228 17.802-.012.017-.015.032-.018.046-.12-.002-.194.157-.07.227.12.07.248.153.378.243-.09.073-.17.173-.243.238-.13.123-.26.244-.386.367-.132-.047-.264-.082-.34-.045-.014.008-.024.017-.038.024-.62-.037-1.413.41-1.92.576-.954.32-1.912.58-2.9.747-.055-.014-.115-.006-.167.022-.004 0-.004.004-.006.007-.373.058-.748.104-1.125.134-.015-.018-.028-.036-.04-.055-.04-.045-.092-.048-.134-.03-.017-.002-.035-.002-.053.003-1.013.165-1.956.217-2.824.79-.672.443-.594 1.13-.41 1.794.01.022.023.045.04.06.033.057.09.1.164.1 1.112-.003 2.21-.258 3.305-.395 1.01-.13 2.005-.245 3.01-.417 1.233-.208 2.49-.333 3.74-.43 1.05-.085 2.122.033 3.15-.232.107-.03.15-.104.147-.182.327-.445-.052-1.408-.282-1.897.027-.023.046-.05.06-.083.558-1.462 1.555-2.83 2.358-4.18.808-1.368 1.683-2.693 2.63-3.97.8-1.076 1.684-2.088 2.58-3.09.59-.66 1.297-1.457 2.166-1.85.02 0 .042-.007.068-.016 1.138-.526 2.487.85 3.158 1.535 1.29 1.312 2.325 2.863 3.31 4.39.877 1.35 1.688 2.74 2.49 4.133.258.443.51.89.783 1.326.736 1.176 1.255 2.432 1.834 3.68-.01.066.013.127.078.166l.06.132c-.012.01-.02.022-.028.038-.406 1.09.283 2.17.822 3.104.74 1.28 1.01 2.626 1.473 4 .696 2.064 2.88 3.582 5.16 3.786 2.656.23 2.24-3.145 1.547-4.568-.18-.368-.382-.725-.6-1.078zM64.24 1.28c.016-.08.192-.013.23 0 .235.074.46.342.542.55.02.05.028.106.005.154-.038.077-.12.016-.17-.013-.107-.067-.186-.16-.294-.222-.034-.018-.066-.01-.082.012-.072-.084-.133-.182-.178-.265-.032-.063-.065-.145-.053-.216zm.372.745c.196.177.495.29.6-.024.1-.314-.345-.736-.607-.864-.272-.134-.608-.078-.547.263.045.257.283.542.554.625zm1.135.614c.153-.017.368.167.466.262.06.057.11.118.156.182.025.033.153.224.04.17-.144-.066-.235-.208-.38-.277-.054-.026-.105.01-.112.056-.047-.028-.086-.065-.123-.1-.044-.044-.202-.276-.048-.294zm.254.546c.142.17.415.386.58.23.208-.194-.127-.548-.288-.672-.172-.14-.603-.45-.754-.128-.113.24.213.55.463.57zm26.835 12.87c-.007-.09-.15-.09-.15 0 .004.342.093.68.29.97.043.063.162.02.13-.052-.122-.302-.25-.594-.27-.92zm1.332-2.28c.29-.245.368.02.39.273.037.513-.076 1.053-.195 1.553-.043.187-.11.35-.206.52-.07.126-.153.245-.246.358-.18.218-.256.1-.325-.12-.015-.05-.063-.06-.102-.047-.164-.527.08-1.284.226-1.727.098-.29.21-.604.457-.81zm-.836 1.84c-.017.24-.027.557.103.784.002.242.113.526.416.395.294-.128.53-.602.63-.872.234-.613.35-1.43.25-2.073-.03-.18-.143-.403-.374-.37-.36.053-.568.42-.695.702-.2.45-.296.95-.33 1.434zM67.578 3.91c.168.07.336.174.446.308.05.057.12.15.105.227-.018.1-.245-.01-.28-.034-.196-.12-.307-.332-.458-.49-.014-.013-.03-.022-.047-.023.037-.06.192-.003.234.014zm-.202.352c.162.23.408.448.67.427.164-.013.292-.11.293-.265.005-.15-.12-.29-.218-.394-.16-.164-.59-.444-.834-.316-.248.13-.115.425.09.548z" fill="#1A1918"/></g></svg>