<svg width="185" height="47" viewBox="0 0 185 47" xmlns="http://www.w3.org/2000/svg"><title>UXDE horiz + T&amp;C_VT-1</title><g fill="none" fill-rule="evenodd"><path d="M63.355 30.927v3.11c0 .932.358 1.405.992 1.405.65 0 1.007-.45 1.007-1.404v-3.11h1.235v3.03c0 1.67-.858 2.463-2.287 2.463-1.38 0-2.194-.75-2.194-2.475V30.93h1.243m7.19 5.404l-.495-.98c-.206-.376-.336-.657-.49-.97h-.017c-.112.313-.25.594-.422.97l-.453.98H67.25l1.585-2.736-1.527-2.67h1.423l.48.986c.16.33.284.594.415.9h.015c.13-.346.236-.587.374-.9l.463-.986h1.412l-1.545 2.638 1.623 2.768h-1.43m6.313-2.263c0-.062-.006-.15-.014-.214-.073-.33-.342-.602-.724-.602-.56 0-.853.498-.853 1.116 0 .664.333 1.08.846 1.08.355 0 .64-.24.713-.584.023-.088.03-.177.03-.28v-.514zm1.237-3.43v4.523c0 .444.017.91.033 1.174h-1.097l-.056-.578h-.015c-.253.44-.732.665-1.244.665-.94 0-1.695-.793-1.695-2.013-.01-1.323.828-2.085 1.78-2.085.486 0 .868.17 1.047.44h.016V30.64h1.236zm3.395 3.288c0-.297-.13-.794-.698-.794-.52 0-.732.465-.765.794h1.462zm-1.454.834c.04.507.544.747 1.12.747.424 0 .766-.057 1.1-.16l.162.825c-.407.16-.903.25-1.438.25-1.35 0-2.12-.78-2.12-2.007 0-.994.624-2.093 2.005-2.093 1.283 0 1.77.986 1.77 1.957 0 .207-.023.39-.04.48h-2.56zm3.33.507c.228.135.7.295 1.065.295.374 0 .528-.128.528-.328s-.12-.297-.583-.45c-.823-.272-1.14-.713-1.13-1.17 0-.74.633-1.292 1.616-1.292.463 0 .877.105 1.12.225l-.218.842c-.18-.098-.52-.227-.864-.227-.3 0-.47.12-.47.32 0 .186.155.282.64.45.758.257 1.075.634 1.083 1.212 0 .73-.586 1.275-1.724 1.275-.52 0-.984-.12-1.284-.28l.22-.874m3.534-2.856h1.235v3.923H86.89V32.41zm1.275-1.09c0 .337-.26.61-.666.61-.39 0-.65-.273-.643-.61-.01-.353.252-.618.65-.618s.65.265.657.617zm3.477 2.686c0-.08-.01-.16-.024-.224-.09-.32-.326-.537-.667-.537-.446 0-.81.4-.81 1.115 0 .585.29 1.042.81 1.042.32 0 .57-.21.65-.497.033-.088.04-.217.04-.32v-.58zm1.235 1.757c0 .754-.154 1.372-.6 1.764-.44.37-1.033.48-1.618.48-.52 0-1.073-.106-1.43-.307l.242-.923c.253.145.69.297 1.155.297.584 0 1.03-.312 1.03-1.034v-.257h-.015c-.235.33-.617.514-1.073.514-.983 0-1.68-.784-1.68-1.916 0-1.26.826-2.06 1.8-2.06.546 0 .887.232 1.09.552h.016l.04-.465h1.075c-.016.25-.032.58-.032 1.166v2.19zm.99-2.1c0-.49-.016-.908-.033-1.253h1.07l.058.538h.023c.164-.25.57-.626 1.228-.626.813 0 1.423.53 1.423 1.684v2.327H96.4V34.16c0-.507-.177-.852-.624-.852-.34 0-.544.233-.625.458-.032.08-.05.192-.05.305v2.266h-1.23v-2.67m7.783-2.32v1.066h.885v.9h-.885v1.42c0 .473.113.69.487.69.17 0 .244-.01.366-.033l.008.92c-.163.064-.455.113-.804.113-.4 0-.732-.142-.927-.343-.228-.234-.34-.61-.34-1.164V33.31h-.53v-.9h.53v-.737l1.21-.33m1.6 2.36c0-.58-.017-.956-.03-1.293h1.062l.04.722h.033c.203-.57.69-.81 1.072-.81.114 0 .17 0 .26.016v1.155c-.09-.024-.195-.04-.333-.04-.456 0-.766.24-.847.618-.016.08-.024.18-.024.276v1.99h-1.237v-2.63m5.11.776c-.65-.01-1.154.145-1.154.618 0 .313.213.465.49.465.31 0 .56-.2.642-.448.015-.065.024-.137.024-.21v-.424zm1.202.9c0 .376.017.737.057.954h-1.114l-.07-.394h-.026c-.26.31-.665.48-1.136.48-.804 0-1.284-.578-1.284-1.204 0-1.018.926-1.507 2.332-1.5v-.055c0-.21-.114-.503-.723-.503-.408 0-.838.136-1.098.296l-.227-.786c.275-.152.82-.345 1.543-.345 1.324 0 1.746.77 1.746 1.694v1.362zm.973-2.97h1.236v3.924h-1.234V32.41zm1.276-1.09c0 .338-.26.61-.664.61-.39 0-.65-.272-.64-.61-.01-.352.25-.617.65-.617s.65.265.657.617zm.95 2.343c0-.49-.015-.907-.03-1.252h1.07l.06.54h.023c.163-.25.57-.627 1.228-.627.813 0 1.42.53 1.42 1.684v2.327h-1.233V34.16c0-.507-.18-.852-.625-.852-.342 0-.545.233-.626.458-.03.08-.047.192-.047.305v2.266h-1.236v-2.67m4.76-1.254h1.234v3.924h-1.236V32.41zm1.275-1.09c0 .338-.26.61-.667.61-.39 0-.65-.272-.642-.61-.01-.352.25-.617.65-.617.398 0 .65.265.66.617zm.95 2.343c0-.49-.017-.907-.034-1.252h1.073l.055.54h.023c.16-.25.57-.627 1.226-.627.813 0 1.423.53 1.423 1.684v2.327h-1.236V34.16c0-.507-.18-.852-.624-.852-.343 0-.546.233-.628.458-.03.08-.05.192-.05.305v2.266h-1.233v-2.67m7.286.342c0-.08-.007-.16-.024-.224-.087-.32-.324-.537-.665-.537-.447 0-.813.4-.813 1.115 0 .586.293 1.043.813 1.043.316 0 .568-.21.65-.497.032-.088.04-.217.04-.32v-.58zm1.236 1.757c0 .754-.154 1.372-.6 1.764-.44.37-1.03.48-1.617.48-.52 0-1.074-.105-1.43-.306l.242-.923c.252.147.69.3 1.154.3.585 0 1.032-.313 1.032-1.035v-.257h-.016c-.236.33-.617.514-1.073.514-.984 0-1.683-.783-1.683-1.915 0-1.26.83-2.06 1.805-2.06.542 0 .884.232 1.087.552h.015l.04-.466h1.073c-.015.25-.03.58-.03 1.164v2.19zm4.744-1.283c-.65-.01-1.154.145-1.154.618 0 .313.21.465.487.465.31 0 .563-.2.644-.448.018-.065.026-.137.026-.21v-.424zm1.202.9c0 .376.017.737.057.954h-1.114l-.073-.394h-.023c-.26.31-.666.48-1.137.48-.806 0-1.285-.578-1.285-1.204 0-1.018.927-1.507 2.333-1.5v-.055c0-.21-.114-.503-.723-.503-.405 0-.836.136-1.096.296l-.226-.786c.276-.152.82-.345 1.543-.345 1.325 0 1.747.77 1.747 1.694v1.362zm.974-1.717c0-.49-.016-.907-.032-1.252h1.072l.057.54h.026c.162-.25.57-.627 1.227-.627.813 0 1.42.53 1.42 1.684v2.327h-1.233V34.16c0-.507-.18-.852-.626-.852-.34 0-.543.233-.625.458-.032.08-.05.192-.05.305v2.266h-1.234v-2.67m7.376.406c0-.063-.008-.15-.016-.215-.072-.33-.34-.602-.722-.602-.56 0-.85.498-.85 1.116 0 .665.332 1.08.844 1.08.357 0 .642-.24.715-.583.023-.088.03-.177.03-.28v-.514zm1.236-3.43v4.522c0 .444.016.91.032 1.174h-1.097l-.055-.578h-.015c-.254.44-.733.666-1.245.666-.942 0-1.698-.793-1.698-2.013-.008-1.323.828-2.085 1.78-2.085.486 0 .868.17 1.047.44h.017V30.64h1.236zm5.612 5.597c-.22.096-.634.184-1.105.184-1.284 0-2.105-.776-2.105-2.012 0-1.147.794-2.085 2.273-2.085.324 0 .682.056.94.152l-.194.906c-.144-.063-.364-.12-.69-.12-.65 0-1.072.458-1.064 1.1 0 .72.488 1.1 1.09 1.1.292 0 .52-.05.706-.13l.146.906m1.64-1.87c0 .673.285 1.18.812 1.18.48 0 .79-.475.79-1.18 0-.586-.23-1.18-.79-1.18-.592 0-.812.602-.812 1.18zm2.876-.04c0 1.435-1.03 2.093-2.096 2.093-1.162 0-2.055-.752-2.055-2.02 0-1.267.843-2.077 2.12-2.077 1.22 0 2.03.827 2.03 2.005zm.763-.666c0-.49-.015-.907-.03-1.252h1.072l.057.538h.023c.163-.25.57-.626 1.227-.626.814 0 1.423.53 1.423 1.684v2.327h-1.235V34.16c0-.507-.18-.852-.626-.852-.34 0-.544.233-.625.458-.03.08-.047.192-.047.305v2.266h-1.235v-2.67m4.752 1.602c.226.136.698.296 1.063.296.374 0 .528-.128.528-.328s-.12-.297-.583-.45c-.82-.272-1.137-.713-1.13-1.17 0-.74.634-1.292 1.618-1.292.463 0 .878.105 1.12.225l-.218.84c-.18-.097-.52-.226-.862-.226-.3 0-.47.12-.47.32 0 .186.154.282.64.45.757.257 1.074.634 1.082 1.212 0 .73-.585 1.275-1.723 1.275-.52 0-.983-.12-1.283-.28l.22-.873m7.276-.193c0 .514.016.93.032 1.26h-1.073l-.057-.554h-.023c-.154.24-.527.64-1.243.64-.804 0-1.397-.5-1.397-1.71v-2.3h1.243v2.11c0 .57.186.914.617.914.34 0 .536-.232.617-.425.032-.076.04-.17.04-.268V32.41h1.244v2.663m.99-4.435h1.235v5.695h-1.234v-5.695zm3.614.705v1.067h.886v.898h-.886v1.42c0 .474.114.69.488.69.17 0 .244-.008.366-.032l.008.922c-.163.064-.455.113-.805.113-.4 0-.734-.14-.93-.34-.226-.234-.34-.61-.34-1.164V33.31h-.53v-.9h.53v-.737l1.21-.33m1.6 1.067h1.236v3.923h-1.235V32.41zm1.277-1.09c0 .337-.26.61-.666.61-.39 0-.65-.273-.64-.61-.01-.353.25-.618.65-.618s.65.265.657.617zm.95 2.342c0-.49-.016-.907-.032-1.252h1.073l.054.538h.024c.16-.25.57-.626 1.226-.626.812 0 1.42.53 1.42 1.684v2.327h-1.234V34.16c0-.507-.18-.852-.626-.852-.342 0-.544.233-.626.458-.03.08-.05.192-.05.305v2.266h-1.233v-2.67m7.29.342c0-.08-.01-.16-.025-.224-.088-.32-.324-.537-.665-.537-.447 0-.813.4-.813 1.115 0 .586.293 1.043.813 1.043.317 0 .568-.21.65-.497.032-.088.04-.217.04-.32v-.58zm1.234 1.757c0 .754-.154 1.372-.6 1.764-.44.37-1.033.48-1.618.48-.52 0-1.072-.105-1.43-.306l.243-.923c.252.147.69.3 1.154.3.584 0 1.032-.313 1.032-1.035v-.257h-.016c-.236.33-.618.514-1.073.514-.982 0-1.68-.783-1.68-1.915 0-1.26.83-2.06 1.804-2.06.546 0 .887.232 1.09.552h.017l.04-.466h1.074c-.016.25-.032.58-.032 1.164v2.19zm-63.14 7h.44c.707 0 1.22-.33 1.22-.882 0-.44-.35-.632-.87-.632-.22 0-.406.017-.504.04l-.285 1.477zm-.486 2.463c.155.024.325.024.504.024.706 0 1.357-.28 1.357-1.002 0-.577-.497-.794-1.073-.794h-.447l-.34 1.773zm-.04-4.588c.365-.08.82-.13 1.316-.13.568 0 .983.097 1.316.33.317.192.528.512.528.922 0 .683-.536 1.148-1.137 1.31v.023c.513.152.878.57.878 1.187 0 .57-.31.993-.707 1.266-.454.32-1.104.45-1.933.45-.55 0-1.006-.04-1.267-.09l1.01-5.268zm6.83 2.084c-.096-.024-.22-.04-.39-.04-.876 0-1.55.97-1.55 1.86 0 .41.154.747.57.747.437 0 .974-.544 1.16-1.54l.21-1.025zm-.39 3.232c.01-.232.043-.545.075-.882h-.026c-.39.722-.91.97-1.413.97-.706 0-1.17-.545-1.17-1.33 0-1.332.943-2.752 2.787-2.752.433 0 .896.08 1.196.18l-.407 2.035c-.114.586-.18 1.316-.163 1.78h-.877zm2.29-.875c.205.115.595.268.95.268.384-.008.61-.225.61-.482 0-.248-.13-.4-.52-.6-.453-.242-.78-.57-.78-1.02 0-.754.668-1.283 1.6-1.283.417 0 .758.098.937.2l-.243.676c-.146-.08-.414-.177-.74-.177-.357 0-.6.19-.6.456 0 .215.178.37.51.536.432.233.822.554.822 1.05 0 .86-.733 1.34-1.684 1.34-.463-.007-.893-.136-1.105-.288l.244-.674m6.24-2.02c0-.25-.204-.4-.505-.4-.59 0-.98.52-1.094.993.975.017 1.6-.12 1.6-.585v-.007zm.397 2.67c-.39.2-.918.313-1.397.313-1.098 0-1.625-.665-1.625-1.62 0-1.18.88-2.462 2.244-2.462.78 0 1.274.45 1.274 1.1 0 1.003-1.066 1.324-2.594 1.29-.016.138.017.403.106.555.155.265.44.4.813.4.446 0 .803-.112 1.09-.256l.087.68zm4.232-2.895c-.115-.08-.31-.153-.546-.153-.813 0-1.414.89-1.414 1.765 0 .473.187.843.634.843.424 0 .928-.458 1.09-1.268l.236-1.187zm1.43-2.575l-.83 4.31c-.09.45-.154.96-.18 1.386h-.87l.083-.696h-.018c-.358.536-.845.784-1.357.784-.707 0-1.203-.57-1.203-1.45 0-1.373 1.016-2.632 2.47-2.632.204 0 .44.04.61.113l.35-1.813h.942zm3.654 1.228c-.286 0-.48-.21-.48-.498 0-.337.26-.57.57-.57.29 0 .5.21.5.506-.006.346-.266.563-.584.563h-.008zm-1.383 4.467l.757-3.906h.942l-.756 3.905h-.94zm2.43 0l.51-2.696c.098-.465.156-.874.204-1.21h.837l-.08.705h.017c.365-.53.87-.796 1.42-.796.562 0 1.01.338 1.01 1.077 0 .177-.033.45-.074.65l-.44 2.27h-.943l.422-2.206c.022-.145.047-.313.047-.465 0-.323-.123-.563-.497-.563-.43 0-.982.513-1.152 1.428l-.34 1.806h-.943m7.946 0l-.674-5.405h.965l.317 2.975c.066.56.1.995.123 1.46h.016c.178-.44.39-.937.674-1.5l1.462-2.934h1.048l-2.852 5.405h-1.08m6.36-2.893c0-.25-.202-.4-.503-.4-.594 0-.984.52-1.097.993.976.016 1.6-.12 1.6-.586v-.008zm.4 2.67c-.39.2-.92.313-1.4.313-1.096 0-1.623-.666-1.623-1.62 0-1.18.877-2.463 2.24-2.463.78 0 1.276.45 1.276 1.1 0 1.003-1.065 1.324-2.592 1.29-.017.138.016.403.105.555.152.266.436.402.81.402.447 0 .804-.113 1.09-.257l.09.68zm1.193.225l.463-2.405c.106-.555.155-1.15.203-1.5h.82c-.023.263-.05.535-.09.824h.026c.268-.53.7-.914 1.243-.914.062 0 .135.01.2.017l-.187.915c-.048-.01-.113-.017-.18-.017-.673 0-1.103.675-1.258 1.51l-.3 1.57h-.943m3.226 0l.505-2.694c.09-.465.154-.874.195-1.21h.82l-.08.68h.008c.374-.52.86-.77 1.373-.77.616 0 .9.386.933.803.35-.538.854-.795 1.398-.803.545 0 .968.347.968 1.045 0 .17-.033.458-.066.667l-.437 2.285h-.918l.414-2.18c.024-.162.056-.338.056-.5 0-.327-.14-.552-.488-.552-.43 0-.91.538-1.064 1.364l-.357 1.87h-.91l.422-2.215c.03-.16.046-.31.046-.456 0-.298-.09-.562-.472-.562-.438 0-.942.585-1.088 1.38l-.34 1.852h-.92m8.15-1.55c0 .538.293.915.772.915.704 0 1.175-.962 1.175-1.74 0-.402-.178-.9-.755-.9-.755 0-1.194.995-1.194 1.725zm2.933-.826c0 1.325-.944 2.464-2.293 2.464-1 0-1.616-.68-1.616-1.612 0-1.322.935-2.47 2.284-2.47 1.064 0 1.625.755 1.625 1.62zm.81 2.375l.512-2.695c.098-.465.155-.874.204-1.21h.837l-.08.705h.02c.363-.53.87-.794 1.42-.794.56 0 1.01.338 1.01 1.077 0 .176-.035.45-.076.65l-.44 2.27h-.94l.42-2.207c.025-.146.05-.314.05-.466 0-.322-.122-.562-.495-.562-.433 0-.986.513-1.157 1.428l-.34 1.806h-.943m6.89-4.91l-.195 1.004h.893l-.145.72h-.886l-.31 1.57c-.032.178-.065.387-.065.546 0 .217.097.354.35.354.113 0 .227-.01.324-.024l-.09.737c-.14.05-.39.08-.62.08-.65 0-.94-.36-.94-.81 0-.216.02-.433.09-.72l.34-1.742h-.54l.14-.72h.537l.137-.72.983-.28" fill="#43769D"/><path d="M63.952 21.107c.22.03.488.058.81.08.32.024.66.035 1.02.035.922 0 1.763-.103 2.52-.31.76-.21 1.412-.56 1.96-1.055.547-.494.97-1.162 1.267-2.003.292-.84.44-1.895.44-3.16 0-1.158-.15-2.146-.444-2.965-.3-.82-.717-1.49-1.257-2.006-.54-.518-1.184-.892-1.935-1.124-.75-.23-1.58-.346-2.486-.346-.298 0-.62.004-.975.012-.35.007-.66.034-.926.08v12.76zM61.56 6.404c.53-.062 1.173-.12 1.923-.174.75-.054 1.485-.08 2.205-.08 2.955 0 5.164.74 6.626 2.222 1.462 1.482 2.193 3.612 2.193 6.39 0 2.903-.747 5.056-2.24 6.46-1.494 1.406-3.718 2.108-6.673 2.108-.735 0-1.462-.027-2.182-.08-.72-.055-1.336-.12-1.852-.198V6.404zm23.877 9.563c0-.432-.06-.846-.176-1.24-.113-.393-.29-.736-.51-1.03-.23-.293-.517-.528-.87-.706-.35-.173-.77-.262-1.255-.262-.953 0-1.684.286-2.193.857-.51.57-.817 1.366-.926 2.385h5.934zM79.48 17.68c.03 1.297.37 2.246 1.02 2.848.648.602 1.607.904 2.873.904 1.11 0 2.166-.194 3.167-.58.125.232.226.514.304.846.08.33.126.66.14.983-.515.22-1.082.38-1.7.49-.617.108-1.3.16-2.05.16-1.096 0-2.034-.15-2.816-.45-.782-.3-1.427-.724-1.935-1.272s-.88-1.197-1.114-1.945c-.24-.75-.356-1.57-.356-2.465 0-.88.113-1.702.34-2.466.226-.764.575-1.43 1.044-1.99.47-.565 1.06-1.012 1.77-1.345.71-.33 1.55-.497 2.52-.497.83 0 1.558.14 2.183.417.626.277 1.15.66 1.573 1.146.422.486.743 1.065.96 1.736.22.67.33 1.4.33 2.19 0 .214-.008.44-.024.68-.015.24-.03.445-.046.614H79.48zm11.094 3.218c.422.17.887.305 1.396.406.508.1 1.012.15 1.513.15.36 0 .703-.038 1.032-.116.328-.076.613-.192.856-.347.246-.15.44-.34.59-.563.148-.224.223-.475.223-.752 0-.31-.06-.564-.175-.765-.117-.2-.274-.37-.47-.51-.195-.14-.422-.258-.68-.36-.258-.1-.535-.197-.832-.29l-.82-.3c-1.002-.37-1.73-.788-2.182-1.25-.453-.464-.68-1.09-.68-1.877 0-1.05.38-1.882 1.138-2.5.76-.617 1.874-.926 3.343-.926.61 0 1.207.058 1.794.173.585.114 1.097.25 1.535.403-.03.31-.09.618-.176.927-.087.31-.19.595-.318.858-.343-.124-.754-.244-1.23-.36-.478-.115-.99-.173-1.537-.173-.58 0-1.09.1-1.537.3-.445.202-.668.557-.668 1.067 0 .262.054.485.164.67.11.186.256.344.444.475.188.13.402.244.645.336.24.093.504.185.785.278l1.033.35c.376.125.73.27 1.068.44.336.17.625.38.868.638.242.255.437.564.586.926.147.364.22.8.22 1.31 0 .57-.116 1.092-.35 1.562-.235.47-.568.872-.998 1.204-.43.33-.95.59-1.56.775-.61.185-1.28.278-2.016.278-.75 0-1.407-.05-1.97-.15-.563-.102-1.087-.236-1.57-.406.03-.31.096-.62.198-.938.1-.318.214-.63.34-.94m11.07-12.34c-.03-.185-.05-.385-.058-.602-.008-.216-.012-.41-.012-.58 0-.168.004-.362.012-.577.008-.216.027-.41.058-.58.204-.03.423-.054.658-.07.234-.014.437-.022.61-.022.17 0 .375.008.61.023.234.014.444.038.633.068.03.17.05.364.06.58.006.215.01.41.01.578 0 .17-.004.363-.01.58-.01.216-.03.416-.06.6-.19.032-.395.055-.622.07-.227.016-.426.024-.598.024-.188 0-.4-.01-.633-.025-.235-.016-.454-.04-.658-.07zm.517 4.423h-1.523c-.032-.123-.055-.266-.07-.43-.016-.16-.024-.317-.024-.472 0-.154.008-.312.024-.474.015-.162.038-.304.07-.428h3.8v11.878c-.172.03-.363.054-.575.07-.21.015-.402.022-.573.022-.158 0-.34-.007-.55-.022-.214-.016-.405-.04-.577-.07V12.98zm10.415 4.585c.844 0 1.47-.23 1.876-.694.41-.462.61-1.056.61-1.782 0-.74-.2-1.347-.61-1.818-.404-.47-1.03-.708-1.874-.708s-1.466.236-1.865.706c-.4.47-.597 1.076-.597 1.817 0 .725.2 1.32.598 1.782.4.463 1.02.694 1.866.694zm-1.08 5.79c-.703-.016-1.23.17-1.582.555-.352.383-.528.847-.528 1.387 0 .34.07.617.21.833.142.218.34.39.6.522.257.13.562.224.914.28.35.052.736.08 1.16.08 1.25 0 2.23-.205 2.93-.614.705-.41 1.056-.92 1.056-1.54 0-.462-.148-.817-.445-1.064-.296-.247-.843-.38-1.64-.394l-2.675-.05zm3.167-1.83c1.392.03 2.4.324 3.027.88.622.556.935 1.32.935 2.292 0 .633-.164 1.2-.492 1.702-.328.5-.782.932-1.36 1.296-.58.362-1.263.64-2.053.833-.79.193-1.645.29-2.567.29-1.61 0-2.838-.25-3.683-.74-.844-.496-1.266-1.275-1.266-2.34 0-.633.17-1.2.516-1.7.343-.504.79-.9 1.337-1.194-.315-.2-.577-.452-.788-.753-.21-.3-.315-.673-.315-1.12 0-.57.13-1.066.387-1.483.26-.417.607-.788 1.045-1.11-.517-.357-.93-.817-1.244-1.38-.313-.563-.47-1.2-.47-1.91 0-.587.11-1.135.33-1.644.218-.51.534-.953.95-1.33.413-.38.926-.676 1.535-.893.61-.215 1.306-.323 2.088-.323.703 0 1.34.1 1.91.3.57.202 1.06.456 1.466.765.312-.246.735-.45 1.266-.613.53-.163 1.118-.244 1.76-.244.06.294.093.618.093.973 0 .17-.008.348-.023.53-.017.187-.04.37-.072.558h-2.11c.17.263.304.548.398.857.094.31.14.664.14 1.065 0 .632-.117 1.203-.35 1.712-.236.51-.568.947-.998 1.31-.43.36-.942.64-1.536.833-.595.193-1.243.29-1.947.29-.64 0-1.22-.07-1.736-.21-.22.125-.435.314-.647.57-.21.253-.316.528-.316.82 0 .278.1.52.305.73.202.208.656.32 1.36.335l3.12.047zm6.52-10.35c.173-.03.34-.054.505-.07.165-.015.332-.023.504-.023.175 0 .334.01.484.025.148.016.308.04.48.07.048.23.094.544.14.938.048.393.07.72.07.984.157-.264.357-.526.6-.79.242-.262.52-.5.832-.706.313-.21.672-.378 1.08-.51.406-.13.85-.196 1.336-.196 1.377 0 2.394.39 3.05 1.17.657.78.985 1.932.985 3.46v7.526c-.17.03-.365.054-.584.07-.22.015-.415.022-.586.022-.173 0-.365-.007-.576-.022-.21-.016-.403-.04-.576-.07v-6.9c0-1.096-.172-1.903-.515-2.42-.345-.517-.893-.775-1.644-.775-.44 0-.854.077-1.245.23-.39.156-.735.395-1.032.72-.296.323-.535.744-.714 1.26-.18.518-.27 1.14-.27 1.865v6.02c-.173.03-.364.054-.576.07-.21.015-.4.022-.573.022-.17 0-.367-.007-.586-.022-.22-.016-.415-.04-.587-.07v-11.88m13.323-4.77h9.57c.095.464.14.935.14 1.413 0 .51-.045.996-.14 1.46h-6.145v3.61h4.88c.093.495.14.974.14 1.436 0 .495-.047.98-.14 1.46h-4.88v4.4h6.31c.094.462.14.933.14 1.41 0 .51-.046.997-.14 1.46h-9.734V6.404m19.726 7.156c-.312-.078-.566-.13-.76-.152-.197-.023-.443-.035-.74-.035-.516 0-.965.105-1.348.313-.384.21-.7.486-.95.833s-.434.753-.552 1.224c-.117.47-.175.96-.175 1.47 0 .633.08 1.17.235 1.61.154.44.37.79.644 1.053.272.26.596.45.972.566.375.116.78.174 1.22.174.266 0 .508-.01.728-.033.218-.024.46-.074.726-.152V13.56zm0-7.434c.283-.046.56-.077.834-.093.272-.015.542-.023.81-.023.264 0 .54.008.82.023.28.016.562.047.844.093v16.532c-.737.216-1.484.383-2.24.5-.76.114-1.68.172-2.758.172-.83 0-1.623-.113-2.38-.336-.76-.223-1.428-.58-2.006-1.065-.58-.49-1.036-1.12-1.373-1.89-.336-.77-.504-1.715-.504-2.826 0-.88.143-1.71.433-2.49.29-.778.703-1.454 1.243-2.025.54-.57 1.19-1.023 1.956-1.355.767-.332 1.62-.497 2.558-.497.28 0 .574.01.878.032.307.024.6.074.88.15V6.127zm11.283 11.022c.657 0 1.13-.186 1.42-.556.29-.37.433-.88.433-1.528s-.145-1.162-.435-1.54c-.29-.378-.76-.567-1.42-.567-.67 0-1.156.19-1.453.567-.298.378-.447.892-.447 1.54s.15 1.158.445 1.528c.296.37.78.556 1.453.556zm-.96 6.32c-.346-.015-.63.024-.858.117-.226.092-.405.212-.54.36-.132.145-.226.307-.28.485-.055.177-.082.35-.082.52 0 .587.223.985.668 1.193.448.21 1.046.313 1.797.313.985 0 1.78-.154 2.38-.463.602-.31.904-.726.904-1.25 0-.155-.02-.3-.06-.44-.04-.14-.113-.266-.22-.383-.11-.115-.264-.212-.46-.29-.195-.076-.457-.115-.785-.115l-2.463-.047zm3-2.407c1.423.035 2.47.347 3.143.94.673.596 1.01 1.44 1.01 2.537 0 .648-.173 1.24-.517 1.77-.345.534-.814.986-1.407 1.356-.596.37-1.3.657-2.11.857-.816.2-1.69.3-2.63.3-.937 0-1.735-.073-2.392-.22-.657-.15-1.192-.352-1.607-.614-.413-.263-.71-.587-.89-.972-.18-.386-.27-.81-.27-1.274 0-.696.168-1.267.505-1.715.333-.447.784-.84 1.347-1.18-.36-.216-.645-.482-.856-.8-.21-.316-.316-.72-.316-1.215 0-.587.125-1.066.376-1.436.25-.37.617-.726 1.102-1.066-.547-.385-.97-.856-1.266-1.412-.298-.556-.446-1.173-.446-1.852 0-.602.117-1.162.352-1.68.234-.516.575-.963 1.02-1.342.446-.378.99-.675 1.63-.892.64-.216 1.36-.324 2.16-.324.78 0 1.5.12 2.156.36.657.24 1.204.543 1.642.914.297-.386.664-.675 1.102-.868.438-.193 1.033-.29 1.783-.29.03.2.058.398.08.59.025.194.037.398.037.614 0 .247-.008.494-.023.74-.018.248-.05.503-.096.765h-1.9c.078.16.15.34.21.56.064.216.095.5.095.857 0 .602-.115 1.16-.34 1.68-.228.516-.56.96-.998 1.33-.438.37-.974.664-1.606.88-.635.216-1.35.324-2.147.324-.672 0-1.274-.07-1.805-.21-.267.17-.43.35-.493.545-.063.194-.094.375-.094.545 0 .245.083.446.247.6.164.154.496.24.997.254l3.215.047zm13.652-5.28c-.03-.74-.24-1.336-.62-1.79-.384-.456-.92-.684-1.607-.684-.782 0-1.377.216-1.783.648-.407.432-.65 1.042-.728 1.83h4.74zm-4.76 2.296c.06.926.39 1.598.984 2.014.592.416 1.374.625 2.344.625.532 0 1.075-.05 1.63-.15.555-.1 1.083-.244 1.583-.43.174.31.32.68.447 1.112.125.432.196.895.21 1.39-1.22.463-2.595.694-4.127.694-1.126 0-2.092-.152-2.897-.46-.807-.31-1.464-.738-1.97-1.286-.51-.548-.885-1.2-1.127-1.957-.244-.756-.365-1.582-.365-2.477 0-.88.124-1.707.375-2.48.25-.77.62-1.442 1.113-2.014.492-.57 1.103-1.022 1.83-1.354.727-.33 1.574-.496 2.544-.496.845 0 1.595.147 2.252.44.655.293 1.215.694 1.676 1.204.46.51.81 1.116 1.045 1.818.235.702.35 1.455.35 2.258 0 .293-.01.582-.033.868-.022.287-.05.514-.08.684h-7.787zM3.23 3.206c.596-.07 1.177-.115 1.742-.14.564-.02 1.145-.033 1.742-.033.533 0 1.083.01 1.648.034.567.024 1.146.07 1.74.14V16.2c0 1.42.07 2.632.214 3.64.14 1.01.424 1.85.848 2.512.424.66 1.018 1.146 1.788 1.46.77.315 1.766.473 2.99.473 1.228 0 2.213-.158 2.968-.472.753-.315 1.34-.8 1.765-1.46.424-.664.705-1.502.847-2.512.14-1.005.21-2.22.21-3.64V3.21c.632-.07 1.226-.115 1.79-.14.568-.022 1.114-.033 1.65-.033.564 0 1.138.01 1.72.034.578.024 1.168.07 1.763.14v14.07c0 1.7-.187 3.25-.566 4.655-.378 1.403-1.055 2.605-2.027 3.605-.97.996-2.277 1.77-3.908 2.314-1.63.545-3.703.817-6.215.817s-4.583-.27-6.215-.815c-1.633-.546-2.936-1.318-3.91-2.317-.97-1-1.646-2.203-2.022-3.606-.377-1.405-.564-2.955-.564-4.652V3.206" fill="#636462"/><path d="M3.23 3.206c.596-.07 1.177-.115 1.742-.14.564-.022 1.145-.033 1.742-.033.533 0 1.083.01 1.648.034.567.024 1.146.07 1.74.14V16.2c0 1.42.07 2.632.214 3.64.14 1.01.424 1.85.848 2.512.424.66 1.018 1.146 1.788 1.46.77.315 1.766.473 2.99.473 1.228 0 2.213-.158 2.968-.472.753-.315 1.34-.8 1.765-1.46.424-.664.705-1.502.847-2.512.14-1.005.21-2.22.21-3.64V3.21c.632-.07 1.226-.115 1.79-.14.568-.022 1.114-.033 1.65-.033.564 0 1.138.01 1.72.034.578.024 1.168.07 1.763.14v14.07c0 1.7-.187 3.25-.566 4.655-.378 1.403-1.055 2.605-2.027 3.605-.97.996-2.277 1.77-3.908 2.314-1.63.545-3.703.817-6.215.817s-4.583-.27-6.215-.815c-1.633-.546-2.936-1.318-3.91-2.317-.97-1-1.646-2.203-2.022-3.606-.377-1.405-.564-2.955-.564-4.652V3.206z" stroke="#FFF" stroke-width="4.698"/><path d="M43.063 15.262l5.273-11.985c1.226-.14 2.4-.21 3.532-.21.594 0 1.2.013 1.813.037.615.023 1.236.067 1.86.14l-5.98 11.912 7.345 13.098c-.722.07-1.358.122-1.905.16-.55.032-1.108.05-1.673.05-.534 0-1.077-.018-1.626-.05-.55-.038-1.214-.1-2-.195l-6.64-12.96zm-6.828-.105L30.16 3.243c.63-.072 1.25-.116 1.862-.14.61-.023 1.217-.036 1.814-.036 1.13 0 2.305.07 3.53.21l5.367 11.985L36 28.22c-.782.095-1.453.157-2 .194-.55.033-1.09.052-1.624.052-.567 0-1.122-.02-1.672-.052-.55-.037-1.186-.09-1.91-.16l7.44-13.097z" fill="#636462"/><path d="M43.063 15.262l5.273-11.985c1.226-.14 2.4-.21 3.532-.21.594 0 1.2.013 1.813.037.615.023 1.236.067 1.86.14l-5.98 11.912 7.345 13.098c-.722.07-1.358.122-1.905.16-.55.032-1.108.05-1.673.05-.534 0-1.077-.018-1.626-.05-.55-.038-1.214-.1-2-.195l-6.64-12.96zm-6.828-.105L30.16 3.243c.63-.072 1.25-.116 1.862-.14.61-.023 1.217-.036 1.814-.036 1.13 0 2.305.07 3.53.21l5.367 11.985L36 28.22c-.782.095-1.453.157-2 .194-.55.033-1.09.052-1.624.052-.567 0-1.122-.02-1.672-.052-.55-.037-1.186-.09-1.91-.16l7.44-13.097z" stroke="#FFF" stroke-width="4.698"/><path d="M3.23 3.206c.596-.07 1.177-.115 1.742-.14.564-.022 1.145-.033 1.742-.033.533 0 1.083.01 1.648.034.567.024 1.146.07 1.74.14V16.2c0 1.42.07 2.632.214 3.64.14 1.01.424 1.85.848 2.512.424.66 1.018 1.146 1.788 1.46.77.315 1.766.473 2.99.473 1.228 0 2.213-.158 2.968-.472.753-.315 1.34-.8 1.765-1.46.424-.664.705-1.502.847-2.512.14-1.005.21-2.22.21-3.64V3.21c.632-.07 1.226-.115 1.79-.14.568-.022 1.114-.033 1.65-.033.564 0 1.138.01 1.72.034.578.024 1.168.07 1.763.14v14.07c0 1.7-.187 3.25-.566 4.655-.378 1.403-1.055 2.605-2.027 3.605-.97.996-2.277 1.77-3.908 2.314-1.63.545-3.703.817-6.215.817s-4.583-.27-6.215-.815c-1.633-.546-2.936-1.318-3.91-2.317-.97-1-1.646-2.203-2.022-3.606-.377-1.405-.564-2.955-.564-4.652V3.206M43.06 15.26l5.273-11.984c1.226-.14 2.4-.21 3.532-.21.594 0 1.2.013 1.813.037.613.023 1.234.067 1.86.14l-5.98 11.912L56.9 28.253c-.72.07-1.357.122-1.904.16-.55.032-1.107.05-1.672.05-.534 0-1.077-.018-1.626-.05-.55-.038-1.216-.1-2-.195l-6.64-12.96zm-6.828-.104L30.16 3.243c.63-.072 1.25-.116 1.862-.14.61-.023 1.217-.036 1.814-.036 1.13 0 2.305.07 3.53.21l5.367 11.985L36 28.22c-.782.095-1.453.157-2 .194-.55.033-1.09.052-1.624.052-.567 0-1.122-.02-1.672-.052-.55-.037-1.186-.09-1.91-.16l7.44-13.097z" fill="#43769D"/></g></svg>