<?xml version="1.0" encoding="UTF-8" standalone="no"?>
<svg width="185px" height="47px" viewBox="0 0 185 47" version="1.1" xmlns="http://www.w3.org/2000/svg" xmlns:xlink="http://www.w3.org/1999/xlink" xmlns:sketch="http://www.bohemiancoding.com/sketch/ns">
    <!-- Generator: Sketch 3.2.2 (9983) - http://www.bohemiancoding.com/sketch -->
    <title>UXDE horiz + T&amp;C_VT-1</title>
    <desc>Created with Sketch.</desc>
    <defs></defs>
    <g id="Page-1" stroke="none" stroke-width="1" fill="none" fill-rule="evenodd" sketch:type="MSPage">
        <g id="UXDE-horiz-+-T&amp;C_VT-1" sketch:type="MSLayerGroup" transform="translate(3.000000, 3.000000)">
            <path d="M60.3549856,27.9267391 L60.3549856,31.0382609 C60.3549856,31.968913 60.7130578,32.4423913 61.3466209,32.4423913 C61.9960397,32.4423913 62.3541119,31.9930435 62.3541119,31.0382609 L62.3541119,27.9267391 L63.5888664,27.9267391 L63.5888664,30.9580435 C63.5888664,32.6269565 62.7353069,33.4206522 61.3056606,33.4206522 C59.9249025,33.4206522 59.1123032,32.6667391 59.1123032,30.9423913 L59.1123032,27.9267391 L60.3549856,27.9267391" id="Fill-1" fill="#43769D" sketch:type="MSShapeGroup"></path>
            <path d="M67.5448375,33.3326087 L67.0493502,32.3536957 C66.84587,31.9767391 66.715722,31.6963043 66.56113,31.3832609 L66.5452744,31.3832609 C66.4316426,31.6963043 66.2935668,31.9767391 66.1224585,32.3536957 L65.6679314,33.3326087 L64.2534801,33.3326087 L65.8383791,30.5973913 L64.3109567,27.9267391 L65.7333357,27.9267391 L66.2123069,28.9134783 C66.3741661,29.2415217 66.4963863,29.5069565 66.6265343,29.8115217 L66.6423899,29.8115217 C66.7731986,29.4665217 66.8782419,29.2258696 67.0163177,28.9134783 L67.4794332,27.9267391 L68.8938845,27.9267391 L67.3499458,30.5654348 L68.9744838,33.3326087 L67.5448375,33.3326087" id="Fill-2" fill="#43769D" sketch:type="MSShapeGroup"></path>
            <path d="M73.8553646,31.0708696 C73.8553646,31.0063043 73.8480975,30.9182609 73.839509,30.8543478 C73.7668375,30.525 73.4979531,30.2523913 73.1160975,30.2523913 C72.5558664,30.2523913 72.2631986,30.75 72.2631986,31.3676087 C72.2631986,32.0334783 72.5961661,32.4502174 73.1088303,32.4502174 C73.4662419,32.4502174 73.7503213,32.2095652 73.8236534,31.8645652 C73.8480975,31.7765217 73.8553646,31.6884783 73.8553646,31.5841304 L73.8553646,31.0708696 L73.8553646,31.0708696 Z M75.0914404,27.6378261 L75.0914404,32.1613043 C75.0914404,32.6028261 75.107296,33.0678261 75.1231516,33.3326087 L74.0264729,33.3326087 L73.969657,32.7547826 L73.9538014,32.7547826 C73.7014332,33.1963043 73.2218014,33.4206522 72.7104585,33.4206522 C71.7677112,33.4206522 71.0125884,32.6269565 71.0125884,31.4073913 C71.004,30.0841304 71.8410433,29.3217391 72.7917184,29.3217391 C73.2786173,29.3217391 73.6611336,29.4906522 73.839509,29.7632609 L73.8553646,29.7632609 L73.8553646,27.6378261 L75.0914404,27.6378261 L75.0914404,27.6378261 Z" id="Fill-3" fill="#43769D" sketch:type="MSShapeGroup"></path>
            <path d="M78.4858592,30.926087 C78.4858592,30.6293478 78.3557112,30.1323913 77.7875523,30.1323913 C77.2676209,30.1323913 77.0555523,30.5973913 77.0231805,30.926087 L78.4858592,30.926087 L78.4858592,30.926087 Z M77.031769,31.7602174 C77.0727292,32.2656522 77.5754838,32.5063043 78.1528917,32.5063043 C78.5750469,32.5063043 78.9166029,32.4502174 79.250231,32.3458696 L79.4127509,33.1721739 C79.0057906,33.3326087 78.5103032,33.4206522 77.9745162,33.4206522 C76.6254693,33.4206522 75.8538303,32.6426087 75.8538303,31.4152174 C75.8538303,30.4213043 76.4788051,29.3217391 77.8602238,29.3217391 C79.1438664,29.3217391 79.6320866,30.3084783 79.6320866,31.278913 C79.6320866,31.4876087 79.6076426,31.6721739 79.5911264,31.7602174 L77.031769,31.7602174 L77.031769,31.7602174 Z" id="Fill-4" fill="#43769D" sketch:type="MSShapeGroup"></path>
            <path d="M80.3621047,32.2656522 C80.5893682,32.4019565 81.0610722,32.5623913 81.4257509,32.5623913 C81.8003394,32.5623913 81.9542708,32.433913 81.9542708,32.2336957 C81.9542708,32.0334783 81.8327112,31.9369565 81.3695957,31.7843478 C80.5484079,31.5117391 80.2319567,31.0708696 80.2405451,30.6130435 C80.2405451,29.8754348 80.8741083,29.3217391 81.8571552,29.3217391 C82.3202708,29.3217391 82.7344982,29.4267391 82.978278,29.5467391 L82.7589422,30.3886957 C82.5805668,30.2928261 82.2390108,30.1643478 81.8974549,30.1643478 C81.5968592,30.1643478 81.4257509,30.285 81.4257509,30.4852174 C81.4257509,30.6697826 81.5810036,30.7656522 82.0679025,30.9345652 C82.8243466,31.1908696 83.1407978,31.5678261 83.1487256,32.1456522 C83.1487256,32.8754348 82.5640505,33.4206522 81.4257509,33.4206522 C80.9058195,33.4206522 80.4433646,33.3006522 80.142769,33.1402174 L80.3621047,32.2656522" id="Fill-5" fill="#43769D" sketch:type="MSShapeGroup"></path>
            <path d="M83.8952599,29.4104348 L85.1300144,29.4104348 L85.1300144,33.3326087 L83.8952599,33.3326087 L83.8952599,29.4104348 Z M85.1703141,28.3193478 C85.1703141,28.6565217 84.9106787,28.9291304 84.5050397,28.9291304 C84.1145957,28.9291304 83.8542996,28.6565217 83.8628881,28.3193478 C83.8542996,27.9665217 84.1145957,27.7017391 84.5123069,27.7017391 C84.9106787,27.7017391 85.1630469,27.9665217 85.1703141,28.3193478 L85.1703141,28.3193478 Z" id="Fill-6" fill="#43769D" sketch:type="MSShapeGroup"></path>
            <path d="M88.6479747,31.0063043 C88.6479747,30.926087 88.6393863,30.8458696 88.6235307,30.7819565 C88.534343,30.461087 88.298491,30.2445652 87.956935,30.2445652 C87.5103357,30.2445652 87.1449964,30.6456522 87.1449964,31.3597826 C87.1449964,31.9447826 87.4370036,32.4019565 87.956935,32.4019565 C88.2747076,32.4019565 88.5264152,32.1932609 88.6076751,31.905 C88.6393863,31.8169565 88.6479747,31.6884783 88.6479747,31.5841304 L88.6479747,31.0063043 L88.6479747,31.0063043 Z M89.8827292,32.7632609 C89.8827292,33.5171739 89.7287978,34.1347826 89.2815379,34.5273913 C88.8428664,34.8965217 88.2502635,35.0086957 87.6649278,35.0086957 C87.1449964,35.0086957 86.5926931,34.905 86.2352816,34.7041304 L86.4784007,33.7813043 C86.730769,33.926087 87.1694404,34.0780435 87.632556,34.0780435 C88.217231,34.0780435 88.664491,33.7656522 88.664491,33.0436957 L88.664491,32.7867391 L88.6479747,32.7867391 C88.4127834,33.116087 88.0309278,33.3006522 87.5750794,33.3006522 C86.5926931,33.3006522 85.8937256,32.5147826 85.8937256,31.3832609 C85.8937256,30.123913 86.7221805,29.3217391 87.6972996,29.3217391 C88.2416751,29.3217391 88.5825704,29.5545652 88.7860505,29.8754348 L88.8019061,29.8754348 L88.8428664,29.4104348 L89.9157617,29.4104348 C89.8992455,29.658913 89.8827292,29.9876087 89.8827292,30.5732609 L89.8827292,32.7632609 L89.8827292,32.7632609 Z" id="Fill-7" fill="#43769D" sketch:type="MSShapeGroup"></path>
            <path d="M90.8723827,30.6619565 C90.8723827,30.1721739 90.8565271,29.7554348 90.8400108,29.4104348 L91.9122455,29.4104348 L91.9690614,29.9478261 L91.9941661,29.9478261 C92.1566859,29.6993478 92.5629856,29.3217391 93.2209928,29.3217391 C94.0329314,29.3217391 94.6427112,29.8513043 94.6427112,31.0063043 L94.6427112,33.3326087 L93.407296,33.3326087 L93.407296,31.158913 C93.407296,30.6534783 93.2289206,30.3084783 92.7823213,30.3084783 C92.4407653,30.3084783 92.2379458,30.5413043 92.1566859,30.7656522 C92.1243141,30.8458696 92.1071372,30.9580435 92.1071372,31.0708696 L92.1071372,33.3326087 L90.8723827,33.3326087 L90.8723827,30.6619565" id="Fill-8" fill="#43769D" sketch:type="MSShapeGroup"></path>
            <path d="M98.6548375,28.3434783 L98.6548375,29.4104348 L99.5401083,29.4104348 L99.5401083,30.3084783 L98.6548375,30.3084783 L98.6548375,31.7282609 C98.6548375,32.2017391 98.7678087,32.4182609 99.1423971,32.4182609 C99.3128448,32.4182609 99.3861769,32.4097826 99.5083971,32.3863043 L99.5156643,33.3084783 C99.3531444,33.3723913 99.0611372,33.4206522 98.7116534,33.4206522 C98.3132816,33.4206522 97.9803141,33.2765217 97.7854224,33.0756522 C97.5574982,32.8434783 97.4445271,32.4665217 97.4445271,31.9128261 L97.4445271,30.3084783 L96.9160072,30.3084783 L96.9160072,29.4104348 L97.4445271,29.4104348 L97.4445271,28.6721739 L98.6548375,28.3434783" id="Fill-9" fill="#43769D" sketch:type="MSShapeGroup"></path>
            <path d="M100.254271,30.7017391 C100.254271,30.123913 100.238415,29.7469565 100.22256,29.4104348 L101.286866,29.4104348 L101.327166,30.1323913 L101.359538,30.1323913 C101.563018,29.5630435 102.049917,29.3217391 102.431773,29.3217391 C102.546065,29.3217391 102.602881,29.3217391 102.692069,29.3380435 L102.692069,30.4930435 C102.602881,30.468913 102.497177,30.4532609 102.359101,30.4532609 C101.904574,30.4532609 101.59539,30.693913 101.51413,31.0708696 C101.497614,31.151087 101.489686,31.2469565 101.489686,31.3434783 L101.489686,33.3326087 L100.254271,33.3326087 L100.254271,30.7017391" id="Fill-10" fill="#43769D" sketch:type="MSShapeGroup"></path>
            <path d="M105.365058,31.4797826 C104.714318,31.4713043 104.210903,31.623913 104.210903,32.0973913 C104.210903,32.4097826 104.42231,32.5623913 104.698462,32.5623913 C105.006986,32.5623913 105.259354,32.3621739 105.340614,32.1136957 C105.356469,32.0491304 105.365058,31.9767391 105.365058,31.905 L105.365058,31.4797826 L105.365058,31.4797826 Z M106.56678,32.3784783 C106.56678,32.7547826 106.583957,33.116087 106.624256,33.3326087 L105.511061,33.3326087 L105.437729,32.9393478 L105.413285,32.9393478 C105.152989,33.2523913 104.74669,33.4206522 104.275646,33.4206522 C103.471635,33.4206522 102.992004,32.8434783 102.992004,32.2173913 C102.992004,31.1986957 103.918235,30.7095652 105.324097,30.7180435 L105.324097,30.6619565 C105.324097,30.4532609 105.209805,30.1565217 104.601347,30.1565217 C104.194386,30.1565217 103.764303,30.2928261 103.504007,30.4532609 L103.276744,29.6667391 C103.552895,29.5147826 104.097271,29.3217391 104.820682,29.3217391 C106.144625,29.3217391 106.56678,30.0919565 106.56678,31.0147826 L106.56678,32.3784783 L106.56678,32.3784783 Z" id="Fill-11" fill="#43769D" sketch:type="MSShapeGroup"></path>
            <path d="M107.541238,29.4104348 L108.775993,29.4104348 L108.775993,33.3326087 L107.541238,33.3326087 L107.541238,29.4104348 Z M108.816292,28.3193478 C108.816292,28.6565217 108.556657,28.9291304 108.151018,28.9291304 C107.760574,28.9291304 107.500278,28.6565217 107.508866,28.3193478 C107.500278,27.9665217 107.760574,27.7017391 108.158285,27.7017391 C108.556657,27.7017391 108.809025,27.9665217 108.816292,28.3193478 L108.816292,28.3193478 Z" id="Fill-12" fill="#43769D" sketch:type="MSShapeGroup"></path>
            <path d="M109.766968,30.6619565 C109.766968,30.1721739 109.750451,29.7554348 109.734596,29.4104348 L110.80683,29.4104348 L110.863646,29.9478261 L110.88809,29.9478261 C111.05061,29.6993478 111.45691,29.3217391 112.115578,29.3217391 C112.927516,29.3217391 113.537296,29.8513043 113.537296,31.0063043 L113.537296,33.3326087 L112.301881,33.3326087 L112.301881,31.158913 C112.301881,30.6534783 112.122845,30.3084783 111.676906,30.3084783 C111.33535,30.3084783 111.13187,30.5413043 111.05061,30.7656522 C111.018238,30.8458696 111.001722,30.9580435 111.001722,31.0708696 L111.001722,33.3326087 L109.766968,33.3326087 L109.766968,30.6619565" id="Fill-13" fill="#43769D" sketch:type="MSShapeGroup"></path>
            <path d="M114.526949,29.4104348 L115.761704,29.4104348 L115.761704,33.3326087 L114.526949,33.3326087 L114.526949,29.4104348 Z M115.802664,28.3193478 C115.802664,28.6565217 115.542368,28.9291304 115.136729,28.9291304 C114.746285,28.9291304 114.485989,28.6565217 114.494578,28.3193478 C114.485989,27.9665217 114.746285,27.7017391 115.144657,27.7017391 C115.542368,27.7017391 115.794736,27.9665217 115.802664,28.3193478 L115.802664,28.3193478 Z" id="Fill-14" fill="#43769D" sketch:type="MSShapeGroup"></path>
            <path d="M116.752679,30.6619565 C116.752679,30.1721739 116.736823,29.7554348 116.720307,29.4104348 L117.792542,29.4104348 L117.849357,29.9478261 L117.873801,29.9478261 C118.036321,29.6993478 118.443282,29.3217391 119.101289,29.3217391 C119.913227,29.3217391 120.523007,29.8513043 120.523007,31.0063043 L120.523007,33.3326087 L119.287592,33.3326087 L119.287592,31.158913 C119.287592,30.6534783 119.109217,30.3084783 118.662617,30.3084783 C118.321061,30.3084783 118.118242,30.5413043 118.036321,30.7656522 C118.00461,30.8458696 117.987433,30.9580435 117.987433,31.0708696 L117.987433,33.3326087 L116.752679,33.3326087 L116.752679,30.6619565" id="Fill-15" fill="#43769D" sketch:type="MSShapeGroup"></path>
            <path d="M124.039646,31.0063043 C124.039646,30.926087 124.031718,30.8458696 124.015202,30.7819565 C123.926675,30.461087 123.690162,30.2445652 123.348606,30.2445652 C122.902668,30.2445652 122.536668,30.6456522 122.536668,31.3597826 C122.536668,31.9447826 122.828675,32.4019565 123.348606,32.4019565 C123.666379,32.4019565 123.918087,32.1932609 123.999347,31.905 C124.031718,31.8169565 124.039646,31.6884783 124.039646,31.5841304 L124.039646,31.0063043 L124.039646,31.0063043 Z M125.275061,32.7632609 C125.275061,33.5171739 125.120469,34.1347826 124.673209,34.5273913 C124.234538,34.8965217 123.641935,35.0086957 123.056599,35.0086957 C122.536668,35.0086957 121.984365,34.905 121.626953,34.7041304 L121.870072,33.7813043 C122.12244,33.926087 122.561112,34.0780435 123.024227,34.0780435 C123.608903,34.0780435 124.056162,33.7656522 124.056162,33.0436957 L124.056162,32.7867391 L124.039646,32.7867391 C123.804455,33.116087 123.422599,33.3006522 122.967412,33.3006522 C121.984365,33.3006522 121.285397,32.5147826 121.285397,31.3832609 C121.285397,30.123913 122.113852,29.3217391 123.088971,29.3217391 C123.633347,29.3217391 123.974903,29.5545652 124.177722,29.8754348 L124.194238,29.8754348 L124.234538,29.4104348 L125.306773,29.4104348 C125.290917,29.658913 125.275061,29.9876087 125.275061,30.5732609 L125.275061,32.7632609 L125.275061,32.7632609 Z" id="Fill-16" fill="#43769D" sketch:type="MSShapeGroup"></path>
            <path d="M130.017866,31.4797826 C129.367787,31.4713043 128.863711,31.623913 128.863711,32.0973913 C128.863711,32.4097826 129.075119,32.5623913 129.351271,32.5623913 C129.659794,32.5623913 129.912162,32.3621739 129.993422,32.1136957 C130.009939,32.0491304 130.017866,31.9767391 130.017866,31.905 L130.017866,31.4797826 L130.017866,31.4797826 Z M131.220249,32.3784783 C131.220249,32.7547826 131.236765,33.116087 131.277065,33.3326087 L130.16387,33.3326087 L130.091199,32.9393478 L130.066094,32.9393478 C129.806458,33.2523913 129.400159,33.4206522 128.929116,33.4206522 C128.124444,33.4206522 127.644812,32.8434783 127.644812,32.2173913 C127.644812,31.1986957 128.571704,30.7095652 129.977567,30.7180435 L129.977567,30.6619565 C129.977567,30.4532609 129.863274,30.1565217 129.254155,30.1565217 C128.847856,30.1565217 128.417112,30.2928261 128.157477,30.4532609 L127.929552,29.6667391 C128.205704,29.5147826 128.750079,29.3217391 129.473491,29.3217391 C130.798094,29.3217391 131.220249,30.0919565 131.220249,31.0147826 L131.220249,32.3784783 L131.220249,32.3784783 Z" id="Fill-17" fill="#43769D" sketch:type="MSShapeGroup"></path>
            <path d="M132.194047,30.6619565 C132.194047,30.1721739 132.178191,29.7554348 132.161675,29.4104348 L133.23391,29.4104348 L133.290726,29.9478261 L133.31517,29.9478261 C133.47835,29.6993478 133.88465,29.3217391 134.542657,29.3217391 C135.354596,29.3217391 135.964375,29.8513043 135.964375,31.0063043 L135.964375,33.3326087 L134.72896,33.3326087 L134.72896,31.158913 C134.72896,30.6534783 134.550585,30.3084783 134.103986,30.3084783 C133.76243,30.3084783 133.55961,30.5413043 133.47835,30.7656522 C133.445978,30.8458696 133.428801,30.9580435 133.428801,31.0708696 L133.428801,33.3326087 L132.194047,33.3326087 L132.194047,30.6619565" id="Fill-18" fill="#43769D" sketch:type="MSShapeGroup"></path>
            <path d="M139.570202,31.0708696 C139.570202,31.0063043 139.562274,30.9182609 139.554347,30.8543478 C139.481014,30.525 139.212791,30.2523913 138.830935,30.2523913 C138.270043,30.2523913 137.978036,30.75 137.978036,31.3676087 C137.978036,32.0334783 138.311004,32.4502174 138.823007,32.4502174 C139.180419,32.4502174 139.465159,32.2095652 139.53783,31.8645652 C139.562274,31.7765217 139.570202,31.6884783 139.570202,31.5841304 L139.570202,31.0708696 L139.570202,31.0708696 Z M140.805617,27.6378261 L140.805617,32.1613043 C140.805617,32.6028261 140.822134,33.0678261 140.837989,33.3326087 L139.74131,33.3326087 L139.684495,32.7547826 L139.668639,32.7547826 C139.416271,33.1963043 138.936639,33.4206522 138.425296,33.4206522 C137.482549,33.4206522 136.726765,32.6269565 136.726765,31.4073913 C136.718838,30.0841304 137.55522,29.3217391 138.506556,29.3217391 C138.993455,29.3217391 139.37531,29.4906522 139.554347,29.7632609 L139.570202,29.7632609 L139.570202,27.6378261 L140.805617,27.6378261 L140.805617,27.6378261 Z" id="Fill-19" fill="#43769D" sketch:type="MSShapeGroup"></path>
            <path d="M146.417838,33.236087 C146.198502,33.3326087 145.784274,33.4206522 145.313231,33.4206522 C144.029588,33.4206522 143.209061,32.6426087 143.209061,31.4073913 C143.209061,30.2602174 144.005144,29.3217391 145.483679,29.3217391 C145.809379,29.3217391 146.166791,29.3784783 146.426426,29.4743478 L146.230874,30.3808696 C146.085531,30.3169565 145.865534,30.2602174 145.540495,30.2602174 C144.890415,30.2602174 144.46826,30.7180435 144.476188,31.3597826 C144.476188,32.081087 144.963747,32.4586957 145.564939,32.4586957 C145.857606,32.4586957 146.085531,32.4097826 146.271834,32.3302174 L146.417838,33.236087" id="Fill-20" fill="#43769D" sketch:type="MSShapeGroup"></path>
            <path d="M148.058231,31.3676087 C148.058231,32.0413043 148.342971,32.5467391 148.87017,32.5467391 C149.349801,32.5467391 149.658986,32.0732609 149.658986,31.3676087 C149.658986,30.7819565 149.431061,30.1884783 148.87017,30.1884783 C148.277567,30.1884783 148.058231,30.7897826 148.058231,31.3676087 L148.058231,31.3676087 Z M150.93404,31.3271739 C150.93404,32.7632609 149.902765,33.4206522 148.838458,33.4206522 C147.676375,33.4206522 146.782516,32.6667391 146.782516,31.3995652 C146.782516,30.1323913 147.627487,29.3217391 148.903202,29.3217391 C150.122101,29.3217391 150.93404,30.1486957 150.93404,31.3271739 L150.93404,31.3271739 Z" id="Fill-21" fill="#43769D" sketch:type="MSShapeGroup"></path>
            <path d="M151.69709,30.6619565 C151.69709,30.1721739 151.680574,29.7554348 151.664718,29.4104348 L152.736953,29.4104348 L152.793769,29.9478261 L152.818213,29.9478261 C152.980733,29.6993478 153.387032,29.3217391 154.04504,29.3217391 C154.857639,29.3217391 155.467419,29.8513043 155.467419,31.0063043 L155.467419,33.3326087 L154.232004,33.3326087 L154.232004,31.158913 C154.232004,30.6534783 154.052968,30.3084783 153.606368,30.3084783 C153.265473,30.3084783 153.061993,30.5413043 152.980733,30.7656522 C152.948361,30.8458696 152.931845,30.9580435 152.931845,31.0708696 L152.931845,33.3326087 L151.69709,33.3326087 L151.69709,30.6619565" id="Fill-22" fill="#43769D" sketch:type="MSShapeGroup"></path>
            <path d="M156.449144,32.2656522 C156.676408,32.4019565 157.148112,32.5623913 157.512791,32.5623913 C157.887379,32.5623913 158.04131,32.433913 158.04131,32.2336957 C158.04131,32.0334783 157.919751,31.9369565 157.455975,31.7843478 C156.635448,31.5117391 156.318996,31.0708696 156.326924,30.6130435 C156.326924,29.8754348 156.960487,29.3217391 157.944195,29.3217391 C158.40731,29.3217391 158.821538,29.4267391 159.065318,29.5467391 L158.845982,30.3886957 C158.666946,30.2928261 158.326051,30.1643478 157.984495,30.1643478 C157.683899,30.1643478 157.512791,30.285 157.512791,30.4852174 C157.512791,30.6697826 157.668043,30.7656522 158.154942,30.9345652 C158.911386,31.1908696 159.227838,31.5678261 159.235765,32.1456522 C159.235765,32.8754348 158.65109,33.4206522 157.512791,33.4206522 C156.992859,33.4206522 156.530404,33.3006522 156.229809,33.1402174 L156.449144,32.2656522" id="Fill-23" fill="#43769D" sketch:type="MSShapeGroup"></path>
            <path d="M163.728184,32.0732609 C163.728184,32.5865217 163.74404,33.003913 163.759895,33.3326087 L162.687661,33.3326087 L162.630845,32.778913 L162.606401,32.778913 C162.452469,33.0195652 162.078542,33.4206522 161.363058,33.4206522 C160.559047,33.4206522 159.965783,32.9230435 159.965783,31.7126087 L159.965783,29.4104348 L161.209126,29.4104348 L161.209126,31.5202174 C161.209126,32.0895652 161.39609,32.433913 161.826834,32.433913 C162.167729,32.433913 162.362621,32.2017391 162.443881,32.0093478 C162.476253,31.9369565 162.484841,31.8404348 162.484841,31.7445652 L162.484841,29.4104348 L163.728184,29.4104348 L163.728184,32.0732609" id="Fill-24" fill="#43769D" sketch:type="MSShapeGroup"></path>
            <path d="M164.717838,27.6378261 L165.952592,27.6378261 L165.952592,33.3326087 L164.717838,33.3326087 L164.717838,27.6378261 Z" id="Fill-25" fill="#43769D" sketch:type="MSShapeGroup"></path>
            <path d="M168.332253,28.3434783 L168.332253,29.4104348 L169.218184,29.4104348 L169.218184,30.3084783 L168.332253,30.3084783 L168.332253,31.7282609 C168.332253,32.2017391 168.445884,32.4182609 168.820473,32.4182609 C168.99026,32.4182609 169.064253,32.4097826 169.185812,32.3863043 L169.19374,33.3084783 C169.03122,33.3723913 168.739213,33.4206522 168.389069,33.4206522 C167.991357,33.4206522 167.65839,33.2765217 167.463498,33.0756522 C167.235574,32.8434783 167.121942,32.4665217 167.121942,31.9128261 L167.121942,30.3084783 L166.593422,30.3084783 L166.593422,29.4104348 L167.121942,29.4104348 L167.121942,28.6721739 L168.332253,28.3434783" id="Fill-26" fill="#43769D" sketch:type="MSShapeGroup"></path>
            <path d="M169.932347,29.4104348 L171.167101,29.4104348 L171.167101,33.3326087 L169.932347,33.3326087 L169.932347,29.4104348 Z M171.208061,28.3193478 C171.208061,28.6565217 170.947765,28.9291304 170.542126,28.9291304 C170.151682,28.9291304 169.892047,28.6565217 169.899975,28.3193478 C169.892047,27.9665217 170.151682,27.7017391 170.550054,27.7017391 C170.947765,27.7017391 171.200134,27.9665217 171.208061,28.3193478 L171.208061,28.3193478 Z" id="Fill-27" fill="#43769D" sketch:type="MSShapeGroup"></path>
            <path d="M172.158076,30.6619565 C172.158076,30.1721739 172.14222,29.7554348 172.126365,29.4104348 L173.198599,29.4104348 L173.255415,29.9478261 L173.279859,29.9478261 C173.442379,29.6993478 173.848679,29.3217391 174.506686,29.3217391 C175.319285,29.3217391 175.928404,29.8513043 175.928404,31.0063043 L175.928404,33.3326087 L174.692989,33.3326087 L174.692989,31.158913 C174.692989,30.6534783 174.514614,30.3084783 174.068014,30.3084783 C173.726458,30.3084783 173.523639,30.5413043 173.442379,30.7656522 C173.410007,30.8458696 173.39283,30.9580435 173.39283,31.0708696 L173.39283,33.3326087 L172.158076,33.3326087 L172.158076,30.6619565" id="Fill-28" fill="#43769D" sketch:type="MSShapeGroup"></path>
            <path d="M179.445704,31.0063043 C179.445704,30.926087 179.437116,30.8458696 179.42126,30.7819565 C179.332072,30.461087 179.09556,30.2445652 178.754664,30.2445652 C178.308065,30.2445652 177.942065,30.6456522 177.942065,31.3597826 C177.942065,31.9447826 178.234733,32.4019565 178.754664,32.4019565 C179.071776,32.4019565 179.323484,32.1932609 179.404744,31.905 C179.437116,31.8169565 179.445704,31.6884783 179.445704,31.5841304 L179.445704,31.0063043 L179.445704,31.0063043 Z M180.680458,32.7632609 C180.680458,33.5171739 180.525866,34.1347826 180.079267,34.5273913 C179.640596,34.8965217 179.047332,35.0086957 178.461996,35.0086957 C177.942065,35.0086957 177.389762,34.905 177.03235,34.7041304 L177.275469,33.7813043 C177.527838,33.926087 177.966509,34.0780435 178.430285,34.0780435 C179.0143,34.0780435 179.46156,33.7656522 179.46156,33.0436957 L179.46156,32.7867391 L179.445704,32.7867391 C179.209852,33.116087 178.827996,33.3006522 178.373469,33.3006522 C177.389762,33.3006522 176.691455,32.5147826 176.691455,31.3832609 C176.691455,30.123913 177.51991,29.3217391 178.494368,29.3217391 C179.038744,29.3217391 179.3803,29.5545652 179.58378,29.8754348 L179.599635,29.8754348 L179.640596,29.4104348 L180.71283,29.4104348 C180.696314,29.658913 180.680458,29.9876087 180.680458,30.5732609 L180.680458,32.7632609 L180.680458,32.7632609 Z" id="Fill-29" fill="#43769D" sketch:type="MSShapeGroup"></path>
            <path d="M117.541495,39.7630435 L117.980827,39.7630435 C118.687061,39.7630435 119.199065,39.4343478 119.199065,38.8806522 C119.199065,38.4391304 118.849581,38.2473913 118.32965,38.2473913 C118.110314,38.2473913 117.924011,38.2630435 117.825574,38.2871739 L117.541495,39.7630435 L117.541495,39.7630435 Z M117.053935,42.2256522 C117.208527,42.2497826 117.378975,42.2497826 117.558011,42.2497826 C118.264245,42.2497826 118.914986,41.9686957 118.914986,41.2467391 C118.914986,40.6695652 118.419498,40.4530435 117.842751,40.4530435 L117.395491,40.4530435 L117.053935,42.2256522 L117.053935,42.2256522 Z M117.013635,37.6376087 C117.378975,37.5573913 117.834162,37.5091304 118.32965,37.5091304 C118.898469,37.5091304 119.312697,37.6056522 119.645664,37.8378261 C119.962776,38.0308696 120.174184,38.351087 120.174184,38.7606522 C120.174184,39.4421739 119.637736,39.9071739 119.036545,40.0676087 L119.036545,40.0917391 C119.548549,40.2443478 119.913888,40.661087 119.913888,41.2786957 C119.913888,41.8486957 119.604704,42.2732609 119.206993,42.5458696 C118.751805,42.8673913 118.102386,42.9952174 117.273271,42.9952174 C116.720968,42.9952174 116.26578,42.9554348 116.005484,42.9071739 L117.013635,37.6376087 L117.013635,37.6376087 Z" id="Fill-30" fill="#43769D" sketch:type="MSShapeGroup"></path>
            <path d="M123.845415,39.7226087 C123.7483,39.6991304 123.626079,39.6828261 123.456292,39.6828261 C122.578289,39.6828261 121.903765,40.6532609 121.903765,41.5434783 C121.903765,41.9530435 122.058357,42.2895652 122.472585,42.2895652 C122.911256,42.2895652 123.447704,41.7443478 123.634668,40.7491304 L123.845415,39.7226087 L123.845415,39.7226087 Z M123.456292,42.9554348 C123.46356,42.7226087 123.496592,42.4095652 123.528964,42.0730435 L123.50452,42.0730435 C123.114736,42.795 122.594805,43.0434783 122.090729,43.0434783 C121.383834,43.0434783 120.921379,42.4982609 120.921379,41.7117391 C120.921379,40.3806522 121.862805,38.9608696 123.707339,38.9608696 C124.138744,38.9608696 124.601859,39.041087 124.902455,39.1376087 L124.496155,41.1743478 C124.382523,41.76 124.317119,42.4897826 124.333635,42.9554348 L123.456292,42.9554348 L123.456292,42.9554348 Z" id="Fill-31" fill="#43769D" sketch:type="MSShapeGroup"></path>
            <path d="M125.745444,42.0808696 C125.948924,42.1930435 126.338708,42.3456522 126.696119,42.3456522 C127.077975,42.3378261 127.305899,42.1206522 127.305899,41.8643478 C127.305899,41.6158696 127.17509,41.4632609 126.785968,41.2630435 C126.33078,41.0223913 126.00574,40.6936957 126.00574,40.2443478 C126.00574,39.4904348 126.672336,38.9608696 127.606495,38.9608696 C128.020722,38.9608696 128.361617,39.0573913 128.540653,39.161087 L128.296874,39.8354348 C128.15087,39.7552174 127.882646,39.6586957 127.557606,39.6586957 C127.200195,39.6586957 126.955755,39.851087 126.955755,40.1158696 C126.955755,40.3323913 127.135451,40.485 127.468419,40.6532609 C127.898502,40.886087 128.288946,41.2069565 128.288946,41.703913 C128.288946,42.5621739 127.557606,43.0434783 126.606931,43.0434783 C126.143816,43.0356522 125.713733,42.9071739 125.501664,42.7545652 L125.745444,42.0808696" id="Fill-32" fill="#43769D" sketch:type="MSShapeGroup"></path>
            <path d="M131.985282,40.0597826 C131.985282,39.8106522 131.781801,39.6586957 131.481206,39.6586957 C130.887942,39.6586957 130.498159,40.1797826 130.384527,40.6532609 C131.358986,40.6695652 131.985282,40.5326087 131.985282,40.0676087 L131.985282,40.0597826 L131.985282,40.0597826 Z M132.382993,42.731087 C131.992549,42.9313043 131.46535,43.0434783 130.985718,43.0434783 C129.888379,43.0434783 129.36052,42.3776087 129.36052,41.4234783 C129.36052,40.2443478 130.237863,38.9608696 131.603426,38.9608696 C132.382993,38.9608696 132.87848,39.4102174 132.87848,40.0597826 C132.87848,41.0621739 131.814173,41.3830435 130.28609,41.351087 C130.270235,41.4873913 130.303267,41.7521739 130.392455,41.9041304 C130.547047,42.1695652 130.831126,42.3058696 131.205054,42.3058696 C131.651653,42.3058696 132.009065,42.1930435 132.293805,42.048913 L132.382993,42.731087 L132.382993,42.731087 Z" id="Fill-33" fill="#43769D" sketch:type="MSShapeGroup"></path>
            <path d="M136.615116,39.8354348 C136.501484,39.7552174 136.306592,39.6828261 136.070079,39.6828261 C135.258141,39.6828261 134.656949,40.5730435 134.656949,41.4476087 C134.656949,41.9204348 134.843913,42.2895652 135.290513,42.2895652 C135.712668,42.2895652 136.216744,41.8323913 136.379264,41.0223913 L136.615116,39.8354348 L136.615116,39.8354348 Z M138.045422,37.2606522 L137.216307,41.5676087 C137.127119,42.0169565 137.061715,42.5302174 137.037271,42.9554348 L136.167856,42.9554348 L136.249116,42.2576087 L136.232599,42.2576087 C135.875188,42.795 135.388289,43.0434783 134.876285,43.0434783 C134.168729,43.0434783 133.673242,42.4741304 133.673242,41.5917391 C133.673242,40.2202174 134.689321,38.9608696 136.144072,38.9608696 C136.346892,38.9608696 136.582744,39.0013043 136.753191,39.0730435 L137.102675,37.2606522 L138.045422,37.2606522 L138.045422,37.2606522 Z" id="Fill-34" fill="#43769D" sketch:type="MSShapeGroup"></path>
            <path d="M141.699477,38.4880435 C141.414736,38.4880435 141.219845,38.2793478 141.219845,37.9904348 C141.219845,37.6532609 141.480141,37.421087 141.788664,37.421087 C142.081332,37.421087 142.292079,37.6297826 142.292079,37.9258696 C142.284812,38.2708696 142.024516,38.4880435 141.707404,38.4880435 L141.699477,38.4880435 L141.699477,38.4880435 Z M140.318058,42.9554348 L141.073841,39.0495652 L142.015928,39.0495652 L141.260805,42.9554348 L140.318058,42.9554348 L140.318058,42.9554348 Z" id="Fill-35" fill="#43769D" sketch:type="MSShapeGroup"></path>
            <path d="M142.747267,42.9554348 L143.25861,40.26 C143.356386,39.795 143.413863,39.386087 143.46209,39.0495652 L144.298473,39.0495652 L144.217213,39.7552174 L144.23439,39.7552174 C144.599069,39.2256522 145.103144,38.9608696 145.655448,38.9608696 C146.216339,38.9608696 146.663599,39.2973913 146.663599,40.0356522 C146.663599,40.2123913 146.631227,40.485 146.590267,40.6852174 L146.151596,42.9554348 L145.208848,42.9554348 L145.631664,40.7491304 C145.655448,40.605 145.679892,40.4367391 145.679892,40.2847826 C145.679892,39.9632609 145.558332,39.7226087 145.184404,39.7226087 C144.754321,39.7226087 144.201357,40.2358696 144.03091,41.1508696 L143.690014,42.9554348 L142.747267,42.9554348" id="Fill-36" fill="#43769D" sketch:type="MSShapeGroup"></path>
            <path d="M150.691581,42.9554348 L150.017718,37.5495652 L150.984249,37.5495652 L151.3007,40.5247826 C151.366105,41.0863043 151.398477,41.5193478 151.422921,41.9843478 L151.439437,41.9843478 C151.618473,41.5434783 151.82922,41.0465217 152.11396,40.485 L153.575978,37.5495652 L154.623769,37.5495652 L151.772404,42.9554348 L150.691581,42.9554348" id="Fill-37" fill="#43769D" sketch:type="MSShapeGroup"></path>
            <path d="M157.052318,40.0597826 C157.052318,39.8106522 156.848838,39.6586957 156.548242,39.6586957 C155.954978,39.6586957 155.565195,40.1797826 155.451563,40.6532609 C156.426682,40.6695652 157.052318,40.5326087 157.052318,40.0676087 L157.052318,40.0597826 L157.052318,40.0597826 Z M157.45069,42.731087 C157.060245,42.9313043 156.532386,43.0434783 156.052755,43.0434783 C154.955415,43.0434783 154.427556,42.3776087 154.427556,41.4234783 C154.427556,40.2443478 155.30556,38.9608696 156.670462,38.9608696 C157.45069,38.9608696 157.946177,39.4102174 157.946177,40.0597826 C157.946177,41.0621739 156.881209,41.3830435 155.353787,41.351087 C155.337271,41.4873913 155.370303,41.7521739 155.459491,41.9041304 C155.614083,42.1695652 155.898162,42.3058696 156.27209,42.3058696 C156.71869,42.3058696 157.076101,42.1930435 157.360841,42.048913 L157.45069,42.731087 L157.45069,42.731087 Z" id="Fill-38" fill="#43769D" sketch:type="MSShapeGroup"></path>
            <path d="M158.643823,42.9554348 L159.106939,40.548913 C159.212643,39.9958696 159.261531,39.4023913 159.310419,39.0495652 L160.130946,39.0495652 C160.106502,39.3136957 160.082058,39.5863043 160.041758,39.8752174 L160.066202,39.8752174 C160.333765,39.3463043 160.764509,38.9608696 161.308884,38.9608696 C161.373628,38.9608696 161.44696,38.9686957 161.511704,38.9771739 L161.325401,39.8915217 C161.276513,39.8830435 161.211769,39.8752174 161.146365,39.8752174 C160.471841,39.8752174 160.041758,40.548913 159.887166,41.3830435 L159.58657,42.9554348 L158.643823,42.9554348" id="Fill-39" fill="#43769D" sketch:type="MSShapeGroup"></path>
            <path d="M161.868455,42.9554348 L162.372531,40.26 C162.461718,39.795 162.526462,39.386087 162.567422,39.0495652 L163.387949,39.0495652 L163.30669,39.731087 L163.315278,39.731087 C163.688545,39.2093478 164.175444,38.9608696 164.688108,38.9608696 C165.305155,38.9608696 165.589895,39.3463043 165.622267,39.7630435 C165.971751,39.2256522 166.475827,38.9686957 167.019542,38.9608696 C167.563917,38.9608696 167.986733,39.3058696 167.986733,40.0036957 C167.986733,40.1719565 167.954361,40.4608696 167.921329,40.6695652 L167.482657,42.9554348 L166.565014,42.9554348 L166.978581,40.773913 C167.003686,40.6128261 167.036058,40.4367391 167.036058,40.2763043 C167.036058,39.9476087 166.897321,39.7226087 166.548498,39.7226087 C166.117755,39.7226087 165.638123,40.26 165.484191,41.0863043 L165.12678,42.9554348 L164.216404,42.9554348 L164.63922,40.7413043 C164.671592,40.5808696 164.688108,40.428913 164.688108,40.2847826 C164.688108,39.9873913 164.59826,39.7226087 164.216404,39.7226087 C163.777733,39.7226087 163.274318,40.3082609 163.127653,41.1026087 L162.786758,42.9554348 L161.868455,42.9554348" id="Fill-40" fill="#43769D" sketch:type="MSShapeGroup"></path>
            <path d="M170.016249,41.4071739 C170.016249,41.9445652 170.309578,42.3215217 170.788549,42.3215217 C171.494783,42.3215217 171.966487,41.3595652 171.966487,40.5808696 C171.966487,40.1797826 171.788112,39.6828261 171.211365,39.6828261 C170.454921,39.6828261 170.016249,40.6773913 170.016249,41.4071739 L170.016249,41.4071739 Z M172.950195,40.5808696 C172.950195,41.9041304 172.007448,43.0434783 170.658401,43.0434783 C169.658838,43.0434783 169.041791,42.3619565 169.041791,41.4313043 C169.041791,40.1080435 169.975949,38.9608696 171.324996,38.9608696 C172.389303,38.9608696 172.950195,39.7147826 172.950195,40.5808696 L172.950195,40.5808696 Z" id="Fill-41" fill="#43769D" sketch:type="MSShapeGroup"></path>
            <path d="M173.760812,42.9554348 L174.272816,40.26 C174.369931,39.795 174.427408,39.386087 174.475635,39.0495652 L175.312679,39.0495652 L175.231419,39.7552174 L175.247935,39.7552174 C175.613274,39.2256522 176.11735,38.9608696 176.668993,38.9608696 C177.229884,38.9608696 177.677144,39.2973913 177.677144,40.0356522 C177.677144,40.2123913 177.644773,40.485 177.604473,40.6852174 L177.165141,42.9554348 L176.223054,42.9554348 L176.645209,40.7491304 C176.668993,40.605 176.694097,40.4367391 176.694097,40.2847826 C176.694097,39.9632609 176.571877,39.7226087 176.19861,39.7226087 C175.767866,39.7226087 175.214903,40.2358696 175.044455,41.1508696 L174.70356,42.9554348 L173.760812,42.9554348" id="Fill-42" fill="#43769D" sketch:type="MSShapeGroup"></path>
            <path d="M180.650069,38.0465217 L180.455177,39.0495652 L181.348375,39.0495652 L181.203032,39.7708696 L180.317101,39.7708696 L179.999989,41.351087 C179.967617,41.5278261 179.935245,41.7365217 179.935245,41.8963043 C179.935245,42.1128261 180.032361,42.2497826 180.284069,42.2497826 C180.398361,42.2497826 180.511993,42.2413043 180.609108,42.2256522 L180.520581,42.9632609 C180.382505,43.0115217 180.130137,43.0434783 179.902213,43.0434783 C179.252794,43.0434783 178.960126,42.6828261 178.960126,42.2334783 C178.960126,42.0169565 178.98391,41.8004348 179.049314,41.5115217 L179.39087,39.7708696 L178.854422,39.7708696 L178.992498,39.0495652 L179.528946,39.0495652 L179.667022,38.3276087 L180.650069,38.0465217" id="Fill-43" fill="#43769D" sketch:type="MSShapeGroup"></path>
            <path d="M60.952213,18.1069565 C61.1708881,18.1382609 61.4404332,18.165 61.761509,18.1878261 C62.0819242,18.2113043 62.4214982,18.2223913 62.7815523,18.2223913 C63.7038195,18.2223913 64.5448267,18.1186957 65.3032527,17.9106522 C66.0616787,17.7019565 66.7144007,17.351087 67.2614188,16.8567391 C67.8090975,16.3630435 68.2312527,15.6952174 68.5285451,14.853913 C68.8251769,14.0126087 68.9738231,12.9586957 68.9738231,11.6934783 C68.9738231,10.5358696 68.8251769,9.54782609 68.5285451,8.72934783 C68.2312527,7.91152174 67.8130614,7.24369565 67.2733105,6.72652174 C66.7335596,6.20934783 66.0887653,5.835 65.3382671,5.60347826 C64.587769,5.37195652 63.7586534,5.25586957 62.8522419,5.25586957 C62.5549495,5.25586957 62.2305704,5.26043478 61.878444,5.2676087 C61.5269783,5.27543478 61.2177942,5.30217391 60.952213,5.34847826 L60.952213,18.1069565 L60.952213,18.1069565 Z M58.56,3.40369565 C59.0911625,3.3423913 59.7326534,3.28434783 60.4831516,3.23021739 C61.2336498,3.17608696 61.9682924,3.14934783 62.6877401,3.14934783 C65.6434874,3.14934783 67.8520397,3.89021739 69.3140578,5.37195652 C70.7760758,6.85369565 71.5074152,8.98434783 71.5074152,11.7626087 C71.5074152,14.6647826 70.7602202,16.8182609 69.2671516,18.2223913 C67.7734224,19.6278261 65.5490144,20.3302174 62.5939278,20.3302174 C61.8586245,20.3302174 61.1319097,20.3028261 60.4124621,20.2486957 C59.6930144,20.1945652 59.0759675,20.1286957 58.56,20.0523913 L58.56,3.40369565 L58.56,3.40369565 Z" id="Fill-44" fill="#636462" sketch:type="MSShapeGroup"></path>
            <path d="M82.4372058,12.9665217 C82.4372058,12.5347826 82.3784079,12.1213043 82.2614729,11.7280435 C82.1438773,11.3341304 81.9714477,10.991087 81.7455054,10.6976087 C81.5182419,10.4041304 81.2295379,10.1686957 80.8774116,9.99130435 C80.5259458,9.81391304 80.1070939,9.72521739 79.6221769,9.72521739 C78.6688592,9.72521739 77.9375199,10.0108696 77.4294801,10.5821739 C76.9214404,11.1528261 76.6122563,11.9478261 76.5032491,12.9665217 L82.4372058,12.9665217 L82.4372058,12.9665217 Z M76.4794657,14.6797826 C76.5105162,15.9769565 76.8507509,16.9258696 77.499509,17.5284783 C78.1482671,18.1297826 79.10687,18.4317391 80.3733357,18.4317391 C81.4832274,18.4317391 82.5389458,18.2380435 83.5398303,17.8526087 C83.6646931,18.0841304 83.7664332,18.3658696 83.8443899,18.6978261 C83.9230072,19.0291304 83.9699134,19.3571739 83.9851083,19.6813043 C83.4691408,19.8978261 82.9023032,20.0595652 82.2845957,20.1678261 C81.6668881,20.2754348 80.9831155,20.3302174 80.2326173,20.3302174 C79.1379206,20.3302174 78.1997978,20.178913 77.4175884,19.8782609 C76.6360397,19.5776087 75.9905848,19.1530435 75.4825451,18.6045652 C74.9745054,18.0573913 74.6032202,17.4084783 74.3686895,16.6597826 C74.1341588,15.911087 74.0165632,15.0893478 74.0165632,14.193913 C74.0165632,13.3141304 74.1301949,12.4917391 74.3567978,11.7280435 C74.5834007,10.9636957 74.9315632,10.3004348 75.4006245,9.73695652 C75.8696859,9.17347826 76.4596462,8.72608696 77.1718267,8.39347826 C77.8826859,8.06217391 78.7230325,7.89586957 79.6928664,7.89586957 C80.5213213,7.89586957 81.2486968,8.03478261 81.8743321,8.3126087 C82.4993069,8.59043478 83.0238628,8.9726087 83.4460181,9.45913043 C83.8681733,9.945 84.1885884,10.5241304 84.4072635,11.1952174 C84.6265993,11.8669565 84.7356065,12.596087 84.7356065,13.383913 C84.7356065,13.5997826 84.7276787,13.8273913 84.7124838,14.0667391 C84.6966282,14.306087 84.6807726,14.5108696 84.6655776,14.6797826 L76.4794657,14.6797826 L76.4794657,14.6797826 Z" id="Fill-45" fill="#636462" sketch:type="MSShapeGroup"></path>
            <path d="M87.5744188,17.8982609 C87.9959134,18.0691304 88.4610108,18.2034783 88.9697112,18.303913 C89.4777509,18.4043478 89.9818267,18.453913 90.4825993,18.453913 C90.8419928,18.453913 91.1861913,18.416087 91.5145343,18.3384783 C91.8428773,18.2615217 92.1276173,18.146087 92.3707365,17.9908696 C92.6131949,17.8376087 92.8080866,17.6478261 92.9567329,17.4241304 C93.1053791,17.2004348 93.1800325,16.9493478 93.1800325,16.6715217 C93.1800325,16.3630435 93.1212347,16.1080435 93.003639,15.9071739 C92.886704,15.7069565 92.73013,15.5367391 92.5345776,15.3978261 C92.3390253,15.258913 92.1124224,15.1395652 91.854769,15.0391304 C91.5964549,14.9386957 91.3189819,14.8421739 91.0223502,14.7495652 L90.2011625,14.4482609 C89.200278,14.0784783 88.4729025,13.661087 88.0196968,13.1980435 C87.5658303,12.735 87.3392274,12.1102174 87.3392274,11.3223913 C87.3392274,10.2730435 87.7184404,9.43956522 88.4768664,8.82195652 C89.2352924,8.205 90.3498087,7.89586957 91.8190939,7.89586957 C92.4295343,7.89586957 93.0274224,7.95391304 93.6140794,8.06934783 C94.2000758,8.18543478 94.7120794,8.32043478 95.1500903,8.47434783 C95.1190397,8.78347826 95.0602419,9.09195652 94.9743574,9.40108696 C94.8878123,9.70956522 94.782769,9.99521739 94.6572455,10.2580435 C94.3137076,10.1341304 93.9027834,10.0141304 93.4264549,9.89869565 C92.9488051,9.78326087 92.4368014,9.72521739 91.8897834,9.72521739 C91.3110542,9.72521739 90.7990505,9.82565217 90.3531119,10.0258696 C89.9078339,10.2267391 89.6851949,10.5821739 89.6851949,11.0915217 C89.6851949,11.3536957 89.7393682,11.5773913 89.8490361,11.7626087 C89.958704,11.9478261 90.1073502,12.1063043 90.2949747,12.2373913 C90.4825993,12.3684783 90.6973105,12.4806522 90.939769,12.5732609 C91.1822274,12.6658696 91.4438448,12.7584783 91.7252816,12.851087 L92.7578773,13.1980435 C93.1331264,13.3219565 93.488556,13.4686957 93.8248267,13.6382609 C94.1610975,13.8084783 94.4498014,14.0204348 94.6929206,14.2747826 C94.9353791,14.5297826 95.1302708,14.838913 95.278917,15.2008696 C95.4275632,15.5641304 95.5022166,15.9997826 95.5022166,16.5097826 C95.5022166,17.081087 95.3846209,17.6015217 95.1500903,18.0723913 C94.9155596,18.5432609 94.5832527,18.9443478 94.1531697,19.2763043 C93.7230866,19.6082609 93.2031552,19.8671739 92.5933755,20.0523913 C91.9835957,20.2369565 91.3110542,20.3302174 90.5764116,20.3302174 C89.8259134,20.3302174 89.1685668,20.28 88.6056931,20.178913 C88.0428195,20.0784783 87.5189242,19.9441304 87.0346679,19.773913 C87.0657184,19.4654348 87.1317834,19.1530435 87.2341841,18.836087 C87.3352635,18.5204348 87.4482347,18.2073913 87.5744188,17.8982609" id="Fill-46" fill="#636462" sketch:type="MSShapeGroup"></path>
            <path d="M98.6442671,5.55717391 C98.6132166,5.37195652 98.5940578,5.17173913 98.58613,4.95521739 C98.5782022,4.73934783 98.5742383,4.54630435 98.5742383,4.37608696 C98.5742383,4.20652174 98.5782022,4.01347826 98.58613,3.7976087 C98.5940578,3.58173913 98.6132166,3.38869565 98.6442671,3.21847826 C98.8477473,3.18782609 99.067083,3.16434783 99.3016137,3.14934783 C99.5361444,3.13369565 99.7389639,3.12586957 99.9113935,3.12586957 C100.083162,3.12586957 100.286643,3.13369565 100.521173,3.14934783 C100.755704,3.16434783 100.966451,3.18782609 101.154736,3.21847826 C101.185126,3.38869565 101.204946,3.58173913 101.213534,3.7976087 C101.220801,4.01347826 101.224765,4.20652174 101.224765,4.37608696 C101.224765,4.54630435 101.220801,4.73934783 101.213534,4.95521739 C101.204946,5.17173913 101.185126,5.37195652 101.154736,5.55717391 C100.966451,5.58847826 100.759668,5.61130435 100.533065,5.62695652 C100.305801,5.64195652 100.106946,5.64978261 99.9351769,5.64978261 C99.7468917,5.64978261 99.5361444,5.64195652 99.3016137,5.62695652 C99.067083,5.61130435 98.8477473,5.58847826 98.6442671,5.55717391 L98.6442671,5.55717391 Z M99.1608953,9.97956522 L97.6361155,9.97956522 C97.6044043,9.85630435 97.5812816,9.71347826 97.5660866,9.55108696 C97.550231,9.38934783 97.5423032,9.23152174 97.5423032,9.07695652 C97.5423032,8.9223913 97.550231,8.76391304 97.5660866,8.60217391 C97.5812816,8.43978261 97.6044043,8.2976087 97.6361155,8.17369565 L101.436173,8.17369565 L101.436173,20.0523913 C101.263744,20.0830435 101.072816,20.1058696 100.861408,20.1215217 C100.650661,20.1365217 100.458412,20.1443478 100.286643,20.1443478 C100.130069,20.1443478 99.9464079,20.1365217 99.7356606,20.1215217 C99.5242527,20.1058696 99.3326643,20.0830435 99.1608953,20.0523913 L99.1608953,9.97956522 L99.1608953,9.97956522 Z" id="Fill-47" fill="#636462" sketch:type="MSShapeGroup"></path>
            <path d="M109.574718,14.5643478 C110.419029,14.5643478 111.044664,14.3328261 111.450964,13.8697826 C111.857924,13.4067391 112.061404,12.8126087 112.061404,12.0867391 C112.061404,11.3458696 111.857924,10.74 111.450964,10.2691304 C111.044664,9.79891304 110.419029,9.56282609 109.574718,9.56282609 C108.730408,9.56282609 108.108736,9.79891304 107.710365,10.2691304 C107.311332,10.74 107.112477,11.3458696 107.112477,12.0867391 C107.112477,12.8126087 107.311332,13.4067391 107.710365,13.8697826 C108.108736,14.3328261 108.730408,14.5643478 109.574718,14.5643478 L109.574718,14.5643478 Z M108.495877,20.3530435 C107.792285,20.3380435 107.264426,20.5226087 106.91296,20.9086957 C106.560834,21.2941304 106.385101,21.7578261 106.385101,22.2984783 C106.385101,22.6376087 106.45513,22.9154348 106.595848,23.1313043 C106.736567,23.3478261 106.936083,23.5213043 107.193736,23.6523913 C107.452051,23.7834783 107.75661,23.876087 108.108736,23.9308696 C108.460863,23.9843478 108.847343,24.0117391 109.270159,24.0117391 C110.520769,24.0117391 111.498531,23.8069565 112.202123,23.3980435 C112.905715,22.9884783 113.257181,22.4758696 113.257181,21.8582609 C113.257181,21.3952174 113.108534,21.0397826 112.811903,20.7926087 C112.51461,20.546087 111.967592,20.4143478 111.170188,20.3993478 L108.495877,20.3530435 L108.495877,20.3530435 Z M111.662372,18.5236957 C113.0537,18.555 114.062513,18.8478261 114.688809,19.4041304 C115.313123,19.9597826 115.626271,20.7234783 115.626271,21.6958696 C115.626271,22.3291304 115.46243,22.8958696 115.134087,23.3980435 C114.805744,23.898913 114.351877,24.3313043 113.773809,24.6945652 C113.195079,25.0571739 112.510646,25.335 111.72117,25.5280435 C110.931032,25.721087 110.07483,25.8176087 109.153224,25.8176087 C107.541899,25.8176087 106.315072,25.5704348 105.470101,25.0767391 C104.625791,24.5823913 104.203635,23.8030435 104.203635,22.7380435 C104.203635,22.1047826 104.375404,21.5373913 104.719603,21.0365217 C105.063141,20.5343478 105.509079,20.1365217 106.056758,19.8436957 C105.74361,19.6428261 105.481993,19.3917391 105.270585,19.091087 C105.059838,18.7904348 104.954134,18.416087 104.954134,17.9680435 C104.954134,17.3973913 105.08296,16.9030435 105.341274,16.4863043 C105.598928,16.0695652 105.94709,15.6991304 106.385101,15.375 C105.869134,15.0195652 105.454245,14.5604348 105.141758,13.9969565 C104.82861,13.4341304 104.672697,12.7969565 104.672697,12.0867391 C104.672697,11.5004348 104.781704,10.9519565 105.00104,10.4426087 C105.219715,9.93326087 105.536166,9.48978261 105.951054,9.11152174 C106.365282,8.73326087 106.877946,8.43652174 107.487065,8.22 C108.097505,8.00413043 108.79317,7.89586957 109.574718,7.89586957 C110.278971,7.89586957 110.915838,7.99630435 111.486639,8.19652174 C112.05678,8.39804348 112.545661,8.6523913 112.952621,8.96086957 C113.265108,8.71434783 113.687924,8.50956522 114.219087,8.34717391 C114.750249,8.18543478 115.336906,8.10391304 115.978397,8.10391304 C116.040498,8.39804348 116.072209,8.72152174 116.072209,9.07695652 C116.072209,9.24652174 116.064282,9.42391304 116.049087,9.60913043 C116.033231,9.79434783 116.009448,9.97956522 115.978397,10.1647826 L113.867621,10.1647826 C114.038729,10.4276087 114.172181,10.7132609 114.265993,11.0217391 C114.359805,11.3308696 114.406711,11.6856522 114.406711,12.0867391 C114.406711,12.72 114.289116,13.2913043 114.054585,13.8 C113.820054,14.3093478 113.488408,14.7463043 113.058325,15.108913 C112.628242,15.4708696 112.115578,15.7493478 111.521653,15.9417391 C110.927069,16.1347826 110.278971,16.2313043 109.574718,16.2313043 C108.933888,16.2313043 108.355159,16.1621739 107.839191,16.0232609 C107.619856,16.1471739 107.405805,16.3356522 107.193736,16.5906522 C106.982989,16.845 106.877946,17.1195652 106.877946,17.4123913 C106.877946,17.6902174 106.979025,17.9328261 107.182505,18.1421739 C107.385325,18.3502174 107.839191,18.4623913 108.542783,18.4773913 L111.662372,18.5236957 L111.662372,18.5236957 Z" id="Fill-48" fill="#636462" sketch:type="MSShapeGroup"></path>
            <path d="M118.182986,8.17369565 C118.354755,8.14304348 118.52322,8.11956522 118.687061,8.10391304 C118.851563,8.08891304 119.019368,8.08108696 119.191137,8.08108696 C119.363567,8.08108696 119.523444,8.08891304 119.672751,8.10391304 C119.821397,8.11956522 119.981274,8.14304348 120.153043,8.17369565 C120.20061,8.40521739 120.246856,8.7176087 120.294422,9.11152174 C120.340668,9.50478261 120.364451,9.83347826 120.364451,10.0956522 C120.520365,9.83347826 120.719881,9.57065217 120.962339,9.30847826 C121.204798,9.04565217 121.48161,8.81021739 121.794758,8.60217391 C122.107906,8.39347826 122.4673,8.22391304 122.87426,8.09282609 C123.28056,7.96173913 123.725838,7.89586957 124.210755,7.89586957 C125.586888,7.89586957 126.603628,8.28586957 127.260314,9.06521739 C127.917,9.84521739 128.245343,10.9982609 128.245343,12.5269565 L128.245343,20.0523913 C128.072913,20.0830435 127.878022,20.1058696 127.659347,20.1215217 C127.440011,20.1365217 127.244458,20.1443478 127.07269,20.1443478 C126.900921,20.1443478 126.708671,20.1365217 126.497924,20.1215217 C126.286516,20.1058696 126.095588,20.0830435 125.923159,20.0523913 L125.923159,13.1517391 C125.923159,12.056087 125.75139,11.2493478 125.407852,10.7321739 C125.063653,10.215 124.515975,9.95673913 123.765477,9.95673913 C123.327466,9.95673913 122.913238,10.0336957 122.522134,10.1882609 C122.13169,10.3428261 121.787491,10.5821739 121.490199,10.9056522 C121.192906,11.2297826 120.954412,11.651087 120.774715,12.1676087 C120.595018,12.6854348 120.50517,13.3063043 120.50517,14.0321739 L120.50517,20.0523913 C120.33274,20.0830435 120.141812,20.1058696 119.930404,20.1215217 C119.718996,20.1365217 119.528069,20.1443478 119.355639,20.1443478 C119.18387,20.1443478 118.987657,20.1365217 118.768982,20.1215217 C118.550307,20.1058696 118.354755,20.0830435 118.182986,20.0523913 L118.182986,8.17369565" id="Fill-49" fill="#636462" sketch:type="MSShapeGroup"></path>
            <path d="M131.50565,3.40369565 L141.075823,3.40369565 C141.169635,3.86673913 141.216542,4.3376087 141.216542,4.81630435 C141.216542,5.32565217 141.169635,5.81217391 141.075823,6.27521739 L134.930458,6.27521739 L134.930458,9.88695652 L139.808697,9.88695652 C139.902509,10.3813043 139.950076,10.86 139.950076,11.3223913 C139.950076,11.8167391 139.902509,12.3032609 139.808697,12.7813043 L134.930458,12.7813043 L134.930458,17.1808696 L141.239664,17.1808696 C141.334137,17.643913 141.380383,18.1147826 141.380383,18.5934783 C141.380383,19.1028261 141.334137,19.5886957 141.239664,20.0523913 L131.50565,20.0523913 L131.50565,3.40369565" id="Fill-50" fill="#636462" sketch:type="MSShapeGroup"></path>
            <path d="M151.231332,10.5586957 C150.918184,10.4817391 150.664495,10.4308696 150.468942,10.4080435 C150.27339,10.3852174 150.026968,10.3734783 149.730336,10.3734783 C149.214368,10.3734783 148.765126,10.4778261 148.381949,10.6858696 C147.998112,10.8945652 147.681661,11.1723913 147.431935,11.5193478 C147.181549,11.8669565 146.997888,12.2758696 146.880292,12.7467391 C146.763357,13.2182609 146.70456,13.7080435 146.70456,14.2167391 C146.70456,14.85 146.782516,15.386087 146.93909,15.8263043 C147.095004,16.2658696 147.310375,16.6180435 147.584545,16.8795652 C147.858054,17.1423913 148.182433,17.3315217 148.557682,17.4469565 C148.932271,17.5630435 149.339231,17.621087 149.777242,17.621087 C150.042823,17.621087 150.285282,17.6093478 150.504617,17.5865217 C150.723292,17.5630435 150.965751,17.5134783 151.231332,17.4352174 L151.231332,10.5586957 L151.231332,10.5586957 Z M151.231332,3.12586957 C151.51343,3.07956522 151.790242,3.04891304 152.063751,3.03326087 C152.33726,3.01826087 152.607466,3.00978261 152.873708,3.00978261 C153.138628,3.00978261 153.412798,3.01826087 153.694235,3.03326087 C153.975671,3.04891304 154.257108,3.07956522 154.538545,3.12586957 L154.538545,19.6584783 C153.803903,19.8743478 153.057368,20.0406522 152.298942,20.1567391 C151.539856,20.2721739 150.622213,20.3302174 149.542711,20.3302174 C148.713596,20.3302174 147.920155,20.2173913 147.16239,19.9943478 C146.403303,19.7706522 145.734726,19.4152174 145.156657,18.9293478 C144.577928,18.4428261 144.120758,17.8141304 143.784487,17.0419565 C143.448217,16.2704348 143.279751,15.3280435 143.279751,14.2167391 C143.279751,13.3369565 143.424433,12.5073913 143.713798,11.7280435 C144.003162,10.9486957 144.41739,10.2730435 144.957141,9.70173913 C145.496231,9.13108696 146.148953,8.67913043 146.915307,8.34717391 C147.681661,8.01521739 148.533899,7.84956522 149.472682,7.84956522 C149.753458,7.84956522 150.046787,7.86065217 150.351347,7.88413043 C150.657227,7.9076087 150.949895,7.95782609 151.231332,8.03478261 L151.231332,3.12586957 L151.231332,3.12586957 Z" id="Fill-51" fill="#636462" sketch:type="MSShapeGroup"></path>
            <path d="M162.513249,14.1476087 C163.170596,14.1476087 163.64296,13.9623913 163.932325,13.5919565 C164.22169,13.2215217 164.367032,12.7121739 164.367032,12.063913 C164.367032,11.4156522 164.22169,10.9023913 163.932325,10.5241304 C163.64296,10.1458696 163.170596,9.95673913 162.513249,9.95673913 C161.840708,9.95673913 161.356451,10.1458696 161.059159,10.5241304 C160.762527,10.9023913 160.613881,11.4156522 160.613881,12.063913 C160.613881,12.7121739 160.762527,13.2215217 161.059159,13.5919565 C161.356451,13.9623913 161.840708,14.1476087 162.513249,14.1476087 L162.513249,14.1476087 Z M161.552004,20.4684783 C161.207805,20.4534783 160.922404,20.4919565 160.695801,20.5845652 C160.469199,20.6771739 160.289502,20.7965217 160.156711,20.943913 C160.02326,21.09 159.929448,21.2523913 159.874614,21.4297826 C159.81978,21.6071739 159.792693,21.7806522 159.792693,21.9508696 C159.792693,22.5371739 160.015993,22.935 160.461271,23.1430435 C160.907209,23.3517391 161.505097,23.456087 162.255596,23.456087 C163.240625,23.456087 164.034726,23.3015217 164.636578,22.9930435 C165.23843,22.683913 165.539686,22.2665217 165.539686,21.7421739 C165.539686,21.5876087 165.519206,21.4415217 165.480888,21.3026087 C165.441249,21.1636957 165.367256,21.0365217 165.257588,20.9204348 C165.148581,20.805 164.995971,20.7078261 164.801079,20.6308696 C164.604866,20.553913 164.343249,20.5154348 164.014906,20.5154348 L161.552004,20.4684783 L161.552004,20.4684783 Z M164.553996,18.0606522 C165.977036,18.0919565 167.024827,18.4043478 167.697368,18.9984783 C168.36991,19.5932609 168.706181,20.4378261 168.706181,21.5341304 C168.706181,22.1823913 168.533751,22.7726087 168.189552,23.3047826 C167.845354,23.8382609 167.376292,24.2895652 166.783029,24.66 C166.188444,25.0297826 165.484191,25.316087 164.671592,25.5163043 C163.858332,25.7165217 162.982971,25.8176087 162.044848,25.8176087 C161.106726,25.8176087 160.308661,25.7445652 159.651975,25.5978261 C158.995289,25.4504348 158.459502,25.2463043 158.045274,24.9841304 C157.631047,24.7213043 157.333755,24.3971739 157.154058,24.0117391 C156.974361,23.6256522 156.884513,23.201087 156.884513,22.7380435 C156.884513,22.0434783 157.051657,21.4721739 157.388588,21.0241304 C157.724199,20.5767391 158.174762,20.1828261 158.737635,19.8436957 C158.377581,19.6278261 158.092181,19.3617391 157.881433,19.0447826 C157.670025,18.7284783 157.564321,18.3234783 157.564321,17.8291304 C157.564321,17.2428261 157.689184,16.7641304 157.940231,16.3936957 C158.189957,16.0232609 158.557278,15.6678261 159.042195,15.3280435 C158.494516,14.9432609 158.072361,14.4717391 157.775729,13.916087 C157.478437,13.3604348 157.329791,12.7434783 157.329791,12.063913 C157.329791,11.4619565 157.447386,10.9023913 157.681917,10.3852174 C157.916448,9.86804348 158.256682,9.42065217 158.702621,9.04173913 C159.147899,8.66413043 159.690953,8.36673913 160.332444,8.15021739 C160.973274,7.93434783 161.692722,7.82608696 162.490787,7.82608696 C163.272336,7.82608696 163.991123,7.94608696 164.647809,8.18543478 C165.305155,8.42478261 165.852173,8.72934783 166.290184,9.09978261 C166.586816,8.71434783 166.954137,8.42478261 167.392148,8.23173913 C167.830159,8.03869565 168.424744,7.94217391 169.174581,7.94217391 C169.206292,8.14304348 169.233379,8.34 169.257162,8.5323913 C169.280285,8.72608696 169.292177,8.93021739 169.292177,9.14608696 C169.292177,9.39326087 169.284249,9.64043478 169.269054,9.88695652 C169.253199,10.1341304 169.222148,10.3891304 169.174581,10.6513043 L167.275213,10.6513043 C167.35317,10.8058696 167.423859,10.991087 167.48596,11.2069565 C167.548722,11.4234783 167.580433,11.7084783 167.580433,12.063913 C167.580433,12.6658696 167.466141,13.2254348 167.240199,13.7426087 C167.012935,14.2597826 166.680628,14.7032609 166.242617,15.0743478 C165.805267,15.4441304 165.26948,15.7376087 164.636578,15.9541304 C164.003014,16.17 163.288191,16.2776087 162.490787,16.2776087 C161.817585,16.2776087 161.215733,16.2084783 160.68457,16.0695652 C160.417668,16.2397826 160.253827,16.421087 160.191726,16.6134783 C160.128964,16.8065217 160.097913,16.9878261 160.097913,17.1580435 C160.097913,17.4052174 160.179834,17.606087 160.344336,17.76 C160.508177,17.913913 160.839823,17.9993478 161.341256,18.0143478 L164.553996,18.0606522 L164.553996,18.0606522 Z" id="Fill-52" fill="#636462" sketch:type="MSShapeGroup"></path>
            <path d="M178.205664,12.7813043 C178.173953,12.0404348 177.96717,11.4423913 177.583993,10.9871739 C177.200816,10.5319565 176.66569,10.3036957 175.977953,10.3036957 C175.195744,10.3036957 174.601159,10.5202174 174.194859,10.9519565 C173.787899,11.3843478 173.54544,11.9941304 173.467484,12.7813043 L178.205664,12.7813043 L178.205664,12.7813043 Z M173.444361,15.0743478 C173.506462,15.9997826 173.834805,16.6715217 174.42939,17.0882609 C175.023314,17.505 175.804863,17.7136957 176.775357,17.7136957 C177.30652,17.7136957 177.850235,17.6634783 178.405181,17.5630435 C178.960126,17.4626087 179.487986,17.3197826 179.988097,17.1345652 C180.160527,17.4436957 180.309173,17.8141304 180.434036,18.2458696 C180.558899,18.6782609 180.629588,19.1413043 180.644783,19.6356522 C179.425224,20.0986957 178.04909,20.3302174 176.517043,20.3302174 C175.391296,20.3302174 174.425426,20.1756522 173.620094,19.8671739 C172.814101,19.5580435 172.157415,19.1302174 171.649375,18.5817391 C171.141336,18.033913 170.766087,17.3817391 170.523628,16.6252174 C170.28117,15.8686957 170.160271,15.0430435 170.160271,14.1476087 C170.160271,13.2678261 170.285134,12.4421739 170.536181,11.67 C170.785906,10.8984783 171.157191,10.2267391 171.649375,9.65543478 C172.14222,9.08478261 172.752661,8.63282609 173.479375,8.30086957 C174.206751,7.96891304 175.054365,7.80326087 176.024199,7.80326087 C176.86917,7.80326087 177.619007,7.95 178.275693,8.24347826 C178.932379,8.53630435 179.491949,8.9373913 179.953083,9.4473913 C180.414217,9.95673913 180.762379,10.5626087 180.99691,11.265 C181.23144,11.9673913 181.348375,12.72 181.348375,13.5228261 C181.348375,13.8163043 181.337144,14.1052174 181.313361,14.3908696 C181.290238,14.6765217 181.262491,14.9041304 181.23144,15.0743478 L173.444361,15.0743478 L173.444361,15.0743478 Z" id="Fill-53" fill="#636462" sketch:type="MSShapeGroup"></path>
            <path d="M0.230566787,0.206086957 C0.825812274,0.136956522 1.40718412,0.0906521739 1.97203971,0.067173913 C2.53623466,0.0436956522 3.11694585,0.0326086957 3.71417329,0.0326086957 C4.24665704,0.0326086957 4.79697834,0.0436956522 5.36183394,0.067173913 C5.92867148,0.0906521739 6.50806137,0.136956522 7.10198556,0.206086957 L7.10198556,13.2013043 C7.10198556,14.6191304 7.17333574,15.8315217 7.3160361,16.841087 C7.45675451,17.8513043 7.73951264,18.6886957 8.16364982,19.3519565 C8.587787,20.0126087 9.18237184,20.4984783 9.95202888,20.8134783 C10.7216859,21.1271739 11.7179458,21.285 12.9434513,21.285 C14.1696173,21.285 15.1553069,21.1271739 15.9104296,20.8134783 C16.6629097,20.4984783 17.2502274,20.0126087 17.6750253,19.3519565 C18.0991625,18.6886957 18.3799386,17.8513043 18.5219783,16.841087 C18.6620361,15.8315217 18.7333863,14.6191304 18.7333863,13.2013043 L18.7333863,0.206086957 C19.3636462,0.136956522 19.958231,0.0906521739 20.522426,0.067173913 C21.0899242,0.0436956522 21.6362816,0.0326086957 22.1714079,0.0326086957 C22.7356029,0.0326086957 23.3103682,0.0436956522 23.8910794,0.067173913 C24.4704693,0.0906521739 25.059769,0.136956522 25.6550144,0.206086957 L25.6550144,14.2813043 C25.6550144,15.9776087 25.4680505,17.5284783 25.0888375,18.933913 C24.7149097,20.3373913 24.0377437,21.5386957 23.0659278,22.5391304 C22.0947726,23.5376087 20.7893285,24.3104348 19.1581841,24.8563043 C17.5270397,25.4008696 15.4552419,25.6734783 12.9434513,25.6734783 C10.431,25.6734783 8.35920217,25.4008696 6.72739711,24.8563043 C5.09427076,24.3104348 3.79146931,23.5376087 2.81833213,22.5391304 C1.84651625,21.5386957 1.17067148,20.3373913 0.794761733,18.933913 C0.417530686,17.5284783 0.230566787,15.9776087 0.230566787,14.2813043 L0.230566787,0.206086957" id="Fill-54" fill="#636462" sketch:type="MSShapeGroup"></path>
            <path d="M0.230566787,0.206086957 C0.825812274,0.136956522 1.40718412,0.0906521739 1.97203971,0.067173913 C2.53623466,0.0436956522 3.11694585,0.0326086957 3.71417329,0.0326086957 C4.24665704,0.0326086957 4.79697834,0.0436956522 5.36183394,0.067173913 C5.92867148,0.0906521739 6.50806137,0.136956522 7.10198556,0.206086957 L7.10198556,13.2013043 C7.10198556,14.6191304 7.17333574,15.8315217 7.3160361,16.841087 C7.45675451,17.8513043 7.73951264,18.6886957 8.16364982,19.3519565 C8.587787,20.0126087 9.18237184,20.4984783 9.95202888,20.8134783 C10.7216859,21.1271739 11.7179458,21.285 12.9434513,21.285 C14.1696173,21.285 15.1553069,21.1271739 15.9104296,20.8134783 C16.6629097,20.4984783 17.2502274,20.0126087 17.6750253,19.3519565 C18.0991625,18.6886957 18.3799386,17.8513043 18.5219783,16.841087 C18.6620361,15.8315217 18.7333863,14.6191304 18.7333863,13.2013043 L18.7333863,0.206086957 C19.3636462,0.136956522 19.958231,0.0906521739 20.522426,0.067173913 C21.0899242,0.0436956522 21.6362816,0.0326086957 22.1714079,0.0326086957 C22.7356029,0.0326086957 23.3103682,0.0436956522 23.8910794,0.067173913 C24.4704693,0.0906521739 25.059769,0.136956522 25.6550144,0.206086957 L25.6550144,14.2813043 C25.6550144,15.9776087 25.4680505,17.5284783 25.0888375,18.933913 C24.7149097,20.3373913 24.0377437,21.5386957 23.0659278,22.5391304 C22.0947726,23.5376087 20.7893285,24.3104348 19.1581841,24.8563043 C17.5270397,25.4008696 15.4552419,25.6734783 12.9434513,25.6734783 C10.431,25.6734783 8.35920217,25.4008696 6.72739711,24.8563043 C5.09427076,24.3104348 3.79146931,23.5376087 2.81833213,22.5391304 C1.84651625,21.5386957 1.17067148,20.3373913 0.794761733,18.933913 C0.417530686,17.5284783 0.230566787,15.9776087 0.230566787,14.2813043 L0.230566787,0.206086957 L0.230566787,0.206086957 Z" id="Stroke-55" stroke="#FFFFFF" stroke-width="4.698" sketch:type="MSShapeGroup"></path>
            <path d="M40.0631264,12.2615217 L45.3357726,0.277173913 C46.5619386,0.136956522 47.7372347,0.067173913 48.8676065,0.067173913 C49.4621913,0.067173913 50.0680072,0.0795652174 50.6810903,0.103695652 C51.2915307,0.126521739 51.9132022,0.170869565 52.5388375,0.242608696 L46.5619386,12.1571739 L53.9050614,25.2547826 C53.1829711,25.3252174 52.5467653,25.3767391 51.9997473,25.413913 C51.4487653,25.4465217 50.8931588,25.466087 50.3276426,25.466087 C49.7938375,25.466087 49.251444,25.4465217 48.702444,25.413913 C48.153444,25.3767391 47.4855271,25.3147826 46.702657,25.2202174 L40.0631264,12.2615217 L40.0631264,12.2615217 Z M33.2353105,12.1571739 L27.1606354,0.242608696 C27.789574,0.170869565 28.4099242,0.126521739 29.0216859,0.103695652 C29.632787,0.0795652174 30.2386029,0.067173913 30.836491,0.067173913 C31.9655415,0.067173913 33.1414982,0.136956522 34.3656823,0.277173913 L39.7328014,12.2615217 L33.0007798,25.2202174 C32.2179097,25.3147826 31.5473502,25.3767391 30.9996715,25.413913 C30.4506715,25.4465217 29.9089386,25.466087 29.3757942,25.466087 C28.8089567,25.466087 28.2540108,25.4465217 27.7043502,25.413913 C27.1553502,25.3767391 26.5178231,25.3252174 25.7944116,25.2547826 L33.2353105,12.1571739 L33.2353105,12.1571739 Z" id="Fill-57" fill="#636462" sketch:type="MSShapeGroup"></path>
            <path d="M40.0631264,12.2615217 L45.3357726,0.277173913 C46.5619386,0.136956522 47.7372347,0.067173913 48.8676065,0.067173913 C49.4621913,0.067173913 50.0680072,0.0795652174 50.6810903,0.103695652 C51.2915307,0.126521739 51.9132022,0.170869565 52.5388375,0.242608696 L46.5619386,12.1571739 L53.9050614,25.2547826 C53.1829711,25.3252174 52.5467653,25.3767391 51.9997473,25.413913 C51.4487653,25.4465217 50.8931588,25.466087 50.3276426,25.466087 C49.7938375,25.466087 49.251444,25.4465217 48.702444,25.413913 C48.153444,25.3767391 47.4855271,25.3147826 46.702657,25.2202174 L40.0631264,12.2615217 L40.0631264,12.2615217 Z M33.2353105,12.1571739 L27.1606354,0.242608696 C27.789574,0.170869565 28.4099242,0.126521739 29.0216859,0.103695652 C29.632787,0.0795652174 30.2386029,0.067173913 30.836491,0.067173913 C31.9655415,0.067173913 33.1414982,0.136956522 34.3656823,0.277173913 L39.7328014,12.2615217 L33.0007798,25.2202174 C32.2179097,25.3147826 31.5473502,25.3767391 30.9996715,25.413913 C30.4506715,25.4465217 29.9089386,25.466087 29.3757942,25.466087 C28.8089567,25.466087 28.2540108,25.4465217 27.7043502,25.413913 C27.1553502,25.3767391 26.5178231,25.3252174 25.7944116,25.2547826 L33.2353105,12.1571739 L33.2353105,12.1571739 Z" id="Stroke-58" stroke="#FFFFFF" stroke-width="4.698" sketch:type="MSShapeGroup"></path>
            <path d="M0.230566787,0.206086957 C0.825812274,0.136956522 1.40718412,0.0906521739 1.97203971,0.067173913 C2.53623466,0.0436956522 3.11694585,0.0326086957 3.71417329,0.0326086957 C4.24665704,0.0326086957 4.79697834,0.0436956522 5.36183394,0.067173913 C5.92867148,0.0906521739 6.50806137,0.136956522 7.10198556,0.206086957 L7.10198556,13.2013043 C7.10198556,14.6191304 7.17333574,15.8315217 7.3160361,16.841087 C7.45675451,17.8513043 7.73951264,18.6886957 8.16364982,19.3519565 C8.587787,20.0126087 9.18237184,20.4984783 9.95202888,20.8134783 C10.7216859,21.1271739 11.7179458,21.285 12.9434513,21.285 C14.1696173,21.285 15.1553069,21.1271739 15.9104296,20.8134783 C16.6629097,20.4984783 17.2502274,20.0126087 17.6750253,19.3519565 C18.0991625,18.6886957 18.3799386,17.8513043 18.5219783,16.841087 C18.6620361,15.8315217 18.7333863,14.6191304 18.7333863,13.2013043 L18.7333863,0.206086957 C19.3636462,0.136956522 19.958231,0.0906521739 20.522426,0.067173913 C21.0899242,0.0436956522 21.6362816,0.0326086957 22.1714079,0.0326086957 C22.7356029,0.0326086957 23.3103682,0.0436956522 23.8910794,0.067173913 C24.4704693,0.0906521739 25.059769,0.136956522 25.6550144,0.206086957 L25.6550144,14.2813043 C25.6550144,15.9776087 25.4680505,17.5284783 25.0888375,18.933913 C24.7149097,20.3373913 24.0377437,21.5386957 23.0659278,22.5391304 C22.0947726,23.5376087 20.7893285,24.3104348 19.1581841,24.8563043 C17.5270397,25.4008696 15.4552419,25.6734783 12.9434513,25.6734783 C10.431,25.6734783 8.35920217,25.4008696 6.72739711,24.8563043 C5.09427076,24.3104348 3.79146931,23.5376087 2.81833213,22.5391304 C1.84651625,21.5386957 1.17067148,20.3373913 0.794761733,18.933913 C0.417530686,17.5284783 0.230566787,15.9776087 0.230566787,14.2813043 L0.230566787,0.206086957" id="Fill-60" fill="#43769D" sketch:type="MSShapeGroup"></path>
            <path d="M40.0631264,12.2615217 L45.3357726,0.277173913 C46.5619386,0.136956522 47.7372347,0.067173913 48.8676065,0.067173913 C49.4621913,0.067173913 50.0680072,0.0795652174 50.6810903,0.103695652 C51.2915307,0.126521739 51.9132022,0.170869565 52.5388375,0.242608696 L46.5619386,12.1571739 L53.9050614,25.2547826 C53.1829711,25.3252174 52.5467653,25.3767391 51.9997473,25.413913 C51.4487653,25.4465217 50.8931588,25.466087 50.3276426,25.466087 C49.7938375,25.466087 49.251444,25.4465217 48.702444,25.413913 C48.153444,25.3767391 47.4855271,25.3147826 46.702657,25.2202174 L40.0631264,12.2615217 L40.0631264,12.2615217 Z M33.2353105,12.1571739 L27.1606354,0.242608696 C27.789574,0.170869565 28.4099242,0.126521739 29.0216859,0.103695652 C29.632787,0.0795652174 30.2386029,0.067173913 30.836491,0.067173913 C31.9655415,0.067173913 33.1414982,0.136956522 34.3656823,0.277173913 L39.7328014,12.2615217 L33.0007798,25.2202174 C32.2179097,25.3147826 31.5473502,25.3767391 30.9996715,25.413913 C30.4506715,25.4465217 29.9089386,25.466087 29.3757942,25.466087 C28.8089567,25.466087 28.2540108,25.4465217 27.7043502,25.413913 C27.1553502,25.3767391 26.5178231,25.3252174 25.7944116,25.2547826 L33.2353105,12.1571739 L33.2353105,12.1571739 Z" id="Fill-61" fill="#43769D" sketch:type="MSShapeGroup"></path>
        </g>
    </g>
</svg>