<?xml version="1.0" encoding="UTF-8" standalone="no"?>
<svg width="119px" height="92px" viewBox="0 0 119 92" version="1.1" xmlns="http://www.w3.org/2000/svg" xmlns:xlink="http://www.w3.org/1999/xlink" xmlns:sketch="http://www.bohemiancoding.com/sketch/ns">
    <!-- Generator: Sketch 3.4.2 (15855) - http://www.bohemiancoding.com/sketch -->
    <title>Group</title>
    <desc>Created with Sketch.</desc>
    <defs>
        <path id="path-1" d="M58.803,29.779 C59.286,29.649 58.821,29.779 58.821,29.779 C59.278,29.612 59.854,29.782 59.945,30.039 C60.036,30.296 60.201,29.891 60.432,29.973 C60.664,30.055 60.871,30.425 61.072,30.364 C61.272,30.302 61.125,31.742 61.386,31.852 C61.647,31.963 61.633,32.768 61.809,32.994 C61.986,33.221 61.588,33.458 61.515,34.178 C61.442,34.898 61.515,34.178 61.713,35.583 C61.911,36.988 62.327,35.937 62.327,35.937 C63.965,24.126 100.174,-9.497 116.634,3.57 C117.252,4.061 116.855,7.365 116.382,8.09 C116.181,8.398 117.022,9.614 115.664,11.243 C115.341,11.631 115.881,12.719 114.694,13.312 C114.435,13.441 114.565,15.252 113.53,16.803 C113.073,17.49 112.259,18.036 112.028,18.436 C111.73,18.952 111.92,20.16 111.332,21.329 C110.717,22.55 109.594,23.637 109.399,23.953 C108.784,24.952 109.198,25.596 108.552,27.019 C108.096,28.022 107.065,28.732 106.741,29.282 C106.234,30.144 106.884,30.872 106.095,32.45 C105.254,34.131 104.414,33.872 103.702,35.101 C103.094,36.152 101.984,42.906 92.587,42.575 C102.139,44.983 96.848,47.114 98.076,47.58 C99.951,48.291 102.933,53.266 101.553,53.266 C100.174,53.266 100.26,55.335 100.95,56.886 C101.114,57.255 102.37,58.279 101.892,59.088 C101.052,60.511 99.112,60.252 98.53,63.162 C98.113,65.248 99.371,67.041 99.241,68.657 C99.085,70.608 96.694,70.596 97.043,73.507 C97.819,79.972 100.34,80.037 103.444,84.369 C106.825,89.088 105.129,92.22 102.733,90.64 C99.888,88.765 100.793,87.891 99.435,85.015 C95.62,76.933 89.672,76.222 90.303,77.664 C91.48,80.356 87.474,77.127 84.914,77.836 C83.422,78.249 81.913,81.201 79.327,76.545 C77.729,73.669 75.448,76.093 74.607,72.537 C71.599,59.808 65.103,57.666 62.24,43.61 C62.24,43.61 61.782,42.566 61.293,42.518 C60.803,42.469 61.243,42.95 61.134,43.268 C61.025,43.586 60.746,44.08 60.778,44.251 C60.81,44.423 60.468,44.8 60.543,45.381 C60.619,45.961 61.083,46.6 61.09,46.988 C61.097,47.375 61.056,48.67 61.125,48.927 C61.195,49.184 61.474,50.343 61.226,50.93 C60.978,51.516 61.383,52.414 61.518,52.735 C61.653,53.056 61.145,53.583 61.156,54.164 C61.166,54.746 61.308,55.39 61.313,55.713 C61.319,56.037 61.098,59.274 60.783,59.732 C60.468,60.191 60.697,59.756 60.576,60.21 C60.455,60.665 60.4,61.184 60.146,61.447 C59.892,61.71 59.117,61.787 59.117,61.787 C59.117,61.787 58.303,61.691 58.044,61.432 C57.785,61.174 57.721,60.656 57.591,60.204 C57.462,59.751 57.699,60.182 57.376,59.73 C57.053,59.277 56.772,56.044 56.772,55.721 C56.772,55.398 56.902,54.751 56.902,54.169 C56.902,53.587 56.384,53.07 56.514,52.747 C56.643,52.423 57.031,51.518 56.772,50.936 C56.514,50.354 56.772,49.191 56.837,48.932 C56.902,48.673 56.837,47.38 56.837,46.992 C56.837,46.604 57.29,45.958 57.354,45.376 C57.419,44.794 57.07,44.423 57.099,44.251 C57.128,44.079 56.84,43.59 56.725,43.274 C56.61,42.958 57.041,42.469 56.553,42.527 C56.064,42.584 55.892,43.533 55.803,43.695 C54.227,46.557 55.12,46.486 54.38,47.833 C52.156,51.881 49.958,57.873 48.496,58.501 C47.243,59.04 45.777,65.246 45.199,67.23 C44.483,69.684 44.007,69.603 43.195,70.85 C42.242,72.313 40.913,71.66 39.445,72.531 C37.198,73.865 36.216,72.173 35.501,72.273 C33.06,72.615 32.025,72.098 31.406,72.014 C29.798,71.798 29.525,69.339 28.302,69.665 C24.913,70.569 23.232,65.287 22.85,65.161 C18.993,63.888 21.421,61.149 20.393,60.355 C17.563,58.17 19.207,55.721 18.949,55.398 C18.69,55.074 17.376,53.604 18.302,52.229 C19.525,50.415 19.282,50.142 19.66,49.449 C21.357,46.342 24.504,44.962 25.517,44.423 C24.18,44.359 19.762,45.523 15.522,39.104 C15.267,38.719 13.479,37.565 12.628,36.492 C11.3,34.817 10.75,33.088 10.457,32.747 C7.757,29.595 8.524,28.77 7.957,28.113 C6.076,25.931 6.069,23.922 5.545,23.463 C3.834,21.965 4.015,21.476 3.347,21.178 C2.073,20.613 -1.354,9.362 1.665,7.211 C14.617,-2.017 53.419,23.795 54.398,34.883 C54.419,35.127 54.484,35.069 54.627,35.141 C54.792,35.224 54.714,33.589 54.8,33.963 C54.886,34.337 55.346,36.147 55.547,36.205 C55.748,36.262 55.834,37.009 56.007,35.601 C56.179,34.193 56.265,34.911 56.179,34.193 C56.093,33.474 55.691,33.245 55.863,33.015 C56.036,32.785 56.007,31.98 56.265,31.865 C56.524,31.75 56.352,30.313 56.553,30.371 C56.754,30.428 56.955,30.055 57.185,29.969 C57.415,29.882 57.587,30.285 57.674,30.026 C57.76,29.767 58.265,29.563 58.803,29.779"></path>
    </defs>
    <g id="Page-1" stroke="none" stroke-width="1" fill="none" fill-rule="evenodd" sketch:type="MSPage">
        <g id="Untitled-1" sketch:type="MSLayerGroup" transform="translate(-15.000000, -29.000000)">
            <g id="Group" transform="translate(16.000000, 29.000000)">
                <g id="Group-108">
                    <mask id="mask-2" sketch:name="Clip 107" fill="white">
                        <use xlink:href="#path-1"></use>
                    </mask>
                    <g id="Clip-107"></g>
                    <path d="M58.803,29.779 C59.286,29.649 58.821,29.779 58.821,29.779 C59.278,29.612 59.854,29.782 59.945,30.039 C60.036,30.296 60.201,29.891 60.432,29.973 C60.664,30.055 60.871,30.425 61.072,30.364 C61.272,30.302 61.125,31.742 61.386,31.852 C61.647,31.963 61.633,32.768 61.809,32.994 C61.986,33.221 61.588,33.458 61.515,34.178 C61.442,34.898 61.515,34.178 61.713,35.583 C61.911,36.988 62.327,35.937 62.327,35.937 C63.965,24.126 100.174,-9.497 116.634,3.57 C117.252,4.061 116.855,7.365 116.382,8.09 C116.181,8.398 117.022,9.614 115.664,11.243 C115.341,11.631 115.881,12.719 114.694,13.312 C114.435,13.441 114.565,15.252 113.53,16.803 C113.073,17.49 112.259,18.036 112.028,18.436 C111.73,18.952 111.92,20.16 111.332,21.329 C110.717,22.55 109.594,23.637 109.399,23.953 C108.784,24.952 109.198,25.596 108.552,27.019 C108.096,28.022 107.065,28.732 106.741,29.282 C106.234,30.144 106.884,30.872 106.095,32.45 C105.254,34.131 104.414,33.872 103.702,35.101 C103.094,36.152 101.984,42.906 92.587,42.575 C102.139,44.983 96.848,47.114 98.076,47.58 C99.951,48.291 102.933,53.266 101.553,53.266 C100.174,53.266 100.26,55.335 100.95,56.886 C101.114,57.255 102.37,58.279 101.892,59.088 C101.052,60.511 99.112,60.252 98.53,63.162 C98.113,65.248 99.371,67.041 99.241,68.657 C99.085,70.608 96.694,70.596 97.043,73.507 C97.819,79.972 100.34,80.037 103.444,84.369 C106.825,89.088 105.129,92.22 102.733,90.64 C99.888,88.765 100.793,87.891 99.435,85.015 C95.62,76.933 89.672,76.222 90.303,77.664 C91.48,80.356 87.474,77.127 84.914,77.836 C83.422,78.249 81.913,81.201 79.327,76.545 C77.729,73.669 75.448,76.093 74.607,72.537 C71.599,59.808 65.103,57.666 62.24,43.61 C62.24,43.61 61.782,42.566 61.293,42.518 C60.803,42.469 61.243,42.95 61.134,43.268 C61.025,43.586 60.746,44.08 60.778,44.251 C60.81,44.423 60.468,44.8 60.543,45.381 C60.619,45.961 61.083,46.6 61.09,46.988 C61.097,47.375 61.056,48.67 61.125,48.927 C61.195,49.184 61.474,50.343 61.226,50.93 C60.978,51.516 61.383,52.414 61.518,52.735 C61.653,53.056 61.145,53.583 61.156,54.164 C61.166,54.746 61.308,55.39 61.313,55.713 C61.319,56.037 61.098,59.274 60.783,59.732 C60.468,60.191 60.697,59.756 60.576,60.21 C60.455,60.665 60.4,61.184 60.146,61.447 C59.892,61.71 59.117,61.787 59.117,61.787 C59.117,61.787 58.303,61.691 58.044,61.432 C57.785,61.174 57.721,60.656 57.591,60.204 C57.462,59.751 57.699,60.182 57.376,59.73 C57.053,59.277 56.772,56.044 56.772,55.721 C56.772,55.398 56.902,54.751 56.902,54.169 C56.902,53.587 56.384,53.07 56.514,52.747 C56.643,52.423 57.031,51.518 56.772,50.936 C56.514,50.354 56.772,49.191 56.837,48.932 C56.902,48.673 56.837,47.38 56.837,46.992 C56.837,46.604 57.29,45.958 57.354,45.376 C57.419,44.794 57.07,44.423 57.099,44.251 C57.128,44.079 56.84,43.59 56.725,43.274 C56.61,42.958 57.041,42.469 56.553,42.527 C56.064,42.584 55.892,43.533 55.803,43.695 C54.227,46.557 55.12,46.486 54.38,47.833 C52.156,51.881 49.958,57.873 48.496,58.501 C47.243,59.04 45.777,65.246 45.199,67.23 C44.483,69.684 44.007,69.603 43.195,70.85 C42.242,72.313 40.913,71.66 39.445,72.531 C37.198,73.865 36.216,72.173 35.501,72.273 C33.06,72.615 32.025,72.098 31.406,72.014 C29.798,71.798 29.525,69.339 28.302,69.665 C24.913,70.569 23.232,65.287 22.85,65.161 C18.993,63.888 21.421,61.149 20.393,60.355 C17.563,58.17 19.207,55.721 18.949,55.398 C18.69,55.074 17.376,53.604 18.302,52.229 C19.525,50.415 19.282,50.142 19.66,49.449 C21.357,46.342 24.504,44.962 25.517,44.423 C24.18,44.359 19.762,45.523 15.522,39.104 C15.267,38.719 13.479,37.565 12.628,36.492 C11.3,34.817 10.75,33.088 10.457,32.747 C7.757,29.595 8.524,28.77 7.957,28.113 C6.076,25.931 6.069,23.922 5.545,23.463 C3.834,21.965 4.015,21.476 3.347,21.178 C2.073,20.613 -1.354,9.362 1.665,7.211 C14.617,-2.017 53.419,23.795 54.398,34.883 C54.419,35.127 54.484,35.069 54.627,35.141 C54.792,35.224 54.714,33.589 54.8,33.963 C54.886,34.337 55.346,36.147 55.547,36.205 C55.748,36.262 55.834,37.009 56.007,35.601 C56.179,34.193 56.265,34.911 56.179,34.193 C56.093,33.474 55.691,33.245 55.863,33.015 C56.036,32.785 56.007,31.98 56.265,31.865 C56.524,31.75 56.352,30.313 56.553,30.371 C56.754,30.428 56.955,30.055 57.185,29.969 C57.415,29.882 57.587,30.285 57.674,30.026 C57.76,29.767 58.265,29.563 58.803,29.779" id="Fill-106" sketch:type="MSShapeGroup" mask="url(#mask-2)"></path>
                </g>
                <path d="M58.803,29.779 C59.286,29.649 58.821,29.779 58.821,29.779 C59.278,29.612 59.854,29.782 59.945,30.039 C60.036,30.296 60.201,29.891 60.432,29.973 C60.664,30.055 60.871,30.425 61.072,30.364 C61.272,30.302 61.125,31.742 61.386,31.852 C61.647,31.963 61.633,32.768 61.809,32.994 C61.986,33.221 61.588,33.458 61.515,34.178 C61.442,34.898 61.515,34.178 61.713,35.583 C61.911,36.988 62.327,35.937 62.327,35.937 C63.965,24.126 100.174,-9.497 116.634,3.57 C117.252,4.061 116.855,7.365 116.382,8.09 C116.181,8.398 117.022,9.614 115.664,11.243 C115.341,11.631 115.881,12.719 114.694,13.312 C114.435,13.441 114.565,15.252 113.53,16.803 C113.073,17.49 112.259,18.036 112.028,18.436 C111.73,18.952 111.92,20.16 111.332,21.329 C110.717,22.55 109.594,23.637 109.399,23.953 C108.784,24.952 109.198,25.596 108.552,27.019 C108.096,28.022 107.065,28.732 106.741,29.282 C106.234,30.144 106.884,30.872 106.095,32.45 C105.254,34.131 104.414,33.872 103.702,35.101 C103.094,36.152 101.984,42.906 92.587,42.575 C102.139,44.983 96.848,47.114 98.076,47.58 C99.951,48.291 102.933,53.266 101.553,53.266 C100.174,53.266 100.26,55.335 100.95,56.886 C101.114,57.255 102.37,58.279 101.892,59.088 C101.052,60.511 99.112,60.252 98.53,63.162 C98.113,65.248 99.371,67.041 99.241,68.657 C99.085,70.608 96.694,70.596 97.043,73.507 C97.819,79.972 100.34,80.037 103.444,84.369 C106.825,89.088 105.129,92.22 102.733,90.64 C99.888,88.765 100.793,87.891 99.435,85.015 C95.62,76.933 89.672,76.222 90.303,77.664 C91.48,80.356 87.474,77.127 84.914,77.836 C83.422,78.249 81.913,81.201 79.327,76.545 C77.729,73.669 75.448,76.093 74.607,72.537 C71.599,59.808 65.103,57.666 62.24,43.61 C62.24,43.61 61.782,42.566 61.293,42.518 C60.803,42.469 61.243,42.95 61.134,43.268 C61.025,43.586 60.746,44.08 60.778,44.251 C60.81,44.423 60.468,44.8 60.543,45.381 C60.619,45.961 61.083,46.6 61.09,46.988 C61.097,47.375 61.056,48.67 61.125,48.927 C61.195,49.184 61.474,50.343 61.226,50.93 C60.978,51.516 61.383,52.414 61.518,52.735 C61.653,53.056 61.145,53.583 61.156,54.164 C61.166,54.746 61.308,55.39 61.313,55.713 C61.319,56.037 61.098,59.274 60.783,59.732 C60.468,60.191 60.697,59.756 60.576,60.21 C60.455,60.665 60.4,61.184 60.146,61.447 C59.892,61.71 59.117,61.787 59.117,61.787 C59.117,61.787 58.303,61.691 58.044,61.432 C57.785,61.174 57.721,60.656 57.591,60.204 C57.462,59.751 57.699,60.182 57.376,59.73 C57.053,59.277 56.772,56.044 56.772,55.721 C56.772,55.398 56.902,54.751 56.902,54.169 C56.902,53.587 56.384,53.07 56.514,52.747 C56.643,52.423 57.031,51.518 56.772,50.936 C56.514,50.354 56.772,49.191 56.837,48.932 C56.902,48.673 56.837,47.38 56.837,46.992 C56.837,46.604 57.29,45.958 57.354,45.376 C57.419,44.794 57.07,44.423 57.099,44.251 C57.128,44.079 56.84,43.59 56.725,43.274 C56.61,42.958 57.041,42.469 56.553,42.527 C56.064,42.584 55.892,43.533 55.803,43.695 C54.227,46.557 55.12,46.486 54.38,47.833 C52.156,51.881 49.958,57.873 48.496,58.501 C47.243,59.04 45.777,65.246 45.199,67.23 C44.483,69.684 44.007,69.603 43.195,70.85 C42.242,72.313 40.913,71.66 39.445,72.531 C37.198,73.865 36.216,72.173 35.501,72.273 C33.06,72.615 32.025,72.098 31.406,72.014 C29.798,71.798 29.525,69.339 28.302,69.665 C24.913,70.569 23.232,65.287 22.85,65.161 C18.993,63.888 21.421,61.149 20.393,60.355 C17.563,58.17 19.207,55.721 18.949,55.398 C18.69,55.074 17.376,53.604 18.302,52.229 C19.525,50.415 19.282,50.142 19.66,49.449 C21.357,46.342 24.504,44.962 25.517,44.423 C24.18,44.359 19.762,45.523 15.522,39.104 C15.267,38.719 13.479,37.565 12.628,36.492 C11.3,34.817 10.75,33.088 10.457,32.747 C7.757,29.595 8.524,28.77 7.957,28.113 C6.076,25.931 6.069,23.922 5.545,23.463 C3.834,21.965 4.015,21.476 3.347,21.178 C2.073,20.613 -1.354,9.362 1.665,7.211 C14.617,-2.017 53.419,23.795 54.398,34.883 C54.419,35.127 54.484,35.069 54.627,35.141 C54.792,35.224 54.714,33.589 54.8,33.963 C54.886,34.337 55.346,36.147 55.547,36.205 C55.748,36.262 55.834,37.009 56.007,35.601 C56.179,34.193 56.265,34.911 56.179,34.193 C56.093,33.474 55.691,33.245 55.863,33.015 C56.036,32.785 56.007,31.98 56.265,31.865 C56.524,31.75 56.352,30.313 56.553,30.371 C56.754,30.428 56.955,30.055 57.185,29.969 C57.415,29.882 57.587,30.285 57.674,30.026 C57.76,29.767 58.265,29.563 58.803,29.779 L58.803,29.779 Z" id="Stroke-109" stroke="#EEEEEE" stroke-width="1.029" sketch:type="MSShapeGroup"></path>
                <path d="M6.636,11.692 C6.685,12.135 6.808,12.669 6.578,12.956 C6.349,13.243 6.981,12.956 7.326,12.927 C7.67,12.899 8.332,12.812 8.044,12.324 C7.757,11.835 7.757,11.462 7.441,11.519 C7.125,11.577 6.607,11.433 6.636,11.692 L6.636,11.692 Z M31.264,14.68 C31.427,14.409 26.81,11.663 26.235,11.921 C25.66,12.18 26.522,12.841 26.666,13.013 C26.81,13.186 25.517,12.123 25.172,12.123 C24.827,12.123 24.712,12.123 24.482,11.921 C24.252,11.72 23.648,11.806 23.936,11.979 C24.223,12.151 24.568,12.582 24.712,12.697 C24.855,12.812 23.534,12.094 23.419,12.41 C23.304,12.726 23.39,13.445 24.597,14.019 C25.804,14.594 31.005,15.111 31.264,14.68 L31.264,14.68 Z M32.471,25.112 C32.595,24.916 30.919,24.882 30.718,24.451 C30.517,24.02 29.511,24.393 29.109,24.336 C28.706,24.279 28.879,23.905 29.425,23.819 C29.971,23.733 30.862,23.301 31.178,23.301 C31.494,23.301 31.954,23.675 32.155,23.589 C32.356,23.503 33.276,23.79 33.592,23.589 C33.908,23.388 35.46,21.98 35.977,21.836 C36.494,21.692 37.011,21.462 37.213,21.089 C37.414,20.715 38.563,20.715 39.052,20.83 C39.54,20.945 40.345,20.801 40.345,20.399 C40.345,19.997 39.425,19.623 39.368,19.307 C39.31,18.991 37.672,17.928 37.299,18.157 C36.925,18.387 37.126,18.933 36.839,18.962 C36.552,18.991 35.804,18.617 35.431,18.589 C35.057,18.56 34.54,18.876 34.138,18.617 C33.735,18.359 33.994,19.192 33.448,19.106 C32.902,19.02 32.959,18.876 32.557,19.077 C32.155,19.278 31.982,18.215 31.724,18.272 C31.465,18.33 31.12,18.445 30.804,18.014 C30.488,17.583 30.373,18.1 30.114,17.698 C29.856,17.295 29.425,17.295 29.224,17.123 C29.022,16.95 29.08,17.439 28.821,17.382 C28.563,17.324 28.505,16.864 28.189,16.778 C27.873,16.692 27.873,16.404 28.189,16.232 C28.505,16.06 28.39,15.542 28.045,15.715 C27.701,15.887 25.89,18.646 25.861,18.933 C25.833,19.221 25.718,19.795 25.919,20.112 C26.12,20.428 26.838,20.169 26.953,20.112 C27.068,20.054 26.407,20.485 26.177,20.744 C25.948,21.002 26.235,22.238 26.436,22.382 C26.637,22.526 27.815,23.531 27.959,23.962 C28.103,24.393 30.287,26.06 30.546,26.118 C30.804,26.175 31.436,25.974 30.804,25.658 C30.172,25.342 29.453,25.054 30.546,24.853 C31.637,24.652 32.27,25.428 32.471,25.112 L32.471,25.112 Z M15.458,37.124 C15.558,36.725 16.234,36.664 16.407,36.664 C16.579,36.664 16.78,37.124 16.982,37.182 C17.183,37.239 17.096,37.498 17.298,37.728 C17.499,37.958 16.608,38.446 16.321,38.417 C16.033,38.389 15.401,37.354 15.458,37.124 L15.458,37.124 Z M13.102,33.474 C13.055,33.846 13.619,33.963 14.683,33.676 C15.746,33.388 14.999,33.934 14.079,34.308 C13.159,34.681 13.102,34.825 12.556,34.595 C12.01,34.365 12.24,34.969 12.01,34.883 C11.78,34.796 11.493,34.049 11.722,33.791 C11.952,33.532 12.154,33.072 12.096,32.756 C12.039,32.44 12.383,31.578 12.987,31.578 C13.59,31.578 14.165,32.066 14.424,32.153 C14.683,32.239 14.51,32.9 14.108,33.13 C13.705,33.36 13.131,33.245 13.102,33.474 L13.102,33.474 Z M19.194,41.406 C19.29,41.189 19.999,41.147 20.286,41.262 C20.574,41.377 20.66,41.435 20.89,41.377 C21.12,41.32 20.919,41.521 20.574,41.751 C20.229,41.981 20.344,42.556 19.884,42.268 C19.424,41.981 19.079,41.665 19.194,41.406 L19.194,41.406 Z M21.666,48.274 C21.48,47.949 22.576,46.678 23.419,47.067 C23.792,47.24 22.01,48.878 21.666,48.274 L21.666,48.274 Z M21.579,49.366 C21.341,49.541 21.177,50.228 21.809,49.769 C22.442,49.309 22.442,48.734 21.579,49.366 L21.579,49.366 Z M20.372,52.24 C21.159,51.626 22.758,51.78 21.033,53.045 C19.309,54.309 19.453,52.958 20.372,52.24 L20.372,52.24 Z M21.263,54.367 C20.807,54.74 19.941,56.148 21.321,55.257 C22.7,54.367 22.212,53.591 21.263,54.367 L21.263,54.367 Z M20.746,57.039 C20.677,56.901 21.694,57.212 22.499,57.441 C23.304,57.671 23.074,57.671 22.355,57.844 C21.637,58.016 21.982,58.39 21.723,58.534 C21.465,58.677 20.602,58.648 20.631,58.189 C20.66,57.729 20.947,57.441 20.746,57.039 L20.746,57.039 Z M25.085,57.671 C24.746,57.739 24.511,58.102 25.143,58.102 C25.775,58.102 26.091,57.47 25.085,57.671 L25.085,57.671 Z M22.528,59.712 C22.057,59.888 21.838,60.919 22.672,60.718 C23.505,60.516 23.217,59.453 22.528,59.712 L22.528,59.712 Z M23.447,62.988 C23.012,63.083 22.499,63.907 23.476,63.936 C24.453,63.965 24.367,62.787 23.447,62.988 L23.447,62.988 Z M30.66,58.045 C30.405,58.113 30.172,58.677 30.66,58.534 C31.149,58.39 31.091,57.93 30.66,58.045 L30.66,58.045 Z M25.344,64.942 C25.143,65.262 25.689,65.977 25.976,65.229 C26.264,64.482 25.833,64.166 25.344,64.942 L25.344,64.942 Z M27.815,65.459 C28.007,65.183 28.275,63.821 28.419,64.971 C28.563,66.12 27.844,66.178 27.701,66.091 C27.557,66.005 27.557,65.833 27.815,65.459 L27.815,65.459 Z" id="Stroke-110" stroke="#EEEEEE" stroke-width="0.257" sketch:type="MSShapeGroup"></path>
                <path d="M31.12,68.161 C31.338,67.974 32.212,69.051 31.58,69.368 C30.948,69.684 30.488,69.109 30.603,68.822 C30.718,68.534 30.919,68.333 31.12,68.161 L31.12,68.161 Z M30.258,26.635 C30.09,26.939 29.31,27.066 28.563,26.865 C27.815,26.664 27.959,28.072 28.074,28.158 C28.189,28.244 28.474,28.807 31.235,28.331 C32.65,28.086 26.249,30.242 18.425,33.474 C17.513,33.852 16.694,33.015 16.407,32.67 C16.119,32.325 16.378,31.204 15.746,31.405 C15.114,31.607 15.861,30.744 15.027,30.744 C14.194,30.744 14.516,29.701 14.654,29.566 C15.803,28.445 28.074,25.026 28.318,25.083 C28.563,25.141 30.402,26.376 30.258,26.635 L30.258,26.635 Z M14.596,18.905 C14.33,18.409 14.007,18.711 13.849,18.474 C13.639,18.159 13.749,17.676 13.303,17.726 C12.81,17.782 13.504,16.807 13.677,16.807 C13.849,16.807 15.688,16.634 15.43,16.261 C15.171,15.887 14.338,15.657 14.797,15.542 C15.257,15.427 16.234,15.973 16.522,15.37 C16.809,14.766 16.206,14.709 16.55,14.565 C16.895,14.422 20.602,14.048 21.148,13.876 C21.694,13.703 23.01,13.95 23.304,14.048 C24.597,14.479 28.002,14.881 27.657,15.341 C26.599,16.753 25.705,18.456 25.531,18.445 C22.513,18.244 14.746,19.183 14.596,18.905 L14.596,18.905 Z M12.779,19.724 C12.617,19.821 11.647,19.821 11.259,20.036 C10.871,20.252 11.151,20.65 10.828,20.747 C10.505,20.844 10.634,21.189 10.763,21.211 C10.893,21.232 11.744,21.254 11.755,21.469 C11.766,21.685 11.313,21.707 10.914,21.825 C10.515,21.944 11,22.181 10.742,22.385 C10.483,22.59 10.128,22.31 9.934,22.526 C9.74,22.741 9.664,23.28 10.041,23.334 C10.418,23.388 10.11,23.669 10.225,23.711 C10.548,23.829 10.462,24.138 10.688,24.135 C11.079,24.129 17.211,22.698 25.43,21.75 C25.802,21.707 25.775,20.974 25.631,20.715 C25.488,20.456 25.443,19.033 25.229,18.775 C24.884,18.359 12.937,19.411 12.901,19.551 C12.865,19.691 12.779,19.724 12.779,19.724 L12.779,19.724 Z M11.033,24.681 C11.033,24.769 10.395,25.098 9.89,25.22 C9.682,25.27 9.955,25.586 9.201,25.608 C8.84,25.618 8.791,26.319 9.136,26.491 C9.481,26.664 10.58,26.297 10.58,26.427 C10.58,26.556 9.502,27.009 9.395,27.159 C9.287,27.31 10.86,26.879 11.097,26.858 C11.335,26.836 11.205,27.332 10.817,27.72 C10.429,28.108 10.179,27.975 10.322,28.28 C10.645,28.97 12.477,29.142 13.677,29.006 C14.877,28.869 22.729,25.802 27.815,24.853 C28.155,24.79 25.976,22.626 25.603,22.224 C25.183,21.772 11.349,24.164 11.176,24.422 C11.176,24.422 11.033,24.523 11.033,24.681 L11.033,24.681 Z M32.478,28.776 C32.543,28.28 19.245,33.345 18.9,33.841 C18.555,34.337 18.749,34.337 18.339,34.423 C17.93,34.509 18.469,35.371 18.124,35.457 C17.779,35.544 17.412,36.406 18.382,36.212 C19.352,36.018 18.792,36.664 18.77,36.966 C18.749,37.268 19.115,37.139 19.223,37.72 C19.331,38.302 21.206,38.065 21.465,37.958 C21.723,37.85 22.046,37.656 22.284,37.699 C22.521,37.742 33.922,33.259 34.957,32.548 C35.991,31.836 35.064,32.246 35.064,32.052 C35.064,31.858 35.56,31.664 35.28,31.535 C35,31.405 34.418,31.125 34.633,30.888 C34.849,30.651 34.612,30.349 34.353,30.392 C34.095,30.436 34.202,29.789 33.944,29.832 C33.685,29.875 32.823,29.466 32.78,29.854 C32.737,30.242 32.155,30.759 31.918,30.328 C31.681,29.897 31.702,29.767 31.508,29.961 C31.314,30.155 31.81,30.737 31.314,30.759 C30.818,30.78 30.84,30.392 30.646,30.392 C30.452,30.392 29.827,30.845 29.913,30.285 C29.999,29.724 30.193,29.595 30.538,29.552 C30.883,29.509 31.077,29.595 31.206,29.552 C31.336,29.509 31.508,29.164 31.745,29.142 C31.982,29.121 32.373,29.581 32.478,28.776 L32.478,28.776 Z M22.262,38.087 C22.181,38.436 21.572,38.884 21.335,39.057 C21.098,39.229 21.572,39.121 21.443,39.358 C21.314,39.596 20.581,39.897 20.775,40.113 C20.969,40.328 21.637,40.113 21.508,40.35 C21.378,40.587 20.904,40.953 21.12,40.997 C21.335,41.04 21.723,41.19 21.486,41.514 C21.249,41.837 21.637,41.837 21.594,42.074 C21.551,42.311 20.818,42.527 21.033,42.591 C21.249,42.656 21.637,43.281 22.176,43.281 C22.715,43.281 31.745,39.897 31.767,39.682 C31.788,39.466 31.056,39.423 31.357,39.143 C31.659,38.863 32.004,39.165 32.025,38.927 C32.047,38.69 31.961,38.518 32.478,38.324 C32.995,38.13 32.456,38.173 32.327,37.677 C32.198,37.182 32.349,37.44 31.982,37.332 C31.616,37.225 30.517,37.268 30.926,36.988 C31.336,36.707 31.637,36.686 31.875,36.707 C32.112,36.729 31.465,35.63 31.637,35.522 C31.81,35.414 32.995,35.608 33.017,35.414 C33.038,35.22 32.65,34.854 32.715,34.638 C32.78,34.423 33.06,34.617 33.34,34.487 C33.62,34.358 33.62,33.841 34.482,34.035 C35.345,34.229 34.741,34.638 34.784,34.832 C34.827,35.026 35.625,34.94 35.625,34.66 C35.625,34.38 35.172,34.401 35.215,34.164 C35.258,33.927 35.603,33.69 35.086,33.712 C34.569,33.733 34.763,33.431 34.526,33.431 C34.289,33.431 34.138,33.582 33.642,33.582 C33.146,33.582 33.362,33.862 33.082,33.992 C32.801,34.121 32,34.354 31.4,34.617 C23.792,37.958 22.327,37.807 22.262,38.087 L22.262,38.087 Z M22.887,43.626 C23.122,43.332 32.025,40.07 32.694,39.962 C33.362,39.854 33.771,39.876 33.491,40.199 C33.211,40.522 33.189,40.565 32.586,40.867 C31.982,41.169 30.517,41.643 30.258,41.794 C29.999,41.945 32.069,41.363 32.995,41.083 C33.922,40.803 34.698,40.91 34.245,41.19 C33.793,41.471 27.93,43.863 26.4,43.928 C24.87,43.992 22.628,43.949 22.887,43.626 L22.887,43.626 Z" id="Stroke-111" stroke="#EEEEEE" stroke-width="0.257" sketch:type="MSShapeGroup"></path>
                <path d="M51.143,36.147 C51.143,36.285 49.052,35.005 48.427,34.768 C47.802,34.531 47.63,34.337 46.854,34.1 C46.078,33.862 40.625,31.729 40.259,31.578 C39.892,31.427 37.543,30.651 37.371,30.328 C37.198,30.004 35.302,29.358 34.763,28.948 C34.224,28.539 33.857,27.871 33.599,28.065 C33.34,28.259 33.06,28.194 33.06,27.784 C33.06,27.375 33.103,27.095 32.521,27.009 C31.939,26.922 31.637,26.233 32.004,26.039 C32.37,25.845 32.672,26.125 32.672,25.651 C32.672,25.177 32.888,24.595 33.082,24.767 C33.276,24.939 33.922,25.414 33.922,24.81 C33.922,24.207 33.426,24.013 33.836,23.754 C34.245,23.495 34.569,23.926 34.763,23.883 C34.957,23.84 34.418,23.237 34.741,23.172 C35.064,23.107 34.957,22.655 35.237,22.59 C35.517,22.526 35.754,22.396 35.883,22.116 C36.013,21.836 36.638,21.836 36.875,21.771 C37.112,21.707 37.349,21.06 37.521,21.081 C37.694,21.103 37.866,21.081 38.039,20.931 C38.211,20.78 38.772,21.06 38.987,21.06 C39.203,21.06 39.892,20.866 40.151,20.866 C40.41,20.866 40.604,20.909 40.798,20.607 C40.992,20.306 41.897,21.103 41.961,21.34 C42.026,21.577 42.371,21.534 42.608,21.75 C42.845,21.965 43.125,22.396 43.341,22.504 C43.556,22.612 43.923,22.892 44.009,23.107 C44.095,23.323 44.397,23.517 44.656,23.646 C44.914,23.776 44.979,24.465 45.798,24.508 C46.617,24.552 46.143,25.177 46.509,25.414 C46.876,25.651 47.91,26.384 47.673,26.642 C47.436,26.901 46.66,27.31 48.126,27.483 C49.591,27.655 51.014,31.362 50.755,31.47 C50.496,31.578 49.742,31.168 50.022,31.47 C50.302,31.772 51.402,32.462 51.531,32.806 C51.66,33.151 51.876,33.151 52.07,33.367 C52.264,33.582 51.833,34.056 52.07,34.272 C52.307,34.487 52.932,35.414 52.609,35.544 C52.285,35.673 52.027,35.457 51.833,35.716 C51.639,35.975 51.143,35.91 51.143,36.147 L51.143,36.147 Z M35.711,37.44 C35.965,37.187 36.94,36.557 38.06,36.837 C39.181,37.117 38.34,37.397 37.759,37.44 C37.177,37.483 37.026,37.656 36.789,37.591 C36.552,37.526 36.293,38.022 35.927,37.85 C35.56,37.677 35.474,37.677 35.711,37.44 L35.711,37.44 Z M54.8,38.791 C54.401,38.791 54.168,39.854 55.03,39.768 C55.892,39.682 56.036,38.791 54.8,38.791 L54.8,38.791 Z M55.288,38.848 C55.288,38.848 55.116,38.417 54.915,38.245 C54.714,38.072 54.254,37.526 53.65,37.67 C53.047,37.814 52.185,37.641 51.984,37.44 C51.782,37.239 51.409,36.98 50.949,37.038 C50.489,37.095 50.46,37.038 50.259,36.866 C50.058,36.693 51.38,36.032 51.143,36.147 C50.906,36.262 50.949,36.147 50.633,36.147 C50.317,36.147 49.455,36.779 49.167,36.952 C48.88,37.124 47.041,36.406 46.84,36.233 C46.638,36.061 46.092,35.831 45.719,35.745 C45.345,35.659 44.34,34.796 44.052,34.452 C43.765,34.107 42.471,33.589 42.012,33.647 C41.552,33.704 40.632,32.986 40.345,33.101 C40.058,33.216 41.265,33.791 41.753,33.791 C42.242,33.791 43.908,34.998 44.282,35.113 C44.656,35.227 46.15,36.636 46.725,36.952 C47.299,37.268 49.455,37.526 50.001,37.843 C50.547,38.159 51.035,38.187 51.466,38.044 C51.897,37.9 53.42,38.187 54.225,38.302 C55.03,38.417 53.706,38.792 53.478,38.762 C53.255,38.733 52.587,38.087 51.445,38.259 C50.302,38.432 47.501,39.229 46.703,39.445 C45.906,39.66 44.526,40.307 44.419,40.393 C44.311,40.479 46.272,39.897 47.113,39.811 C47.953,39.725 48.664,39.574 48.729,39.79 C48.794,40.005 48.6,40.027 47.824,40.285 C47.048,40.544 46.746,40.609 46.746,40.609 L55.288,38.848 Z M57.616,31.032 C57.348,30.992 57.386,31.836 57.731,31.693 C58.076,31.549 58.593,31.176 57.616,31.032 L57.616,31.032 Z M58.076,32.756 C58.006,33.035 57.559,33.417 57.501,32.756 C57.444,32.095 58.105,32.641 58.076,32.756 L58.076,32.756 Z M56.409,32.756 C56.459,32.555 57.329,32.842 56.869,33.388 C56.409,33.934 56.38,32.871 56.409,32.756 L56.409,32.756 Z M39.957,40.328 C41.078,40.242 47.802,41.176 51.251,40.027 C51.509,39.94 53.88,41.535 53.535,41.88 C53.191,42.225 52.731,41.032 52.214,41.722 C52.041,41.952 52.788,42.326 53.191,42.225 C53.593,42.124 54.024,42.124 53.794,42.326 C53.564,42.527 53.162,42.814 53.334,42.929 C53.507,43.044 54.513,42.642 54.513,42.441 C54.513,42.239 54.398,41.837 54.656,41.895 C54.915,41.952 55.49,42.642 55.217,42.742 C54.524,42.997 54.354,43.346 53.751,43.475 C53.147,43.604 46.121,48.863 45.906,49.165 C45.69,49.467 45.194,49.144 44.893,49.532 C44.591,49.919 41.207,51.665 40.819,51.665 C40.431,51.665 38.06,52.161 37.974,52.032 C37.888,51.902 36.681,51.536 36.422,51.32 C36.164,51.105 36.508,50.674 36.422,50.415 C36.336,50.157 36.164,50.523 36.077,50.868 C35.991,51.213 36.056,51.17 35.819,51.277 C29.586,54.11 26.594,58.735 25.56,59.123 C24.525,59.511 23.577,60.89 23.49,61.019 C23.404,61.149 22.758,61.493 22.542,61.968 C22.327,62.442 21.551,63.175 21.292,63.045 C21.033,62.916 20.775,61.752 21.076,60.502 C21.378,59.252 22.876,58.997 24.805,57.248 C32.672,50.113 38.362,48.475 35.409,49.596 C31.738,50.99 26.594,54.747 24.439,56.407 C24.131,56.644 23.835,56.364 23.189,57.054 C22.811,57.456 21.421,56.709 21.852,56.364 C32.7,47.686 38.772,47.462 36.25,47.743 C35.41,47.836 28.512,50.157 24.137,53.95 C23.582,54.431 21.482,54.958 22.844,53.691 C29.978,47.053 41.099,44.747 36.961,45.76 C28.446,47.844 23.965,52.183 23.749,52.053 C23.534,51.924 23.771,51.342 23.34,51.342 C22.909,51.342 21.551,51.73 22.327,50.976 C26.982,46.449 41.746,42.656 37.327,43.777 C34.721,44.438 27.284,47.096 26.034,47.57 C24.784,48.044 24.615,47.557 25.646,46.88 C26.336,46.428 25.969,46.967 27.887,45.889 C31.999,43.579 36.853,42.203 32.456,43.518 C30.743,44.031 27.284,45.674 26.594,45.76 C25.904,45.846 25.646,45.824 24.697,46.471 C23.749,47.118 23.307,46.704 23.685,46.255 C24.374,45.436 36.638,40.997 39.397,40.371 L39.957,40.328 Z" id="Stroke-112" stroke="#EEEEEE" stroke-width="0.257" sketch:type="MSShapeGroup"></path>
                <path d="M36.212,50.29 C36.212,50.29 36.664,48.027 36.729,47.704 C36.794,47.38 39.186,45.893 39.768,45.117 C40.35,44.341 42.289,43.889 42.936,43.436 C43.583,42.984 50.436,42.337 50.759,42.079 L36.212,50.29 Z M37.974,52.032 C39.186,50.678 51.535,43.824 53.152,42.984 L37.974,52.032 Z M36.422,50.415 C37.311,49.32 49.789,43.63 52.117,42.79 L36.422,50.415 Z M53.863,46.669 C53.979,46.438 54.315,46.863 53.734,48.027 C53.152,49.191 48.949,56.367 48.82,57.208 C48.69,58.049 46.945,57.855 47.397,56.691 C47.85,55.527 49.014,52.682 50.371,51.324 C51.729,49.967 53.604,47.186 53.863,46.669 L53.863,46.669 Z M41.449,70.01 C42.079,69.92 43.518,66.648 43.97,64.967 C44.423,63.286 45.005,61.928 45.005,61.346 C45.005,60.764 43.453,65.613 42.871,66.712 C42.289,67.812 40.996,70.075 41.449,70.01 L41.449,70.01 Z M21.923,64.773 C21.923,64.126 21.923,63.286 22.375,62.833 C22.828,62.38 22.569,61.993 23.022,61.734 C23.475,61.475 23.992,61.152 23.992,60.893 C23.992,60.635 24.897,60.053 24.962,59.794 C25.026,59.536 25.673,59.536 25.996,59.277 C26.319,59.018 27.936,57.273 28.259,57.079 C28.582,56.885 29.1,56.238 29.423,55.98 C29.746,55.721 35.371,51.518 36.082,51.583 C36.794,51.648 37.763,52.229 37.699,52.294 C37.634,52.359 35.242,55.01 34.725,55.592 C34.207,56.174 32.138,58.695 31.492,59.406 C30.845,60.118 30.91,60.764 30.522,61.217 C30.134,61.669 29.811,62.122 29.358,62.38 C28.906,62.639 27.871,64.191 27.483,65.031 C27.095,65.872 26.901,66.324 27.16,66.454 C27.419,66.583 27.354,66.971 27.095,67.488 C26.837,68.006 27.289,68.2 27.548,68.006 C27.807,67.812 27.871,66.777 28.195,66.777 C28.518,66.777 28.582,65.807 28.906,65.355 C29.229,64.902 30.07,63.415 30.522,63.221 C30.975,63.027 31.729,61.949 30.436,62.919 C29.143,63.889 29.035,64.643 28.776,64.643 C28.518,64.643 28.469,64.188 28.582,63.932 C28.731,63.598 29.224,62.83 29.396,62.851 C29.845,62.907 30.328,62.445 30.328,62.187 C30.328,61.928 34.078,56.949 34.725,56.367 C35.371,55.786 37.957,52.811 37.957,52.553 C37.957,52.294 40.802,51.906 40.996,51.971 C41.19,52.036 39.1,55.569 38.927,55.85 C36.207,60.286 33.561,67.553 33.108,68.587 C32.656,69.622 32.526,70.462 32.138,70.462 C31.751,70.462 30.522,70.139 30.845,70.462 C31.169,70.786 32.203,70.721 32.203,71.238 C32.203,71.756 32.656,72.467 32.979,72.014 C33.302,71.562 32.656,70.915 32.72,70.656 C32.785,70.398 35.366,63.95 35.689,63.304 C36.013,62.657 38.147,57.959 39.186,56.626 C39.595,56.101 41.19,51.971 41.449,51.712 C41.708,51.454 44.358,50.354 44.811,49.967 C45.264,49.579 46.621,49.191 46.88,48.997 C47.139,48.803 48.69,47.316 49.014,47.122 C49.337,46.928 51.665,45.053 52.052,44.988 C52.44,44.923 54.186,43.307 54.121,43.63 C54.057,43.954 53.604,44.794 54.251,44.6 C54.897,44.406 55.324,43.906 55.13,44.423 C55.13,44.423 49.143,49.514 47.527,53.329 C45.91,57.143 44.94,65.613 44.488,66.712 C44.035,67.812 42.936,70.075 43.001,70.333 C43.065,70.592 43.583,70.462 44.229,69.363 L21.923,64.773 Z M20.732,48.605 C20.516,49.079 20.128,49.424 20.861,49.079 C21.594,48.734 22.499,48.734 22.413,48.993 C22.327,49.251 22.197,49.769 22.327,49.682 C22.456,49.596 23.447,48.863 23.62,48.863 C23.792,48.863 24.697,47.915 24.956,48.174 C25.215,48.432 24.999,48.562 24.611,48.82 C24.223,49.079 22.499,49.855 22.284,50.2 C22.068,50.545 21.12,50.889 20.99,51.191 C20.861,51.493 19.654,51.493 19.395,51.924 C19.137,52.355 18.619,53.002 19.05,52.786 C19.482,52.57 20.904,51.665 21.206,51.665 C21.508,51.665 22.758,51.665 21.335,53.303 C19.913,54.941 19.654,54.683 19.654,54.855 C19.654,55.028 19.87,55.329 20.171,55.243 C20.473,55.157 20.516,55.631 20.257,55.89 C19.999,56.148 19.525,56.45 19.999,56.321 C20.473,56.191 21.594,55.243 21.465,55.803 C21.335,56.364 20.344,56.579 20.257,57.054 C20.171,57.528 19.74,57.829 19.525,57.226 C19.309,56.622 19.438,56.148 19.309,55.803 C19.18,55.459 18.964,55.243 18.964,55.545 L20.732,48.605 Z M43.75,51.665 C43.621,52.053 43.061,53.777 42.845,54.036 C42.63,54.295 41.768,55.588 41.552,56.579 C41.336,57.571 40.862,57.441 40.862,57.614 C40.862,57.786 40.561,58.864 40.388,59.209 C40.216,59.554 39.095,62.269 38.923,63.002 C38.75,63.735 37.629,66.321 37.371,67.011 C37.112,67.701 36.293,69.037 36.983,69.123 C37.672,69.209 38.923,68.649 39.267,67.873 C39.612,67.097 41.638,60.028 42.242,58.433 C42.845,56.838 45.302,51.708 45.604,51.191 C45.906,50.674 45.259,52.398 45.13,52.872 C45,53.346 43.88,56.191 43.664,56.45 C43.449,56.709 42.716,58.476 42.587,59.166 C42.457,59.855 41.724,61.321 41.552,61.838 C41.38,62.356 40.517,65.416 40.474,65.89 C40.431,66.364 40.043,67.097 39.871,68.132 C39.698,69.166 40,70.287 40.561,69.296 C41.121,68.304 42.716,64.726 43.018,62.873 C43.319,61.019 44.699,56.622 45.302,55.459 C45.906,54.295 46.251,53.217 46.509,52.915 C46.768,52.614 47.883,50.706 46.466,54.079 C45.561,56.235 44.828,57.743 44.569,58.605 C44.311,59.467 43.707,62.183 43.492,63.045 C43.276,63.907 42.414,66.278 42.285,67.011 C42.155,67.744 43.104,65.718 43.449,64.899 C43.793,64.08 44.268,62.14 44.44,61.192 C44.613,60.243 44.785,58.993 45.173,58.174 C45.561,57.355 46.595,55.933 46.854,55.2 L43.75,51.665 Z M35.905,52.743 C36.264,52.59 36.595,52.527 35.733,53.217 C34.87,53.907 31.853,56.752 30.948,57.657 C30.56,58.045 30.56,57.614 30.172,58.088 C29.784,58.562 27.37,61.493 26.939,62.787 C26.508,64.08 26.292,64.382 26.508,64.382 C26.723,64.382 27.844,63.951 27.284,64.382 C26.723,64.813 26.422,65.201 26.336,64.942 C26.249,64.683 26.292,64.123 26.12,64.166 C25.948,64.209 25.517,63.907 25.215,63.951 C24.913,63.994 24.697,63.304 24.913,63.002 C25.129,62.7 25.387,61.537 24.741,61.666 C24.094,61.795 23.62,61.925 23.965,62.054 C24.309,62.183 24.87,62.485 24.611,62.744 C24.353,63.002 24.482,63.563 24.353,63.433 C24.223,63.304 24.094,62.657 23.663,62.744 C23.232,62.83 22.801,63.045 22.672,63.218 C22.542,63.39 23.016,62.528 23.318,62.312 C23.62,62.097 23.49,61.881 23.318,61.881 C23.146,61.881 24.008,61.149 24.654,61.235 C25.301,61.321 25.689,61.364 25.646,61.623 C25.603,61.881 25.991,62.614 26.12,62.14 C26.249,61.666 26.465,61.321 26.68,61.364 C26.896,61.407 28.275,59.424 28.275,59.123 C28.275,58.821 28.362,58.692 28.749,58.519 C29.137,58.347 33.577,53.734 35.905,52.743 L35.905,52.743 Z" id="Stroke-113" stroke="#EEEEEE" stroke-width="0.257" sketch:type="MSShapeGroup"></path>
                <path d="M38.75,53.777 C39.095,53.519 39.612,53.562 39.181,53.95 C38.75,54.338 38.448,54.64 38.362,54.941 C38.276,55.243 37.931,55.588 37.759,56.019 C37.586,56.45 37.069,56.838 36.767,57.355 C36.465,57.873 35.646,59.166 35.345,59.381 C35.043,59.597 35.086,60.071 34.87,60.33 C34.655,60.588 34.396,61.407 34.095,61.58 C33.793,61.752 33.103,63.304 33.103,64.166 C33.103,65.028 33.06,66.752 32.715,67.615 C32.37,68.477 32.543,69.985 32.069,70.115 C31.594,70.244 29.137,69.985 28.749,69.123 C28.362,68.261 28.922,66.278 29.999,64.942 C31.077,63.606 32.758,62.097 33.448,60.933 C34.138,59.769 34.612,59.209 35.258,58.433 C35.905,57.657 36.465,57.14 36.465,56.709 C36.465,56.278 36.767,56.235 37.155,55.717 C37.543,55.2 37.931,54.424 38.147,54.338 C38.362,54.252 38.75,53.777 38.75,53.777 L38.75,53.777 Z M43.147,52.183 C42.845,52.57 40.992,55.502 40.474,56.752 C39.957,58.002 39.871,58.648 39.698,58.821 C39.526,58.993 39.095,60.674 39.009,60.976 C38.923,61.278 37.931,63.261 37.672,63.735 C37.414,64.209 36.724,66.666 36.164,67.485 C35.603,68.304 35,68.649 34.914,68.089 C34.827,67.528 36.121,63.778 36.379,63.261 C36.638,62.744 37.241,61.149 37.586,60.631 C37.931,60.114 38.448,59.381 38.664,58.864 C38.879,58.347 39.095,57.528 38.923,57.657 C38.75,57.786 38.017,59.467 37.802,59.726 C37.586,59.985 36.552,62.312 36.293,62.83 C36.034,63.347 35.345,65.718 35.172,65.718 C35,65.718 35.043,64.64 35.345,64.08 L43.147,52.183 Z M95.346,68.956 C96.093,68.899 96.768,68.166 97.027,68.338 C97.286,68.511 96.806,71.016 96.036,71.456 C95.432,71.801 95.72,70.479 95.288,70.134 C95.432,69.703 95.605,69.359 95.346,68.956 L95.346,68.956 Z M94.168,77.376 C92.472,75.968 92.329,75.278 91.725,75.049 C91.122,74.819 89.541,76.543 89.915,76.974 C90.288,77.405 90.805,76.485 94.168,77.376 L94.168,77.376 Z M87.731,75.106 C88.449,77.405 88.075,78.008 88.162,78.181 C88.248,78.353 90.552,79.101 90.504,78.497 C90.432,77.606 88.392,77.031 87.731,75.106 L87.731,75.106 Z M80.503,72.908 C80.503,72.908 81.092,75.307 81.466,75.595 C81.839,75.882 81.839,75.192 82.27,74.847 C82.702,74.503 83.449,73.842 83.736,73.87 C84.023,73.899 85.978,74.359 86.524,74.934 C87.07,75.508 85.805,76.514 85.46,76.6 C85.115,76.687 84.512,76.945 84.11,76.6 C83.707,76.255 83.133,77.434 83.133,77.836 C83.133,78.238 82.874,79.991 80.862,78.583 C78.851,77.175 79.885,76.083 79.828,75.709 C79.77,75.336 79.282,74.273 79.081,73.842 C78.879,73.41 78.161,74.416 77.902,74.416 C77.644,74.416 76.695,73.985 76.379,74.215 C76.063,74.445 74.914,73.583 74.598,72.405 C74.281,71.226 72.356,64.301 70.862,61.255 C71.666,62.318 72.586,63.927 73.362,66.427 C74.138,68.927 73.254,65.174 73.114,64.301 C73.33,64.818 73.822,67.347 73.994,67.347 C74.167,67.347 74.396,66.916 74.741,67.261 C75.086,67.606 74.856,66.427 75.115,66.514 C75.373,66.6 75.46,67.577 75.632,67.519 C75.805,67.462 75.718,66.542 75.862,66.628 C76.006,66.715 76.264,66.916 76.322,66.772 C76.379,66.628 76.293,65.853 76.868,66.14 C77.443,66.427 77.96,67.634 78.391,67.634 C78.822,67.634 79.742,66.657 79.914,66.743 C80.086,66.83 80.46,67.203 80.661,67.203 C80.862,67.203 80.345,65.967 80.776,65.939 C81.207,65.91 81.954,66.312 82.184,66.284 C82.414,66.255 82.443,65.967 82.702,66.082 C82.96,66.197 84.225,68.037 84.253,68.381 C84.282,68.726 84.11,69.014 84.11,69.186 C84.11,69.359 84.541,69.79 84.34,70.077 C84.138,70.364 83.19,70.68 82.874,70.795 C82.558,70.91 82.759,71.313 82.587,71.514 C82.414,71.715 81.164,72.678 80.503,72.908 L80.503,72.908 Z M76.078,71.715 C76.221,71.735 76.142,72.771 75.884,72.642 C75.625,72.512 75.776,71.672 76.078,71.715 L76.078,71.715 Z M77.651,71.93 C77.478,71.948 77.047,71.327 77.478,71.349 C77.91,71.37 77.866,71.909 77.651,71.93 L77.651,71.93 Z M90.281,61.499 C90.113,61.633 89.182,60.852 88.966,60.852 C88.751,60.852 88.621,60.55 88.514,60.55 C88.406,60.55 87.63,61.197 87.134,61.046 C86.639,60.895 84.634,59.537 84.634,58.762 C84.634,57.897 84.957,57.512 84.893,57.318 C84.828,57.124 84.72,56.93 84.828,56.822 C84.936,56.714 85.388,56.843 85.453,56.692 C85.518,56.542 84.893,55.917 84.979,55.55 C85.065,55.184 85.755,54.473 85.949,54.494 C86.143,54.516 88.212,55.96 88.341,55.895 C88.471,55.83 87.953,55.442 88.083,55.313 C88.212,55.184 89.721,55.744 89.828,55.572 C89.936,55.399 89.591,55.141 89.764,55.011 C89.936,54.882 90.906,55.486 90.906,55.68 C90.906,55.873 90.453,56.628 90.022,56.714 C89.591,56.8 89.16,56.369 89.139,56.52 C89.117,56.671 90.432,57.943 90.432,58.352 C90.432,58.762 90.453,59.042 90.453,59.214 C90.453,59.387 90.072,59.422 89.958,59.667 C89.462,60.723 90.497,61.326 90.281,61.499 L90.281,61.499 Z M96.682,59.128 C96.538,59.207 96.51,59.645 96.618,59.882 C96.725,60.119 96.747,60.615 96.747,60.809 C96.747,61.003 96.962,61.219 97.027,61.37 C97.092,61.52 97.587,61.714 98.04,61.391 C98.493,61.068 98.708,61.283 98.687,60.809 C98.665,60.335 99.096,59.731 99.204,59.581 C99.312,59.43 99.635,58.611 98.644,58.675 C97.652,58.74 97.889,58.977 97.695,59.15 C97.501,59.322 96.919,58.999 96.682,59.128 L96.682,59.128 Z" id="Stroke-114" stroke="#EEEEEE" stroke-width="0.257" sketch:type="MSShapeGroup"></path>
                <path d="M98.191,55.895 C98.191,55.895 100.325,57.835 100.519,58.093 C100.713,58.352 100.799,58.891 100.713,59.106 C100.626,59.322 101.058,59.969 101.596,59.516 C102.135,59.063 102.157,58.201 101.23,57.512 C101.009,57.347 100.82,57.792 100.497,57.598 C100.174,57.404 99.29,56.843 98.191,55.895 L98.191,55.895 Z M92.889,46.735 C92.889,46.735 99.014,49.87 99.937,51.563 C100.325,52.274 97.113,51.541 96.876,51.886 C96.639,52.231 97.544,54.645 98.557,54.796 C99.57,54.947 99.937,54.214 100.282,53.697 C100.799,52.921 102.717,53.955 101.596,51.584 C100.723,49.737 100.43,49.64 99.98,49.839 C99.247,50.162 95.562,47.36 92.889,46.735 L92.889,46.735 Z M91.229,42.489 C91.229,42.489 95.114,43.348 96.1,44.881 C96.488,45.485 94.333,45.463 94.01,45.42 C93.686,45.377 95.722,47.382 95.755,47.813 C95.777,48.093 97.932,48.847 98.062,48.201 C98.191,47.554 97.997,47.554 98.019,47.338 C98.04,47.123 98.794,46.757 98.083,45.722 C97.176,44.402 93.536,42.64 93.32,42.597 C93.104,42.554 91.617,42.597 91.229,42.489 L91.229,42.489 Z M91.208,42.489 C91.208,42.489 86.214,41.759 85.238,41.476 C84.569,41.282 83.621,43.243 83.772,43.545 C83.923,43.847 84.807,43.653 85.194,44.019 C85.582,44.386 86.271,46.197 86.401,48.61 C86.445,49.408 88.578,49.86 89.031,49.774 C89.484,49.688 89.871,48.783 90.109,48.761 C90.346,48.739 91.66,49.041 91.833,48.675 C92.005,48.308 92.544,46.67 91.768,46.11 C91.247,45.733 91.078,46.088 90.971,45.851 C90.863,45.614 91.229,44.752 90.884,44.429 C90.54,44.106 91.143,43.782 91.143,43.524 C91.143,43.265 91.294,42.683 91.208,42.489 L91.208,42.489 Z M95.633,42.087 C95.633,42.087 96.582,41.828 96.697,41.656 C96.812,41.483 96.151,41.253 96.007,41.225 C95.863,41.196 96.869,41.196 97.013,41.11 C97.156,41.023 97.99,40.046 97.76,39.788 C97.53,39.529 97.645,39.242 97.645,39.098 C97.645,38.954 97.53,38.38 97.645,38.006 C97.76,37.632 97.932,37.431 97.817,37.115 C97.702,36.799 96.812,35.707 96.151,35.506 C95.49,35.305 97.904,36.167 98.363,35.822 C98.823,35.477 99.398,35.305 99.398,35.132 C99.398,34.96 99.398,32.747 99.743,32.402 C100.088,32.057 99.455,30.333 98.133,29.873 C96.812,29.414 100.547,30.937 101.122,30.017 C101.697,29.097 101.266,29.327 101.41,29.04 C101.553,28.753 101.841,28.293 101.984,27.948 C102.128,27.603 102.617,27.373 102.559,26.971 C102.502,26.569 102.53,25.419 102.3,25.247 C102.071,25.074 101.036,24.557 100.346,24.442 C99.657,24.327 101.323,24.011 101.525,23.609 C101.726,23.206 102.013,22.459 101.869,22.172 C101.726,21.884 102.099,21.654 101.956,21.223 C101.812,20.792 101.754,20.304 101.381,20.045 C101.007,19.786 100.059,19.126 99.254,19.097 C98.45,19.068 101.208,18.666 101.467,18.321 C101.726,17.976 102.214,17.574 101.927,17.2 C101.639,16.827 101.984,16.252 101.783,16.137 C101.582,16.022 101.352,15.735 101.151,15.476 C100.95,15.217 98.794,14.757 98.133,14.815 C97.473,14.872 100.835,14.614 101.036,13.953 C101.237,13.292 101.007,12.315 100.72,12.315 C100.432,12.315 100.662,11.826 100.605,11.453 C100.547,11.079 97.789,10.361 96.668,10.418 C95.547,10.476 99.139,10.102 99.024,9.671 C98.909,9.24 97.415,8.119 94.771,10.045 C92.127,11.97 93.392,10.217 92.99,10.389 C92.587,10.562 94.886,9.47 94.484,8.723 C94.082,7.975 93.449,8.435 93.248,8.435 C93.047,8.435 92.731,7.803 92.185,7.889 C91.639,7.975 90.173,8.723 89.627,9.556 C89.081,10.389 90.346,8.32 89.943,8.406 C89.541,8.493 83.161,12.286 83.104,12.631 C83.046,12.976 85.029,12.286 85.317,12.142 C85.604,11.999 82.702,13.349 81.954,13.694 C81.207,14.039 70.081,21.459 64.327,35.295 L95.633,42.087 Z M107.559,6.021 C107.841,5.959 109.399,5.878 109.686,6.079 C109.973,6.28 111.065,6.567 111.238,6.998 C111.41,7.429 111.18,8.033 110.749,8.234 C110.318,8.435 109.945,8.263 109.686,8.263 C109.427,8.263 109.226,8.55 108.795,8.378 C108.364,8.205 108.249,8.493 108.105,8.263 C107.962,8.033 107.789,7.372 107.875,7.113 C107.962,6.855 107.358,6.596 107.358,6.424 C107.358,6.251 107.301,6.079 107.559,6.021 L107.559,6.021 Z M97.286,77.75 C97.286,77.75 100.62,83.752 100.95,84.302 C101.305,84.895 103.938,88.325 104.786,90.768 C104.132,88.857 104.183,87.988 103.709,87.276 C103.31,86.679 102.006,85.143 97.286,77.75 L97.286,77.75 Z M60.02,31.044 C60.288,31 60.265,31.844 59.918,31.707 C59.57,31.569 59.046,31.205 60.02,31.044 L60.02,31.044 Z M59.592,32.776 C59.667,33.054 60.121,33.428 60.167,32.766 C60.212,32.104 59.561,32.662 59.592,32.776 L59.592,32.776 Z M61.259,32.746 C61.205,32.546 60.341,32.849 60.81,33.386 C61.28,33.924 61.289,32.86 61.259,32.746 L61.259,32.746 Z M92.945,10.402 C92.945,10.402 85.962,11.825 84.992,12.213 L92.945,10.402 Z M96.576,10.433 C96.576,10.433 95.208,10.208 94.626,10.208 L96.576,10.433 Z M99.089,19.066 C99.089,19.066 93.333,18.937 90.94,19.196 L99.089,19.066 Z M100.188,24.369 C100.188,24.369 91.673,22.601 87.729,22.471 L100.188,24.369 Z M89.492,9.738 C89.233,10.018 87.583,10.682 87.95,11.496 C88.554,12.832 91.98,16.474 91.199,18.614 C90.526,20.458 88.678,20.424 87.643,22.558 C86.609,24.691 78.527,29.411 77.815,29.799 C77.104,30.187 64.755,35.295 63.914,36.588 L89.492,9.738 Z" id="Stroke-115" stroke="#EEEEEE" stroke-width="0.257" sketch:type="MSShapeGroup"></path>
                <path d="M97.86,29.8 C97.86,29.8 86.35,26.049 83.376,26.372 M96.115,35.489 C96.115,35.489 81.048,30.122 78.333,29.541 M96.049,41.244 C96.049,41.244 69.588,33.51 65.206,37.883 M84.992,41.567 C84.992,41.567 76.975,39.045 62.557,40.079 M99.152,69.304 C99.152,69.304 96.309,61.03 89.197,56.568 M87.773,75.189 C87.773,75.189 85.123,69.755 84.282,68.462 M73.031,63.937 C73.031,63.937 70.315,53.011 63.332,44.476 M83.7,43.377 C83.7,43.377 78.85,42.407 75.358,42.795 C72.19,42.213 65.337,40.661 63.203,40.855 M63.009,41.89 C63.009,41.89 74.841,52.558 77.88,52.623 C80.919,52.687 82.923,49.131 80.143,46.674 C77.363,44.217 75.811,43.248 74.906,42.73 M62.944,45.058 C62.944,45.058 66.565,51.006 67.6,54.239 C68.634,57.472 70.576,60.577 71.029,61.482 M63.462,38.01 C63.462,38.01 64.626,36.976 72.514,39.885 M98.053,14.8 C98.053,14.8 92.619,14.799 90.356,15.122 M97.409,77.905 C95.534,75.254 86.479,61.026 85.897,60.315 M67.988,41.373 C68.634,41.954 74.647,49.131 71.22,48.743 M69.473,43.053 C69.925,43.182 78.719,46.48 81.435,49.389 M70.96,45.122 C71.283,45.316 79.626,49.455 80.919,50.942 M72.125,47.32 C72.448,47.644 78.204,50.36 79.82,52.106 M69.669,47.515 C69.669,47.515 76.587,62.707 77.686,66.975 M72.772,49.907 C72.772,49.907 78.527,62.515 80.531,66.2 M76.07,51.977 C76.07,51.977 82.147,64.778 82.923,66.394 M95.28,68.914 C95.28,68.914 94.416,67.922 93.899,67.232 M96.554,59.324 C96.554,59.324 92.778,55.852 90.795,54.731 M98.227,55.934 C98.227,55.934 92.174,51.196 88.295,49.731 M96.874,51.844 C96.874,51.844 93.899,49.472 91.83,48.524 M93.922,45.399 C93.922,45.399 92.174,44.558 90.881,44.213" id="Stroke-116" stroke="#EEEEEE" stroke-width="0.257" sketch:type="MSShapeGroup"></path>
            </g>
        </g>
    </g>
</svg>
