<?xml version="1.0" encoding="UTF-8" standalone="no"?>
<svg width="112px" height="69px" viewBox="0 0 112 69" version="1.1" xmlns="http://www.w3.org/2000/svg" xmlns:xlink="http://www.w3.org/1999/xlink" xmlns:sketch="http://www.bohemiancoding.com/sketch/ns">
    <!-- Generator: Sketch 3.2.2 (9983) - http://www.bohemiancoding.com/sketch -->
    <title>Group 4</title>
    <desc>Created with Sketch.</desc>
    <defs></defs>
    <g id="Welcome" stroke="none" stroke-width="1" fill="none" fill-rule="evenodd" sketch:type="MSPage">
        <g id="Desktop-HD" sketch:type="MSArtboardGroup" transform="translate(-89.000000, -741.000000)">
            <g id="Group-4" sketch:type="MSLayerGroup" transform="translate(92.000000, 741.000000)">
                <path d="M51.120409,16.672452 C71.6080006,16.672452 92.0955921,35.9859617 92.0955921,35.9859617 C92.0955921,35.9859617 71.6080006,54.9128539 51.120409,54.9128539" id="Path-8" stroke="#FFFFFF" stroke-width="4" sketch:type="MSShapeGroup"></path>
                <path d="M40.975183,14.5535956 C20.4875915,14.5535956 0,33.9859617 0,33.9859617 C0,33.9859617 20.4875915,52.9128539 40.975183,52.9128539" id="Path-9" stroke="#FFFFFF" stroke-width="4" sketch:type="MSShapeGroup"></path>
                <path d="M41.1349561,42.6216946 C41.1071841,42.6219558 41.0793814,42.6220866 41.0515484,42.6220866 C36.1976073,42.6220866 32.2627106,38.6424076 32.2627106,33.7332247 C32.2627106,28.8240419 36.1976073,24.8443629 41.0515484,24.8443629 C41.0793814,24.8443629 41.1071841,24.8444937 41.1349561,24.8447549 L41.1349561,30.5638263 C39.3395573,30.6452723 37.908685,32.1432015 37.908685,33.9791322 C37.908685,35.815063 39.3395573,37.3129922 41.1349561,37.3944382 L41.1349561,42.6216946 Z" id="Oval-16" fill="#FFFFFF" sketch:type="MSShapeGroup"></path>
                <path d="M59.9926545,44.6216946 C59.9648825,44.6219558 59.9370798,44.6220866 59.9092468,44.6220866 C55.0553057,44.6220866 51.120409,40.6424076 51.120409,35.7332247 C51.120409,30.8240419 55.0553057,26.8443629 59.9092468,26.8443629 C59.9370798,26.8443629 59.9648825,26.8444937 59.9926545,26.8447549 L59.9926545,32.5638263 C58.1972557,32.6452723 56.7663834,34.1432015 56.7663834,35.9791322 C56.7663834,37.815063 58.1972557,39.3129922 59.9926545,39.3944382 L59.9926545,44.6216946 Z" id="Oval-17" fill="#FFFFFF" sketch:type="MSShapeGroup" transform="translate(55.556532, 35.733225) scale(-1, 1) translate(-55.556532, -35.733225) "></path>
                <rect id="Rectangle-14" stroke="#FFFFFF" stroke-width="6" sketch:type="MSShapeGroup" x="40.4014115" y="0" width="68.5985885" height="68.9189665"></rect>
            </g>
        </g>
    </g>
</svg>