<?xml version="1.0" encoding="UTF-8" standalone="no"?>
<svg width="195px" height="195px" viewBox="0 0 195 195" version="1.1" xmlns="http://www.w3.org/2000/svg" xmlns:xlink="http://www.w3.org/1999/xlink" xmlns:sketch="http://www.bohemiancoding.com/sketch/ns">
    <!-- Generator: Sketch 3.2.2 (9983) - http://www.bohemiancoding.com/sketch -->
    <title>Group 7</title>
    <desc>Created with Sketch.</desc>
    <defs></defs>
    <g id="Page-1" stroke="none" stroke-width="1" fill="none" fill-rule="evenodd" sketch:type="MSPage">
        <g id="Group-7" sketch:type="MSLayerGroup" fill="#FFFFFF">
            <path d="M28.5343868,166.314764 C10.1326415,147.914858 0,123.447877 0,97.4264151 C0,71.4031132 10.1326415,46.9361321 28.5343868,28.5362264 C46.9361321,10.1344811 71.4012736,0 97.4245755,0 C123.447877,0 147.913019,10.1344811 166.314764,28.5362264 C184.71467,46.9361321 194.849151,71.4031132 194.849151,97.4264151 C194.849151,110.875896 192.809009,123.549057 188.785755,135.098208 C184.635566,147.011604 178.459953,157.471698 170.42816,166.193349 C153.157783,184.940943 127.914481,194.850991 97.4245755,194.850991 C71.4012736,194.850991 46.9361321,184.716509 28.5343868,166.314764 Z M34.402783,34.4046226 C17.5702358,51.2371698 8.29853774,73.6198585 8.29853774,97.4264151 C8.29853774,112.382174 11.9582769,126.776627 18.8534796,139.586039 C22.9332033,147.165057 20.7871078,152.349561 27.0442925,158.606745 C29.7202958,161.282749 39.8949403,165.607231 42.834693,167.894096 C58.3885394,179.993603 77.4023222,186.550613 97.4245755,186.550613 C120.543334,186.550613 140.29604,180.473054 155.290804,168.85934 C158.527743,166.352272 168.90145,159.907973 171.680943,156.890377 C177.658376,150.401782 175.118924,146.570173 178.721951,138.201354 C183.88456,126.210064 186.550613,112.457314 186.550613,97.4264151 C186.550613,73.6198585 177.278915,51.2371698 160.446368,34.4046226 C143.611981,17.5702358 121.231132,8.30037736 97.4245755,8.30037736 C73.6180189,8.30037736 51.2371698,17.5702358 34.402783,34.4046226 Z" id="Fill-2351" sketch:type="MSShapeGroup"></path>
            <path d="M16.5566038,40.7586792 C19.0750472,37.245 23.6391509,34.9528302 27.8776415,34.9528302 C36.0768396,34.9528302 41.1339623,39.599717 41.1339623,48.3471226 L41.1339623,93.044434 C41.1339623,109.720613 50.5657075,123.389009 69.4291981,123.389009 C89.7956604,123.389009 97.5864623,107.533302 97.5864623,93.044434 L97.5864623,36.045566 L105.925472,36.045566 L105.925472,93.044434 C105.925472,111.497689 94.9907547,130.907547 69.5653302,130.907547 C45.5085849,130.907547 32.7967925,113.410896 32.7967925,93.044434 L32.7967925,48.3471226 C32.6588208,43.9743396 30.0631132,43.1538679 28.1499057,43.1538679 C26.2366981,43.1538679 24.4596226,43.9743396 23.4441509,45.4386792 L16.5566038,40.7586792 Z" id="Fill-2352" sketch:type="MSShapeGroup"></path>
            <path d="M175.503679,121.402217 C176.188019,122.494953 177.416887,123.315425 179.05783,123.315425 C181.653538,123.315425 183.268726,121.404057 183.680802,118.942642 L192.089717,119.356557 C191.679481,127.011226 185.071557,131.244198 178.511462,131.244198 C172.495896,131.244198 169.489953,127.552075 166.071934,121.402217 L146.936179,88.4600943 L122.195094,130.287594 L112.491085,130.287594 L141.058585,82.3083962 L112.216981,36.7924528 L121.648726,36.7924528 L146.525943,76.2946698 L171.267028,36.7924528 L180.971038,36.7924528 L152.267406,82.3083962 L175.503679,121.402217 Z" id="Fill-2353" sketch:type="MSShapeGroup"></path>
            <path d="M11.0377358,134.292453 C25.2929717,167.40566 58.3270755,190.85533 96.8064623,190.85533 C143.244057,190.85533 172.346887,167.40566 184.103915,134.292453 L11.0377358,134.292453 Z M26.9008019,152.850566 C28.7073113,152.946226 28.8029717,152.970142 29.2297642,152.970142 C31.8916981,152.970142 33.5804717,152.184623 33.5804717,150.046981 C33.5804717,147.979245 31.9634434,146.83684 29.9913679,146.83684 L27.5189151,146.83684 L27.5189151,145.006415 L29.8239623,145.006415 C30.7511321,145.006415 31.5127358,144.769104 32.0351887,144.318396 C32.5815566,143.841934 32.842783,143.247736 32.842783,142.392311 C32.842783,140.753208 31.7500472,139.895943 30.156934,139.826038 L26.9008019,139.826038 L26.9008019,152.850566 Z M29.8478774,137.971698 C32.6293868,137.971698 34.7688679,139.802123 34.7688679,142.392311 C34.7688679,143.913679 34.0311792,145.173821 32.8906132,145.768019 C34.529717,146.623443 35.4808019,148.144811 35.4808019,150.069057 C35.4808019,153.349104 32.7710377,154.776651 29.1341038,154.776651 C28.6594811,154.776651 27.3533491,154.752736 26.4022642,154.657075 L24.9287264,154.491509 L24.9287264,139.826038 C24.4761792,139.849953 24.3106132,139.895943 24.1910377,140.039434 C24.0015566,140.230755 23.9298113,140.491981 23.9298113,140.681462 L23.6446698,140.942689 L22.0993868,140.942689 C22.0993868,140.847028 22.0754717,140.753208 22.0754717,140.633632 C22.0754717,139.921698 22.3845283,139.255755 22.8370755,138.803208 C23.3356132,138.30467 24.0015566,137.971698 24.7134906,137.971698 L29.8478774,137.971698 Z M36.7924528,139.32566 C37.1732547,138.541981 38.1703302,137.971698 39.0496698,137.971698 C40.5471226,137.971698 41.5699528,138.920943 41.5699528,140.514057 L41.5699528,148.049151 C41.5699528,150.735 43.0674057,152.896557 46.0623113,152.896557 C49.2706132,152.896557 50.5307547,150.378113 50.5307547,148.049151 L50.5307547,138.161179 L52.5028302,138.161179 L52.5028302,148.049151 C52.5028302,151.233538 50.5307547,154.703066 46.0862264,154.703066 C41.8790094,154.703066 39.5978774,151.566509 39.5978774,148.049151 L39.5978774,140.514057 C39.5978774,139.967689 39.2649057,139.919858 39.0975,139.919858 C38.7406132,139.919858 38.5511321,140.063349 38.4315566,140.442311 L36.7924528,139.32566 Z M64.3498787,147.550613 C64.4455391,147.526698 64.5172844,147.526698 64.6111051,147.502783 L64.826341,147.574528 L64.3977089,147.574528 L64.3498787,147.550613 Z M71.0056334,151.923396 C71.1711994,153.396934 69.9588881,154.515425 68.628841,154.515425 C67.8911523,154.515425 67.2012938,154.158538 66.7027561,153.516509 L63.8035108,149.737925 C62.9720013,148.573443 62.329973,148.00316 60.6651145,147.9075 L60.6651145,146.077075 L62.9480862,146.077075 C64.8723315,146.077075 65.966907,144.840849 65.966907,143.010425 C65.966907,141.156085 64.8484164,139.802123 63.2093127,139.802123 L60.0230862,139.802123 L60.0230862,154.300189 L58.0510108,154.300189 L58.0510108,139.802123 L57.8854447,139.802123 C57.4328976,139.802123 57.0300202,140.182925 57.0300202,140.657547 C57.0300202,140.753208 57.0539353,140.848868 57.0760108,140.942689 L55.1995957,140.942689 C55.1278504,140.087264 55.4129919,139.37533 55.9593598,138.781132 C56.4836523,138.232925 57.1477561,137.971698 57.8376145,137.971698 L63.2810579,137.971698 C64.1125674,137.971698 64.7545957,138.139104 65.2531334,138.376415 C66.8462466,139.160094 67.8911523,141.014434 67.8911523,143.010425 C67.8911523,145.363302 66.4415296,147.075991 64.6111051,147.502783 L63.7556806,147.193726 C63.8973315,147.241557 64.1364825,147.383208 64.3498787,147.550613 L63.9470013,147.598443 L64.3977089,147.574528 C64.5393598,147.692264 64.6589353,147.81184 64.7545957,147.931415 L68.2480391,152.445849 C68.3915296,152.661085 68.4614353,152.708915 68.6049259,152.708915 C68.8661523,152.708915 69.1512938,152.423774 69.1512938,152.138632 C69.1512938,152.042972 69.1034636,151.947311 69.0078032,151.851651 L71.0056334,151.923396 Z M83.0681604,152.423774 L83.0681604,154.302028 L73.5849057,154.302028 L73.5849057,137.971698 L75.533066,137.971698 L75.533066,152.423774 L83.0681604,152.423774 Z M84.6226415,137.971698 L86.5708019,137.971698 L86.5708019,154.300189 L84.6226415,154.300189 L84.6226415,137.971698 Z M104.806981,150.378113 L104.545755,150.069057 L104.545755,137.995613 L106.47,137.995613 L106.47,154.300189 L105.638491,154.300189 L94.6816981,141.203915 L94.9668396,141.465142 L94.9668396,152.042972 C94.9668396,153.61033 93.4454717,154.371934 92.4483962,154.371934 C91.2820755,154.371934 90.1415094,153.301274 90.1415094,152.042972 C90.1415094,151.947311 90.1415094,151.851651 90.1654245,151.755991 L92.0436792,151.755991 C91.9958491,151.851651 91.971934,151.947311 91.971934,152.019057 C91.971934,152.328113 92.2570755,152.541509 92.5183019,152.541509 C92.8034434,152.541509 93.0186792,152.280283 93.0186792,152.042972 L93.0186792,137.971698 L94.3008962,137.971698 L96.9389151,140.942689 L104.806981,150.378113 Z M121.72967,153.303113 C120.397783,154.728821 118.569198,155.442594 116.690943,155.442594 C112.102925,155.442594 108.537736,151.331038 108.537736,146.862594 C108.537736,142.131085 112.459811,137.971698 116.880425,137.971698 C118.85434,137.971698 122.467358,138.851038 122.467358,141.584717 C122.467358,142.988349 121.420613,144.033255 120.160472,144.033255 C119.590189,144.033255 118.94816,143.819858 118.545283,143.391226 L119.638019,141.989434 C119.947075,142.20283 120.042736,142.25066 120.184387,142.25066 C120.445613,142.25066 120.660849,141.965519 120.660849,141.584717 C120.660849,140.3025 118.260142,139.802123 116.90434,139.802123 C113.315236,139.802123 110.344245,143.13 110.344245,146.88467 C110.344245,150.521604 113.1975,153.636085 116.690943,153.636085 C119.424623,153.636085 121.372783,151.71 121.72967,149.261462 L121.72967,147.171651 L123.607925,147.171651 L123.607925,158.555236 C123.607925,160.124434 122.228208,160.955943 121.159387,160.955943 C120.280047,160.955943 119.424623,160.409575 119.067736,159.649811 L120.613019,158.579151 C120.826415,158.936038 120.874245,159.055613 121.183302,159.055613 C121.492358,159.055613 121.68184,158.794387 121.72967,158.531321 L121.72967,153.303113 Z M132.879243,139.826038 L132.879243,154.300189 L130.907168,154.300189 L130.907168,139.826038 L127.48363,139.826038 C127.150658,139.826038 126.961177,140.087264 126.961177,140.324575 C126.961177,140.420236 127.009007,140.514057 127.102828,140.585802 L125.106837,140.585802 C125.035092,139.897783 125.274243,139.160094 125.772781,138.661557 C126.199573,138.232925 126.793771,137.971698 127.411885,137.971698 L138.370517,137.971698 L138.370517,139.826038 L132.879243,139.826038 Z M154.642358,146.481792 C154.642358,142.725283 151.599623,139.802123 148.106179,139.802123 C144.469245,139.802123 141.66566,142.964434 141.66566,146.481792 L141.66566,146.9325 C141.66566,150.641179 144.636651,153.61217 148.154009,153.61217 C151.743113,153.61217 154.642358,150.545519 154.642358,146.9325 L154.642358,146.481792 Z M139.811321,146.481792 C139.811321,141.989434 143.47217,137.971698 148.130094,137.971698 C152.740189,137.971698 156.472783,141.941604 156.472783,146.481792 L156.472783,146.9325 C156.472783,151.568349 152.811934,155.442594 148.225755,155.442594 C143.613821,155.442594 139.811321,151.520519 139.811321,146.9325 L139.811321,146.481792 Z M171.033396,150.378113 L170.77217,150.069057 L170.77217,137.995613 L172.696415,137.995613 L172.696415,154.300189 L171.864906,154.300189 L160.908113,141.203915 L161.193255,141.465142 L161.193255,152.042972 C161.193255,153.61033 159.671887,154.371934 158.674811,154.371934 C157.508491,154.371934 156.367925,153.301274 156.367925,152.042972 C156.367925,151.947311 156.367925,151.851651 156.39184,151.755991 L158.270094,151.755991 C158.222264,151.851651 158.198349,151.947311 158.198349,152.019057 C158.198349,152.328113 158.483491,152.541509 158.744717,152.541509 C159.029858,152.541509 159.245094,152.280283 159.245094,152.042972 L159.245094,137.971698 L160.527311,137.971698 L163.16533,140.942689 L171.033396,150.378113 Z" id="Fill-2350" sketch:type="MSShapeGroup"></path>
        </g>
    </g>
</svg>